<svg width="24" height="24" viewBox="0 0 24 24" xmlns="http://www.w3.org/2000/svg">
  <path
    d="M11.0501 12L7.1751 6.575C6.94176 6.24167 6.9126 5.89583 7.0876 5.5375C7.2626 5.17917 7.55843 5 7.9751 5C8.14176 5 8.3001 5.0375 8.4501 5.1125C8.6001 5.1875 8.71676 5.29167 8.8001 5.425L13.5001 12L8.8001 18.575C8.71676 18.7083 8.6001 18.8125 8.4501 18.8875C8.3001 18.9625 8.14176 19 7.9751 19C7.5751 19 7.28343 18.8208 7.1001 18.4625C6.91676 18.1042 6.94176 17.7583 7.1751 17.425L11.0501 12ZM17.0001 12L13.1251 6.575C12.8918 6.24167 12.8626 5.89583 13.0376 5.5375C13.2126 5.17917 13.5084 5 13.9251 5C14.0918 5 14.2501 5.0375 14.4001 5.1125C14.5501 5.1875 14.6668 5.29167 14.7501 5.425L19.4501 12L14.7501 18.575C14.6668 18.7083 14.5501 18.8125 14.4001 18.8875C14.2501 18.9625 14.0918 19 13.9251 19C13.5251 19 13.2334 18.8208 13.0501 18.4625C12.8668 18.1042 12.8918 17.7583 13.1251 17.425L17.0001 12Z" />
</svg>