<svg viewBox="2 9 27 14" xmlns="http://www.w3.org/2000/svg">
<path d="M9.16764 22.6668C7.3232 22.6668 5.75098 22.0168 4.45098 20.7168C3.15098 19.4168 2.50098 17.8446 2.50098 16.0002C2.50098 14.1557 3.15098 12.5835 4.45098 11.2835C5.75098 9.9835 7.3232 9.3335 9.16764 9.3335H13.1676C13.5454 9.3335 13.8621 9.46127 14.1176 9.71683C14.3732 9.97238 14.501 10.2891 14.501 10.6668C14.501 11.0446 14.3732 11.3613 14.1176 11.6168C13.8621 11.8724 13.5454 12.0002 13.1676 12.0002H9.16764C8.05653 12.0002 7.11209 12.3891 6.33431 13.1668C5.55653 13.9446 5.16764 14.8891 5.16764 16.0002C5.16764 17.1113 5.55653 18.0557 6.33431 18.8335C7.11209 19.6113 8.05653 20.0002 9.16764 20.0002H13.1676C13.5454 20.0002 13.8621 20.1279 14.1176 20.3835C14.3732 20.6391 14.501 20.9557 14.501 21.3335C14.501 21.7113 14.3732 22.0279 14.1176 22.2835C13.8621 22.5391 13.5454 22.6668 13.1676 22.6668H9.16764ZM11.8343 17.3335C11.4565 17.3335 11.1399 17.2057 10.8843 16.9502C10.6288 16.6946 10.501 16.3779 10.501 16.0002C10.501 15.6224 10.6288 15.3057 10.8843 15.0502C11.1399 14.7946 11.4565 14.6668 11.8343 14.6668H19.8343C20.2121 14.6668 20.5288 14.7946 20.7843 15.0502C21.0399 15.3057 21.1676 15.6224 21.1676 16.0002C21.1676 16.3779 21.0399 16.6946 20.7843 16.9502C20.5288 17.2057 20.2121 17.3335 19.8343 17.3335H11.8343ZM18.501 22.6668C18.1232 22.6668 17.8065 22.5391 17.551 22.2835C17.2954 22.0279 17.1676 21.7113 17.1676 21.3335C17.1676 20.9557 17.2954 20.6391 17.551 20.3835C17.8065 20.1279 18.1232 20.0002 18.501 20.0002H22.501C23.6121 20.0002 24.5565 19.6113 25.3343 18.8335C26.1121 18.0557 26.501 17.1113 26.501 16.0002C26.501 14.8891 26.1121 13.9446 25.3343 13.1668C24.5565 12.3891 23.6121 12.0002 22.501 12.0002H18.501C18.1232 12.0002 17.8065 11.8724 17.551 11.6168C17.2954 11.3613 17.1676 11.0446 17.1676 10.6668C17.1676 10.2891 17.2954 9.97238 17.551 9.71683C17.8065 9.46127 18.1232 9.3335 18.501 9.3335H22.501C24.3454 9.3335 25.9176 9.9835 27.2176 11.2835C28.5176 12.5835 29.1676 14.1557 29.1676 16.0002C29.1676 17.8446 28.5176 19.4168 27.2176 20.7168C25.9176 22.0168 24.3454 22.6668 22.501 22.6668H18.501Z" fill="#333333"/>
</svg>
