<svg width="148" height="87" viewBox="0 0 148 87" fill="none" xmlns="http://www.w3.org/2000/svg">
<path d="M74.8102 8.0332C61.2262 8.0332 50.1773 19.8319 50.1773 34.3334C50.1773 48.8349 61.2293 60.6336 74.8102 60.6336C88.3912 60.6336 99.4432 48.8349 99.4432 34.3334C99.4432 19.8319 88.3943 8.0332 74.8102 8.0332ZM88.2531 34.3334C88.2531 42.4999 82.2222 49.1447 74.8133 49.1447C67.4044 49.1447 61.3736 42.4999 61.3736 34.3334C61.3736 26.1669 67.4044 19.5221 74.8133 19.5221C82.2222 19.5221 88.2531 26.1669 88.2531 34.3334ZM74.5432 18.6048C66.8305 18.7613 60.5817 25.6117 60.4528 34.0634C60.4528 34.2138 60.3301 34.3334 60.1827 34.3334C60.0293 34.3334 59.9034 34.2076 59.9065 34.0542C60.0416 25.2834 66.5266 18.1753 74.534 18.0127C74.6875 18.0097 74.8133 18.1354 74.8133 18.2888V18.3318C74.8133 18.4821 74.6936 18.5987 74.5432 18.6018V18.6048ZM74.5218 17.0955C66.008 17.2642 59.1147 24.7864 58.9858 34.0665C58.9858 34.2168 58.863 34.3365 58.7157 34.3365C58.5622 34.3365 58.4395 34.2107 58.4395 34.0573C58.5745 24.4612 65.7072 16.6813 74.5126 16.5064C74.6783 16.5034 74.8133 16.6384 74.8133 16.804C74.8133 16.9635 74.6844 17.0924 74.5248 17.0955H74.5218ZM74.5218 15.5861C65.2008 15.7518 57.6507 23.9551 57.5187 34.0665C57.5187 34.2168 57.396 34.3365 57.2486 34.3365C57.0952 34.3365 56.9724 34.2107 56.9724 34.0573C57.1075 23.6299 64.8969 15.1689 74.5126 14.9971C74.6783 14.9971 74.8133 15.129 74.8133 15.2947C74.8133 15.4542 74.6844 15.583 74.5218 15.5861ZM74.5218 14.0768C64.3905 14.2424 56.1837 23.1237 56.0517 34.0665C56.0517 34.2168 55.9289 34.3365 55.7816 34.3365C55.6281 34.3365 55.5054 34.2107 55.5054 34.0573C55.6435 22.7954 64.0898 13.6595 74.5156 13.4877C74.6814 13.4877 74.8164 13.6197 74.8164 13.7853C74.8164 13.9448 74.6875 14.0768 74.5248 14.0768H74.5218ZM74.5218 12.5643C63.5833 12.73 54.7166 22.2862 54.5816 34.0634C54.5816 34.2138 54.4588 34.3334 54.3115 34.3334C54.158 34.3334 54.0353 34.2076 54.0353 34.0573C54.1734 21.961 63.2795 12.1471 74.5126 11.9753C74.6783 11.9753 74.8133 12.1072 74.8133 12.2729C74.8133 12.4324 74.6844 12.5643 74.5218 12.5643ZM74.5218 11.055C62.7731 11.2206 53.2496 21.4548 53.1145 34.0634C53.1145 34.2138 52.9917 34.3334 52.8444 34.3334C52.691 34.3334 52.5682 34.2076 52.5682 34.0573C52.7063 21.1296 62.4692 10.6378 74.5126 10.466C74.6783 10.466 74.8133 10.5979 74.8133 10.7635C74.8133 10.9231 74.6844 11.055 74.5218 11.055ZM74.8102 9.25418C74.8102 9.41371 74.6814 9.54563 74.5187 9.54563C61.9628 9.71129 51.7794 20.6234 51.6444 34.0665C51.6444 34.2168 51.5216 34.3365 51.3743 34.3365C51.2209 34.3365 51.0981 34.2107 51.0981 34.0604C51.2362 20.2982 61.659 9.13147 74.5095 8.95968C74.6752 8.95968 74.8102 9.09159 74.8102 9.25725V9.25418Z" fill="#103972"/>
<path d="M26.7475 35.1862V38.7633C26.7475 40.9598 28.5307 42.7422 30.7282 42.7422H34.8317C35.203 42.7422 35.424 43.1656 35.2061 43.4693C32.7446 46.9236 28.9205 49.1478 24.636 49.1478C17.224 49.1478 11.1962 42.5029 11.1962 34.3365C11.1962 26.17 17.2271 19.5252 24.636 19.5252C29.1323 19.5252 33.1191 21.9733 35.559 25.719C35.6419 25.8479 35.7862 25.9276 35.9396 25.9276C36.3048 25.9276 36.5258 25.5227 36.3263 25.219C33.7206 21.2186 29.4515 18.6048 24.6329 18.6048C16.7145 18.6048 10.2724 25.6607 10.2724 34.3365C10.2724 43.0122 16.7145 50.0681 24.6329 50.0681C29.6786 50.0681 34.1227 47.1997 36.6854 42.8772C36.7345 42.7944 36.8235 42.7422 36.9187 42.7422H36.934C37.1458 42.7422 37.2808 42.9723 37.1734 43.1533C34.5186 47.663 29.8903 50.6571 24.6329 50.6571C16.4138 50.6571 9.7261 43.3343 9.7261 34.3365C9.7261 25.3386 16.4138 18.0158 24.6329 18.0158C29.9579 18.0158 34.6383 21.0897 37.2747 25.6976C37.3576 25.8387 37.5049 25.9307 37.6706 25.9307C38.0236 25.9307 38.2445 25.5472 38.0696 25.2435C35.2736 20.3565 30.2955 17.0985 24.6298 17.0985C15.9012 17.0985 8.80229 24.8324 8.80229 34.3395C8.80229 43.8466 15.9043 51.5805 24.6298 51.5805C30.5011 51.5805 35.6358 48.0771 38.3673 42.8925C38.4133 42.8036 38.5054 42.7484 38.6067 42.7484H38.619C38.8246 42.7484 38.9596 42.9662 38.8645 43.1472C36.044 48.5311 30.7221 52.1726 24.6298 52.1726C15.6004 52.1726 8.25291 44.1749 8.25291 34.3426C8.25291 24.5103 15.6004 16.5126 24.6298 16.5126C30.7743 16.5126 36.1391 20.2185 38.9412 25.6853C39.021 25.8387 39.1745 25.9368 39.3464 25.9368C39.6901 25.9368 39.9111 25.5718 39.7546 25.265C36.799 19.5037 31.1303 15.5922 24.6298 15.5922C15.094 15.5922 7.33217 24.0041 7.33217 34.3426C7.33217 44.6811 15.091 53.093 24.6298 53.093C31.3236 53.093 37.1366 48.9484 40.0093 42.9048C40.0553 42.8097 40.1505 42.7484 40.2548 42.7484H40.2671C40.4666 42.7484 40.6016 42.957 40.5188 43.138C37.5601 49.3932 31.5477 53.682 24.6329 53.682C14.7932 53.682 6.78894 45.0063 6.78894 34.3395C6.78894 23.6728 14.7932 14.9971 24.6329 14.9971C31.5968 14.9971 37.6399 19.3442 40.5802 25.6638C40.6538 25.8264 40.8165 25.9307 40.9945 25.9307C41.3321 25.9307 41.55 25.581 41.4088 25.2742C38.3213 18.6416 31.9651 14.0768 24.636 14.0768C14.2899 14.0768 5.87126 23.1666 5.87126 34.3395C5.87126 45.5124 14.2899 54.6023 24.636 54.6023C32.1462 54.6023 38.6343 49.8104 41.6298 42.9109C41.6728 42.8128 41.771 42.7484 41.8784 42.7484H41.8845C42.081 42.7484 42.216 42.9508 42.1393 43.1318C39.0609 50.2491 32.3763 55.1944 24.636 55.1944C13.9891 55.1944 5.32496 45.8407 5.32496 34.3426C5.32496 22.8445 13.9861 13.4847 24.6329 13.4847C32.4101 13.4847 39.1254 18.479 42.1822 25.6485C42.2528 25.8172 42.4186 25.9276 42.6027 25.9276H42.6119C42.9372 25.9276 43.1644 25.5963 43.0355 25.2957C39.8405 17.7888 32.7937 12.5643 24.6329 12.5643C13.4766 12.5643 4.40114 22.3291 4.40114 34.3334C4.40114 46.3377 13.4766 56.1055 24.6329 56.1055C32.9595 56.1055 40.1259 50.6633 43.2257 42.9109C43.2656 42.8066 43.3669 42.7392 43.4774 42.7392C43.6708 42.7392 43.8058 42.9355 43.7352 43.1134C40.5587 51.0897 33.1927 56.6915 24.6329 56.6915C13.1758 56.6915 3.85484 46.6598 3.85484 34.3303C3.85484 22.0009 13.1758 11.9723 24.6329 11.9723C33.2234 11.9723 40.6078 17.6139 43.769 25.6362C43.8365 25.8111 44.0053 25.9276 44.1925 25.9276H44.1956C44.5179 25.9276 44.7419 25.6055 44.6253 25.3079C41.3321 16.9421 33.6132 11.055 24.6298 11.055C12.6694 11.0519 2.9341 21.4977 2.9341 34.3334C2.9341 47.169 12.6694 57.6149 24.6329 57.6149C33.7728 57.6149 41.6052 51.5192 44.7972 42.9171C44.8371 42.8097 44.9383 42.7392 45.0519 42.7392H45.058C45.2483 42.7392 45.3834 42.9294 45.3158 43.1073C42.0503 51.9395 34.0122 58.2008 24.6329 58.2008C12.3656 58.2008 2.38779 47.4912 2.38779 34.3303C2.38779 21.1695 12.3686 10.4629 24.6329 10.4629C34.0367 10.4629 42.0932 16.758 45.3404 25.627C45.4079 25.808 45.5767 25.9276 45.767 25.9276H45.7731C46.0893 25.9276 46.3164 25.6117 46.2059 25.3172C42.8329 16.0923 34.4357 9.54256 24.6329 9.54256C11.8592 9.54256 1.46705 20.6633 1.46705 34.3334C1.46705 48.0035 11.8592 59.1242 24.6329 59.1242C34.5861 59.1242 43.0907 52.372 46.3624 42.9232C46.3992 42.8128 46.5036 42.7392 46.6171 42.7392C46.8044 42.7392 46.9394 42.9263 46.878 43.1042C43.5357 52.7892 34.8255 59.7133 24.6298 59.7133C11.5553 59.7133 0.917672 48.3287 0.917672 34.3334C0.917672 20.3381 11.5584 8.95354 24.6329 8.95354C34.847 8.95354 43.5695 15.9052 46.8995 25.6178C46.964 25.8019 47.1358 25.9276 47.3292 25.9276H47.3323C47.6453 25.9276 47.8694 25.6209 47.7681 25.3264C44.3184 15.2487 35.2521 8.0332 24.6329 8.0332C11.0489 8.0332 0 19.8319 0 34.3334C0 48.8349 11.0489 60.6336 24.6329 60.6336C35.3749 60.6336 44.5301 53.2494 47.8878 42.9876C47.9399 42.8251 47.9676 42.6533 47.9676 42.4815V35.1862C47.9676 32.9958 46.1905 31.2196 43.9992 31.2196H30.7159C28.5246 31.2196 26.7475 32.9958 26.7475 35.1862Z" fill="#103972"/>
<path d="M3.23487 76.7211C2.45838 75.9603 2.07167 74.9387 2.07167 73.6564V66.7385C2.07167 65.4715 2.45838 64.4622 3.23487 63.7075C4.01136 62.9528 5.03953 62.5755 6.32243 62.5755C7.60533 62.5755 8.65497 62.9528 9.43146 63.7075C10.208 64.4622 10.5947 65.4715 10.5947 66.7385V66.9747C10.5947 67.0453 10.5701 67.1066 10.521 67.1557C10.4719 67.2048 10.4105 67.2293 10.3399 67.2293L7.84165 67.3367C7.66978 67.3367 7.58691 67.26 7.58691 67.1005V66.5452C7.58691 66.1311 7.47335 65.7967 7.24624 65.5421C7.01912 65.2844 6.71221 65.1586 6.32856 65.1586C5.94492 65.1586 5.65949 65.2874 5.43238 65.5421C5.20526 65.7967 5.0917 66.1341 5.0917 66.5452V73.911C5.0917 74.3251 5.20526 74.6565 5.43238 74.905C5.65949 75.1535 5.96027 75.2792 6.32856 75.2792C6.69686 75.2792 7.01912 75.1535 7.24624 74.905C7.47335 74.6565 7.58691 74.3251 7.58691 73.911V73.3343C7.58691 73.2637 7.61146 73.2023 7.66057 73.1533C7.70968 73.1042 7.77106 73.0796 7.84165 73.0796L10.3399 73.187C10.4105 73.187 10.4719 73.2115 10.521 73.2606C10.5701 73.3097 10.5947 73.3711 10.5947 73.4416V73.6564C10.5947 74.9387 10.2018 75.9603 9.41919 76.7211C8.63656 77.4819 7.60226 77.8623 6.32243 77.8623C5.0426 77.8623 4.01136 77.4819 3.23487 76.7211Z" fill="#103972"/>
<path d="M12.8658 76.7088C12.0832 75.9388 11.6903 74.9142 11.6903 73.6349V66.8029C11.6903 65.5206 12.0832 64.4959 12.8658 63.729C13.6485 62.959 14.695 62.5755 16.0056 62.5755C17.3161 62.5755 18.3657 62.959 19.1576 63.729C19.9494 64.499 20.3423 65.5237 20.3423 66.8029V73.6349C20.3423 74.9172 19.9463 75.9419 19.1576 76.7088C18.3688 77.4788 17.3161 77.8623 16.0056 77.8623C14.695 77.8623 13.6485 77.4788 12.8658 76.7088ZM16.9693 74.862C17.2117 74.5859 17.3314 74.2178 17.3314 73.7637V66.6741C17.3314 66.22 17.2117 65.8519 16.9693 65.5758C16.7268 65.2997 16.4076 65.1586 16.0086 65.1586C15.6096 65.1586 15.2935 65.2966 15.0572 65.5758C14.8209 65.8519 14.7042 66.22 14.7042 66.6741V73.7637C14.7042 74.2208 14.8209 74.5859 15.0572 74.862C15.2935 75.1381 15.6096 75.2792 16.0086 75.2792C16.4076 75.2792 16.7268 75.1412 16.9693 74.862Z" fill="#103972"/>
<path d="M27.8003 62.8179C27.8494 62.7688 27.9107 62.7442 27.9813 62.7442H30.4581C30.5287 62.7442 30.5901 62.7688 30.6392 62.8179C30.6883 62.8669 30.7129 62.9283 30.7129 62.9989V77.4328C30.7129 77.5034 30.6883 77.5647 30.6392 77.6138C30.5901 77.6629 30.5287 77.6875 30.4581 77.6875H27.6376C27.4964 77.6875 27.4013 77.6169 27.3614 77.4727L24.7127 69.2081C24.6974 69.1651 24.6728 69.1467 24.639 69.1559C24.6022 69.1621 24.5869 69.1866 24.5869 69.2295L24.6084 77.4298C24.6084 77.5003 24.5838 77.5617 24.5347 77.6108C24.4856 77.6598 24.4242 77.6844 24.3536 77.6844H21.8768C21.8062 77.6844 21.7448 77.6598 21.6957 77.6108C21.6466 77.5617 21.6221 77.5003 21.6221 77.4298V62.9958C21.6221 62.9252 21.6466 62.8639 21.6957 62.8148C21.7448 62.7657 21.8062 62.7412 21.8768 62.7412H24.6759C24.8171 62.7412 24.9091 62.8117 24.9521 62.9559L27.6222 71.2205C27.6376 71.2635 27.6621 71.2819 27.6959 71.2727C27.7297 71.2666 27.7481 71.242 27.7481 71.1991L27.7266 62.9989C27.7266 62.9283 27.7512 62.8669 27.8003 62.8179Z" fill="#103972"/>
<path d="M39.8988 65.2537C39.8497 65.3028 39.7883 65.3273 39.7177 65.3273H35.2736C35.203 65.3273 35.1662 65.3641 35.1662 65.4347V68.8093C35.1662 68.8798 35.203 68.9166 35.2736 68.9166H37.8149C37.8854 68.9166 37.9468 68.9412 37.9959 68.9903C38.045 69.0393 38.0696 69.1007 38.0696 69.1713V71.242C38.0696 71.3126 38.045 71.3739 37.9959 71.423C37.9468 71.4721 37.8854 71.4966 37.8149 71.4966H35.2736C35.203 71.4966 35.1662 71.5335 35.1662 71.604V77.4328C35.1662 77.5034 35.1416 77.5647 35.0925 77.6138C35.0434 77.6629 34.982 77.6874 34.9115 77.6874H32.4132C32.3426 77.6874 32.2812 77.6629 32.2321 77.6138C32.183 77.5647 32.1584 77.5034 32.1584 77.4328V62.9989C32.1584 62.9283 32.183 62.8669 32.2321 62.8179C32.2812 62.7688 32.3426 62.7442 32.4132 62.7442H39.7177C39.7883 62.7442 39.8497 62.7688 39.8988 62.8179C39.9479 62.8669 39.9725 62.9283 39.9725 62.9989V65.0696C39.9725 65.1402 39.9479 65.2015 39.8988 65.2506V65.2537Z" fill="#103972"/>
<path d="M48.7379 65.2537C48.6888 65.3028 48.6274 65.3273 48.5568 65.3273H44.0912C44.0207 65.3273 43.9838 65.3641 43.9838 65.4347V68.8093C43.9838 68.8798 44.0207 68.9166 44.0912 68.9166H46.654C46.7246 68.9166 46.786 68.9412 46.8351 68.9903C46.8842 69.0393 46.9087 69.1007 46.9087 69.1713V71.242C46.9087 71.3126 46.8842 71.3739 46.8351 71.423C46.786 71.4721 46.7246 71.4966 46.654 71.4966H44.0912C44.0207 71.4966 43.9838 71.5335 43.9838 71.604V75.0001C43.9838 75.0706 44.0207 75.1074 44.0912 75.1074H48.5568C48.6274 75.1074 48.6888 75.132 48.7379 75.1811C48.787 75.2302 48.8116 75.2915 48.8116 75.3621V77.4328C48.8116 77.5034 48.787 77.5647 48.7379 77.6138C48.6888 77.6629 48.6274 77.6874 48.5568 77.6874H41.2308C41.1602 77.6874 41.0988 77.6629 41.0497 77.6138C41.0006 77.5647 40.9761 77.5034 40.9761 77.4328V62.9989C40.9761 62.9283 41.0006 62.8669 41.0497 62.8179C41.0988 62.7688 41.1602 62.7442 41.2308 62.7442H48.5568C48.6274 62.7442 48.6888 62.7688 48.7379 62.8179C48.787 62.8669 48.8116 62.9283 48.8116 62.9989V65.0696C48.8116 65.1402 48.787 65.2015 48.7379 65.2506V65.2537Z" fill="#103972"/>
<path d="M55.5545 77.4788L53.9094 71.5856C53.8818 71.5304 53.845 71.4997 53.802 71.4997H53.0746C53.004 71.4997 52.9672 71.5365 52.9672 71.6071V77.4359C52.9672 77.5064 52.9426 77.5678 52.8935 77.6169C52.8444 77.666 52.783 77.6905 52.7125 77.6905H50.2142C50.1436 77.6905 50.0822 77.666 50.0331 77.6169C49.984 77.5678 49.9594 77.5064 49.9594 77.4359V63.0019C49.9594 62.9314 49.984 62.87 50.0331 62.8209C50.0822 62.7718 50.1436 62.7473 50.2142 62.7473H54.5294C55.312 62.7473 56.0118 62.9375 56.6225 63.3118C57.2333 63.6891 57.709 64.2198 58.0435 64.904C58.3781 65.5881 58.5469 66.3704 58.5469 67.2539C58.5469 68.1374 58.3873 68.8338 58.065 69.475C57.7458 70.1161 57.3008 70.6131 56.73 70.969C56.7023 70.9843 56.6809 70.9997 56.6655 71.0211C56.6502 71.0426 56.6502 71.0672 56.6655 71.0948L58.6298 77.3929L58.6512 77.4788C58.6512 77.62 58.5745 77.6936 58.418 77.6936H55.8553C55.6987 77.6936 55.6005 77.623 55.5575 77.4788H55.5545ZM52.9703 69.0854C52.9703 69.1559 53.0071 69.1927 53.0777 69.1927H54.0383C54.4803 69.1927 54.8394 69.0179 55.1156 68.6681C55.3918 68.3184 55.533 67.8521 55.533 67.2692C55.533 66.6863 55.3949 66.1986 55.1156 65.8488C54.8394 65.4991 54.4772 65.3242 54.0383 65.3242H53.0777C53.0071 65.3242 52.9703 65.3611 52.9703 65.4316V69.0854Z" fill="#103972"/>
<path d="M67.5057 65.2537C67.4566 65.3028 67.3952 65.3273 67.3246 65.3273H62.859C62.7884 65.3273 62.7516 65.3641 62.7516 65.4347V68.8093C62.7516 68.8798 62.7884 68.9166 62.859 68.9166H65.4218C65.4923 68.9166 65.5537 68.9412 65.6028 68.9903C65.6519 69.0393 65.6765 69.1007 65.6765 69.1713V71.242C65.6765 71.3126 65.6519 71.3739 65.6028 71.423C65.5537 71.4721 65.4923 71.4966 65.4218 71.4966H62.859C62.7884 71.4966 62.7516 71.5335 62.7516 71.604V75.0001C62.7516 75.0706 62.7884 75.1074 62.859 75.1074H67.3246C67.3952 75.1074 67.4566 75.132 67.5057 75.1811C67.5548 75.2302 67.5794 75.2915 67.5794 75.3621V77.4328C67.5794 77.5034 67.5548 77.5647 67.5057 77.6138C67.4566 77.6629 67.3952 77.6874 67.3246 77.6874H59.9986C59.928 77.6874 59.8666 77.6629 59.8175 77.6138C59.7684 77.5647 59.7439 77.5034 59.7439 77.4328V62.9989C59.7439 62.9283 59.7684 62.8669 59.8175 62.8179C59.8666 62.7688 59.928 62.7442 59.9986 62.7442H67.3246C67.3952 62.7442 67.4566 62.7688 67.5057 62.8179C67.5548 62.8669 67.5794 62.9283 67.5794 62.9989V65.0696C67.5794 65.1402 67.5548 65.2015 67.5057 65.2506V65.2537Z" fill="#103972"/>
<path d="M74.9115 62.8179C74.9606 62.7688 75.022 62.7442 75.0926 62.7442H77.5694C77.64 62.7442 77.7014 62.7688 77.7505 62.8179C77.7996 62.8669 77.8242 62.9283 77.8242 62.9989V77.4328C77.8242 77.5034 77.7996 77.5647 77.7505 77.6138C77.7014 77.6629 77.64 77.6875 77.5694 77.6875H74.7489C74.6077 77.6875 74.5125 77.6169 74.4726 77.4727L71.824 69.2081C71.8086 69.1651 71.7841 69.1467 71.7503 69.1559C71.7135 69.1621 71.6981 69.1866 71.6981 69.2295L71.7196 77.4298C71.7196 77.5003 71.6951 77.5617 71.646 77.6108C71.5969 77.6598 71.5355 77.6844 71.4649 77.6844H68.9881C68.9175 77.6844 68.8561 77.6598 68.807 77.6108C68.7579 77.5617 68.7334 77.5003 68.7334 77.4298V62.9958C68.7334 62.9252 68.7579 62.8639 68.807 62.8148C68.8561 62.7657 68.9175 62.7412 68.9881 62.7412H71.7871C71.9283 62.7412 72.0204 62.8117 72.0634 62.9559L74.7335 71.2205C74.7489 71.2635 74.7734 71.2819 74.8072 71.2727C74.8409 71.2666 74.8594 71.242 74.8594 71.1991L74.8379 62.9989C74.8379 62.9283 74.8624 62.8669 74.9115 62.8179Z" fill="#103972"/>
<path d="M80.2764 76.7211C79.4999 75.9603 79.1132 74.9387 79.1132 73.6564V66.7385C79.1132 65.4715 79.4999 64.4622 80.2764 63.7075C81.0529 62.9528 82.081 62.5755 83.3639 62.5755C84.6468 62.5755 85.6965 62.9528 86.473 63.7075C87.2495 64.4622 87.6362 65.4715 87.6362 66.7385V66.9747C87.6362 67.0453 87.6116 67.1066 87.5625 67.1557C87.5134 67.2048 87.452 67.2293 87.3814 67.2293L84.8832 67.3367C84.7113 67.3367 84.6284 67.26 84.6284 67.1005V66.5452C84.6284 66.1311 84.5149 65.7967 84.2878 65.5421C84.0606 65.2844 83.7537 65.1586 83.3701 65.1586C82.9864 65.1586 82.701 65.2874 82.4739 65.5421C82.2468 65.7967 82.1332 66.1341 82.1332 66.5452V73.911C82.1332 74.3251 82.2468 74.6565 82.4739 74.905C82.701 75.1535 83.0018 75.2792 83.3701 75.2792C83.7384 75.2792 84.0606 75.1535 84.2878 74.905C84.5149 74.6565 84.6284 74.3251 84.6284 73.911V73.3343C84.6284 73.2637 84.653 73.2023 84.7021 73.1533C84.7512 73.1042 84.8126 73.0796 84.8832 73.0796L87.3814 73.187C87.452 73.187 87.5134 73.2115 87.5625 73.2606C87.6116 73.3097 87.6362 73.3711 87.6362 73.4416V73.6564C87.6362 74.9387 87.2433 75.9603 86.4607 76.7211C85.6781 77.4819 84.6438 77.8623 83.3639 77.8623C82.0841 77.8623 81.0529 77.4819 80.2764 76.7211Z" fill="#103972"/>
<path d="M96.5919 65.2537C96.5428 65.3028 96.4814 65.3273 96.4108 65.3273H91.9452C91.8747 65.3273 91.8378 65.3641 91.8378 65.4347V68.8093C91.8378 68.8798 91.8747 68.9166 91.9452 68.9166H94.508C94.5786 68.9166 94.64 68.9412 94.6891 68.9903C94.7382 69.0393 94.7627 69.1007 94.7627 69.1713V71.242C94.7627 71.3126 94.7382 71.3739 94.6891 71.423C94.64 71.4721 94.5786 71.4966 94.508 71.4966H91.9452C91.8747 71.4966 91.8378 71.5335 91.8378 71.604V75.0001C91.8378 75.0706 91.8747 75.1074 91.9452 75.1074H96.4108C96.4814 75.1074 96.5428 75.132 96.5919 75.1811C96.641 75.2302 96.6656 75.2915 96.6656 75.3621V77.4328C96.6656 77.5034 96.641 77.5647 96.5919 77.6138C96.5428 77.6629 96.4814 77.6874 96.4108 77.6874H89.0848C89.0142 77.6874 88.9528 77.6629 88.9037 77.6138C88.8546 77.5647 88.8301 77.5034 88.8301 77.4328V62.9989C88.8301 62.9283 88.8546 62.8669 88.9037 62.8179C88.9528 62.7688 89.0142 62.7442 89.0848 62.7442H96.4108C96.4814 62.7442 96.5428 62.7688 96.5919 62.8179C96.641 62.8669 96.6656 62.9283 96.6656 62.9989V65.0696C96.6656 65.1402 96.641 65.2015 96.5919 65.2506V65.2537Z" fill="#103972"/>
<path d="M135.11 78.9667C132.338 78.9667 129.868 78.2887 127.759 76.9512C127.357 76.6966 126.976 76.4205 126.611 76.1229C126.599 76.1137 126.584 76.1229 126.584 76.1352V76.853C126.584 77.1997 126.479 77.5494 126.255 77.8132C125.982 78.1323 125.611 78.3041 125.193 78.3041H101.803C101.423 78.3041 101.082 78.163 100.818 77.8961C100.554 77.6353 100.413 77.2948 100.413 76.9144V72.1347C100.413 71.6224 100.597 71.1653 100.95 70.8125C102.641 69.1559 104.378 67.3398 106.122 65.4132C107.939 63.4007 108.997 62.238 109.445 61.7564C110.415 60.6152 111.419 59.5046 112.432 58.4585C116.161 54.3231 116.946 52.2248 116.946 51.1971C116.946 50.1693 116.606 49.4116 115.9 48.7796C115.172 48.1262 114.236 47.8071 113.033 47.8071C111.83 47.8071 110.894 48.1262 110.17 48.7796C109.467 49.4116 109.123 50.2368 109.123 51.3014V52.5469C109.123 52.8966 109.016 53.2463 108.786 53.5102C108.509 53.8231 108.144 53.9918 107.733 53.9918H101.908C101.527 53.9918 101.186 53.8507 100.922 53.5838C100.659 53.323 100.517 52.9825 100.517 52.6021V40.9936C100.517 40.3954 100.938 39.9873 101.189 39.7419L101.26 39.6714C102.35 38.6038 103.326 37.4748 104.363 36.2753C104.925 35.628 105.502 34.9592 106.125 34.269C107.942 32.2565 109 31.0938 109.449 30.6122C110.418 29.4709 111.422 28.3604 112.435 27.3143C116.164 23.1789 116.95 21.0805 116.95 20.0528C116.95 19.0251 116.609 18.2674 115.903 17.6354C115.176 16.982 114.239 16.6629 113.036 16.6629C111.833 16.6629 110.897 16.982 110.173 17.6354C109.47 18.2674 109.126 19.0926 109.126 20.1571V21.4026C109.126 21.7524 109.019 22.1021 108.789 22.3659C108.512 22.6788 108.147 22.8476 107.736 22.8476H101.604C101.223 22.8476 100.883 22.7065 100.619 22.4396C100.355 22.1788 100.214 21.8383 100.214 21.4579V19.0159C100.214 19.0159 100.214 18.9883 100.214 18.973C100.324 16.9574 100.972 15.1474 102.132 13.5951C103.283 12.0551 104.833 10.8617 106.732 10.0487C108.605 9.24805 110.725 8.8431 113.036 8.8431C115.605 8.8431 117.883 9.33395 119.801 10.3034C121.415 11.1194 122.741 12.187 123.751 13.4877C123.757 13.4969 123.769 13.4969 123.778 13.4877C124.122 13.0398 124.503 12.6165 124.917 12.2238C127.271 9.98125 130.494 8.8431 134.49 8.8431C138.486 8.8431 141.714 9.98125 144.087 12.2207C146.472 14.4756 147.681 17.5464 147.681 21.3505V35.2415C147.681 37.8245 147.69 43.1993 142.669 46.6782C138.286 49.7153 133.207 49.0588 131.325 48.6692C131.316 48.6692 131.307 48.6753 131.307 48.6876L131.267 54.6851C131.267 54.6851 131.279 54.7066 131.292 54.7005C132.762 53.9581 134.41 53.5869 136.211 53.5869C138.78 53.5869 141.067 54.2526 143.01 55.5625C144.958 56.8817 146.361 58.7131 147.174 61.0079C147.177 61.0171 147.181 61.0293 147.187 61.0385C147.727 62.7994 148 64.5358 148 66.1986C148 68.0515 147.702 69.7541 147.116 71.2574C146.272 73.6073 144.753 75.5093 142.608 76.896C140.481 78.2703 137.964 78.9667 135.122 78.9667H135.11ZM125.816 73.5214C126.034 73.5214 126.246 73.6134 126.396 73.7852C127.022 74.5062 127.759 75.135 128.582 75.6566C130.438 76.8346 132.636 77.4328 135.11 77.4328C137.583 77.4328 139.888 76.8193 141.76 75.6075C143.617 74.408 144.931 72.7636 145.664 70.7174C146.189 69.3737 146.45 67.8582 146.45 66.1986C146.45 64.6953 146.201 63.1154 145.71 61.5048C145.008 59.5322 143.804 57.9615 142.138 56.8326C140.456 55.6975 138.458 55.1208 136.199 55.1208C134.315 55.1208 132.636 55.5871 131.209 56.5043C130.748 56.8111 130.374 56.6945 130.196 56.5994C130.018 56.5043 129.714 56.2589 129.714 55.7036L129.766 48.0096C129.766 47.4206 130.199 46.988 130.794 46.988C130.868 46.988 130.942 46.9972 131.012 47.0187C131.071 47.0371 137.022 48.7183 141.785 45.4173C146.143 42.3986 146.137 37.7448 146.134 35.2445V21.3505C146.134 17.936 145.115 15.3161 143.022 13.3344C140.944 11.371 138.071 10.3739 134.48 10.3739C130.89 10.3739 128.026 11.3679 125.967 13.3313C125.365 13.905 124.84 14.5553 124.411 15.2609C124.272 15.4879 124.024 15.6291 123.757 15.6291C123.475 15.626 123.241 15.4879 123.1 15.2609C123.082 15.2302 123.063 15.1996 123.048 15.1689C123.036 15.1474 123.026 15.129 123.014 15.1075C122.109 13.6779 120.792 12.5183 119.107 11.6685C117.404 10.8096 115.36 10.3739 113.033 10.3739C110.931 10.3739 109.013 10.739 107.331 11.4538C105.68 12.1594 104.345 13.184 103.356 14.5062C102.383 15.8101 101.84 17.3317 101.742 19.0282V21.2861C101.742 21.2861 101.751 21.3045 101.76 21.3045H107.57C107.57 21.3045 107.589 21.2953 107.589 21.2861V20.1479C107.589 18.6447 108.11 17.4145 109.142 16.485C110.148 15.58 111.459 15.1198 113.033 15.1198C114.608 15.1198 115.918 15.58 116.925 16.485C117.956 17.4114 118.478 18.611 118.478 20.0436C118.478 21.9549 116.867 24.6729 113.552 28.3512C112.542 29.3973 111.554 30.4864 110.606 31.6061C110.599 31.6153 110.59 31.6245 110.581 31.6337C110.145 32.1031 109.089 33.2627 107.26 35.2875C106.649 35.9624 106.076 36.6281 105.52 37.2693C104.464 38.4903 103.464 39.6468 102.337 40.7512L102.254 40.831C102.19 40.8923 102.092 40.9905 102.046 41.0488V52.4303C102.046 52.4303 102.055 52.4487 102.064 52.4487H107.567C107.567 52.4487 107.586 52.4395 107.586 52.4303V51.2922C107.586 49.7889 108.107 48.5588 109.139 47.6292C110.145 46.7242 111.456 46.264 113.03 46.264C114.605 46.264 115.915 46.7242 116.922 47.6292C117.953 48.5557 118.475 49.7552 118.475 51.1879C118.475 53.0991 116.864 55.8171 113.549 59.4954C112.539 60.5416 111.551 61.6306 110.603 62.7504C110.596 62.7596 110.587 62.7688 110.578 62.778C110.142 63.2473 109.086 64.407 107.257 66.4317C105.495 68.3828 103.734 70.2235 102.027 71.8955C101.981 71.9415 101.945 72.0028 101.945 72.1255V76.7456C101.945 76.7456 101.954 76.7641 101.963 76.7641H125.031C125.031 76.7641 125.049 76.7548 125.049 76.7456V74.2822C125.049 73.9632 125.248 73.6748 125.546 73.5643C125.635 73.5306 125.724 73.5153 125.816 73.5153V73.5214ZM135.057 72.6287C133.965 72.6287 132.995 72.3372 132.172 71.7635C131.353 71.1929 130.736 70.3738 130.337 69.3308C130.334 69.3216 130.331 69.3124 130.325 69.3001C130.309 69.251 130.276 69.1651 130.208 69.0332V69.0271C130.003 68.6221 129.588 68.3675 129.134 68.3675H125.454C124.668 68.3675 124.085 69.1222 124.312 69.8738C124.414 70.2082 124.524 70.5364 124.647 70.8555C124.671 70.9076 124.684 70.9383 124.696 70.969C124.788 71.2052 124.757 71.4721 124.613 71.6807C124.469 71.8893 124.233 72.0151 123.981 72.0151H111.106C110.707 72.0151 110.372 71.8157 110.21 71.4813C110.029 71.1285 110.105 70.696 110.409 70.3922L111.186 69.6161C113.638 67.1312 115.504 65.2107 116.732 63.9161C117.956 62.6246 119.113 61.2962 120.172 59.9648C121.108 58.8297 121.894 57.7376 122.52 56.7037C122.68 56.4399 122.968 56.262 123.275 56.2927C123.677 56.3325 123.972 56.6669 123.972 57.0565V62.0908C123.972 62.5295 124.328 62.8853 124.767 62.8853L129.3 62.9038C129.828 62.9038 130.328 62.6583 130.641 62.2319C131.031 61.7012 131.617 61.0048 132.197 60.6919C133.139 60.1826 134.174 59.9249 135.266 59.9249C136.359 59.9249 137.387 60.2133 138.237 60.7808C139.109 61.3637 139.701 62.1951 139.996 63.2565C140.33 64.1309 140.502 65.1187 140.502 66.1986C140.502 67.4011 140.306 68.4135 139.919 69.205C139.52 70.2634 138.888 71.107 138.05 71.7053C137.194 72.3157 136.187 72.6287 135.057 72.6287ZM134.484 41.4445C132.749 41.4445 131.328 40.8862 130.267 39.7818C129.211 38.6866 128.674 37.2233 128.674 35.4317V21.145C128.674 19.3534 129.211 17.89 130.267 16.7948C131.332 15.6904 132.749 15.1321 134.484 15.1321C136.218 15.1321 137.688 15.6904 138.753 16.7948C139.808 17.8931 140.346 19.3564 140.346 21.145V35.4317C140.346 37.2233 139.808 38.6866 138.753 39.7818C137.688 40.8862 136.251 41.4445 134.484 41.4445ZM122.99 40.8739H111.109C110.71 40.8739 110.375 40.6745 110.213 40.3401C110.032 39.9873 110.108 39.5548 110.412 39.2511L111.189 38.4749C113.641 35.99 115.507 34.0696 116.735 32.775C117.959 31.4834 119.116 30.1551 120.175 28.8236C120.632 28.2684 121.062 27.7131 121.458 27.164C121.63 26.9247 121.915 26.7713 122.21 26.8081C122.6 26.8603 122.879 27.1916 122.879 27.5689V35.0666C122.879 36.8398 123.155 38.4412 123.702 39.8247C123.794 40.061 123.766 40.3279 123.622 40.5365C123.481 40.7451 123.241 40.8709 122.987 40.8709L122.99 40.8739Z" fill="#103972"/>
</svg>
