<svg width="148" height="87" viewBox="0 0 148 87" fill="none" xmlns="http://www.w3.org/2000/svg">
<path d="M4.31174 62.4529C3.01043 62.4529 1.96752 62.8338 1.17989 63.5955C0.392259 64.3572 0 65.3759 0 66.6547V73.6371C0 74.9314 0.392259 75.9624 1.17989 76.7303C1.96752 77.4983 3.01043 77.8822 4.31174 77.8822C5.61304 77.8822 6.65907 77.4983 7.45292 76.7303C8.24678 75.9624 8.64527 74.9314 8.64527 73.6371V73.4203C8.64527 73.3491 8.62036 73.2872 8.57055 73.2376C8.52074 73.1881 8.45848 73.1633 8.38687 73.1633L5.85275 73.0549C5.78115 73.0549 5.71889 73.0797 5.66908 73.1293C5.61927 73.1788 5.59436 73.2407 5.59436 73.3119V73.8941C5.59436 74.3121 5.47918 74.6465 5.2488 74.8973C5.01843 75.1481 4.70711 75.275 4.31796 75.275C3.92882 75.275 3.63929 75.1481 3.40892 74.8973C3.17854 74.6465 3.06336 74.3121 3.06336 73.8941V66.4597C3.06336 66.0416 3.17854 65.7041 3.40892 65.4471C3.63929 65.187 3.94438 65.0601 4.31796 65.0601C4.69154 65.0601 5.01843 65.1901 5.2488 65.4471C5.47918 65.7041 5.59436 66.0447 5.59436 66.4597V67.0201C5.59436 67.178 5.68153 67.2585 5.85275 67.2585L8.38687 67.1501C8.45848 67.1501 8.52074 67.1254 8.57055 67.0758C8.62036 67.0263 8.64527 66.9644 8.64527 66.8931V66.6547C8.64527 65.3759 8.25301 64.3572 7.46538 63.5955C6.67774 62.8338 5.62861 62.4529 4.31174 62.4529Z" fill="#103972"/>
<path d="M14.1369 62.4529C12.8076 62.4529 11.746 62.84 10.9521 63.6172C10.1583 64.3944 9.75978 65.4286 9.75978 66.7198V73.6154C9.75978 74.9097 10.1583 75.9439 10.9521 76.718C11.746 77.4952 12.8076 77.8822 14.1369 77.8822C15.4662 77.8822 16.5309 77.4952 17.3341 76.718C18.1373 75.9408 18.5358 74.9066 18.5358 73.6154V66.7198C18.5358 65.4255 18.1342 64.3913 17.3341 63.6172C16.534 62.84 15.4662 62.4529 14.1369 62.4529ZM15.4787 73.7485C15.4787 74.2099 15.3541 74.5784 15.1113 74.857C14.8654 75.1357 14.5416 75.2781 14.1369 75.2781C13.7322 75.2781 13.4115 75.1388 13.1718 74.857C12.9321 74.5784 12.8138 74.2068 12.8138 73.7485V66.5928C12.8138 66.1345 12.9321 65.763 13.1718 65.4843C13.4115 65.2056 13.7322 65.0632 14.1369 65.0632C14.5416 65.0632 14.8654 65.2025 15.1113 65.4843C15.3573 65.763 15.4787 66.1345 15.4787 66.5928V73.7485Z" fill="#103972"/>
<path d="M28.7968 62.6263H26.2845C26.2129 62.6263 26.1506 62.6511 26.1008 62.7006C26.051 62.7502 26.0261 62.8121 26.0261 62.8833L26.0479 71.16C26.0479 71.2033 26.0292 71.2281 25.995 71.2343C25.9576 71.2405 25.9327 71.2219 25.9202 71.1816L23.2118 62.84C23.1682 62.6976 23.0748 62.6232 22.9316 62.6232H20.0924C20.0208 62.6232 19.9585 62.648 19.9087 62.6976C19.8589 62.7471 19.834 62.809 19.834 62.8802V77.4487C19.834 77.5199 19.8589 77.5819 19.9087 77.6314C19.9585 77.6809 20.0208 77.7057 20.0924 77.7057H22.6047C22.6763 77.7057 22.7386 77.6809 22.7884 77.6314C22.8382 77.5819 22.8631 77.5199 22.8631 77.4487L22.8413 69.1721C22.8413 69.1287 22.86 69.104 22.8942 69.0978C22.9316 69.0916 22.9565 69.1102 22.969 69.1504L25.6556 77.4921C25.6992 77.6345 25.7926 77.7088 25.9358 77.7088H28.7968C28.8684 77.7088 28.9307 77.684 28.9805 77.6345C29.0303 77.5849 29.0552 77.523 29.0552 77.4518V62.8833C29.0552 62.8121 29.0303 62.7502 28.9805 62.7006C28.9307 62.6511 28.8684 62.6263 28.7968 62.6263Z" fill="#103972"/>
<path d="M38.1861 62.6263H30.7768C30.7052 62.6263 30.6429 62.6511 30.5931 62.7006C30.5433 62.7502 30.5184 62.8121 30.5184 62.8833V77.4518C30.5184 77.523 30.5433 77.5849 30.5931 77.6345C30.6429 77.684 30.7052 77.7088 30.7768 77.7088H33.3109C33.3825 77.7088 33.4448 77.684 33.4946 77.6345C33.5444 77.5849 33.5693 77.523 33.5693 77.4518V71.5687C33.5693 71.4975 33.6066 71.4603 33.6782 71.4603H36.2559C36.3276 71.4603 36.3898 71.4355 36.4396 71.386C36.4894 71.3365 36.5143 71.2745 36.5143 71.2033V69.1133C36.5143 69.042 36.4894 68.9801 36.4396 68.9306C36.3898 68.881 36.3276 68.8563 36.2559 68.8563H33.6782C33.6066 68.8563 33.5693 68.8222 33.5693 68.7479V65.3419C33.5693 65.2706 33.6066 65.2335 33.6782 65.2335H38.1861C38.2577 65.2335 38.32 65.2087 38.3698 65.1592C38.4196 65.1096 38.4445 65.0477 38.4445 64.9765V62.8864C38.4445 62.8152 38.4196 62.7533 38.3698 62.7037C38.32 62.6542 38.2577 62.6294 38.1861 62.6294V62.6263Z" fill="#103972"/>
<path d="M47.152 62.6263H39.7209C39.6493 62.6263 39.587 62.6511 39.5372 62.7006C39.4874 62.7502 39.4625 62.8121 39.4625 62.8833V77.4518C39.4625 77.523 39.4874 77.5849 39.5372 77.6345C39.587 77.684 39.6493 77.7088 39.7209 77.7088H47.152C47.2236 77.7088 47.2859 77.684 47.3357 77.6345C47.3855 77.5849 47.4104 77.523 47.4104 77.4518V75.3617C47.4104 75.2905 47.3855 75.2286 47.3357 75.1791C47.2859 75.1295 47.2236 75.1048 47.152 75.1048H42.6224C42.5508 75.1048 42.5134 75.0676 42.5134 74.9964V71.5687C42.5134 71.4975 42.5508 71.4603 42.6224 71.4603H45.2219C45.2935 71.4603 45.3557 71.4355 45.4056 71.386C45.4554 71.3365 45.4803 71.2745 45.4803 71.2033V69.1133C45.4803 69.042 45.4554 68.9801 45.4056 68.9306C45.3557 68.881 45.2935 68.8563 45.2219 68.8563H42.6224C42.5508 68.8563 42.5134 68.8222 42.5134 68.7479V65.3419C42.5134 65.2706 42.5508 65.2335 42.6224 65.2335H47.152C47.2236 65.2335 47.2859 65.2087 47.3357 65.1592C47.3855 65.1096 47.4104 65.0477 47.4104 64.9765V62.8864C47.4104 62.8152 47.3855 62.7533 47.3357 62.7037C47.2859 62.6542 47.2236 62.6294 47.152 62.6294V62.6263Z" fill="#103972"/>
<path d="M55.377 71.0547C55.3615 71.0268 55.3615 71.002 55.377 70.9804C55.3926 70.9587 55.4144 70.9401 55.4424 70.9277C56.0215 70.5686 56.4729 70.0669 56.7966 69.4198C57.1204 68.7727 57.2854 68.0264 57.2854 67.178C57.2854 66.2863 57.1142 65.4967 56.7748 64.8062C56.4355 64.1157 55.9561 63.58 55.3334 63.1992C54.7108 62.8183 54.0041 62.6294 53.2103 62.6294H48.8331C48.7615 62.6294 48.6993 62.6542 48.6495 62.7037C48.5997 62.7533 48.5748 62.8152 48.5748 62.8864V77.4549C48.5748 77.5261 48.5997 77.588 48.6495 77.6376C48.6993 77.6871 48.7615 77.7119 48.8331 77.7119H51.3673C51.4389 77.7119 51.5011 77.6871 51.5509 77.6376C51.6008 77.588 51.6257 77.5261 51.6257 77.4549V71.5718C51.6257 71.5006 51.663 71.4634 51.7346 71.4634H52.4724C52.516 71.4634 52.5503 71.4913 52.5814 71.5501L54.2501 77.4982C54.2936 77.6407 54.3933 77.715 54.552 77.715H57.1515C57.3103 77.715 57.3913 77.6438 57.3913 77.4982L57.3695 77.4116L55.377 71.0547ZM53.808 68.6085C53.5247 68.9615 53.1605 69.138 52.7153 69.138H51.7408C51.6692 69.138 51.6319 69.104 51.6319 69.0297V65.345C51.6319 65.2737 51.6692 65.2366 51.7408 65.2366H52.7153C53.1636 65.2366 53.5278 65.4131 53.808 65.7661C54.0882 66.1191 54.2314 66.5959 54.2314 67.1997C54.2314 67.8035 54.0913 68.2586 53.808 68.6116V68.6085Z" fill="#103972"/>
<path d="M66.1891 62.6263H58.7579C58.6863 62.6263 58.6241 62.6511 58.5742 62.7006C58.5244 62.7502 58.4995 62.8121 58.4995 62.8833V77.4518C58.4995 77.523 58.5244 77.5849 58.5742 77.6345C58.6241 77.684 58.6863 77.7088 58.7579 77.7088H66.1891C66.2607 77.7088 66.3229 77.684 66.3727 77.6345C66.4225 77.5849 66.4474 77.523 66.4474 77.4518V75.3617C66.4474 75.2905 66.4225 75.2286 66.3727 75.1791C66.3229 75.1295 66.2607 75.1048 66.1891 75.1048H61.6594C61.5878 75.1048 61.5504 75.0676 61.5504 74.9964V71.5687C61.5504 71.4975 61.5878 71.4603 61.6594 71.4603H64.2589C64.3305 71.4603 64.3928 71.4355 64.4426 71.386C64.4924 71.3365 64.5173 71.2745 64.5173 71.2033V69.1133C64.5173 69.042 64.4924 68.9801 64.4426 68.9306C64.3928 68.881 64.3305 68.8563 64.2589 68.8563H61.6594C61.5878 68.8563 61.5504 68.8222 61.5504 68.7479V65.3419C61.5504 65.2706 61.5878 65.2335 61.6594 65.2335H66.1891C66.2607 65.2335 66.3229 65.2087 66.3727 65.1592C66.4225 65.1096 66.4474 65.0477 66.4474 64.9765V62.8864C66.4474 62.8152 66.4225 62.7533 66.3727 62.7037C66.3229 62.6542 66.2607 62.6294 66.1891 62.6294V62.6263Z" fill="#103972"/>
<path d="M76.5839 62.6263H74.0716C74 62.6263 73.9377 62.6511 73.8879 62.7006C73.8381 62.7502 73.8132 62.8121 73.8132 62.8833L73.835 71.16C73.835 71.2033 73.8163 71.2281 73.7821 71.2343C73.7447 71.2405 73.7198 71.2219 73.7074 71.1816L70.9989 62.84C70.9553 62.6976 70.8619 62.6232 70.7187 62.6232H67.8795C67.8079 62.6232 67.7456 62.648 67.6958 62.6976C67.646 62.7471 67.6211 62.809 67.6211 62.8802V77.4487C67.6211 77.5199 67.646 77.5819 67.6958 77.6314C67.7456 77.6809 67.8079 77.7057 67.8795 77.7057H70.3918C70.4634 77.7057 70.5257 77.6809 70.5755 77.6314C70.6253 77.5819 70.6502 77.5199 70.6502 77.4487L70.6284 69.1721C70.6284 69.1287 70.6471 69.104 70.6814 69.0978C70.7156 69.0916 70.7436 69.1102 70.7561 69.1504L73.4427 77.4921C73.4863 77.6345 73.5797 77.7088 73.7229 77.7088H76.5839C76.6555 77.7088 76.7178 77.684 76.7676 77.6345C76.8174 77.5849 76.8423 77.523 76.8423 77.4518V62.8833C76.8423 62.8121 76.8174 62.7502 76.7676 62.7006C76.7178 62.6511 76.6555 62.6263 76.5839 62.6263Z" fill="#103972"/>
<path d="M82.4554 62.4529C81.154 62.4529 80.1111 62.8338 79.3235 63.5955C78.5359 64.3572 78.1436 65.3759 78.1436 66.6547V73.6371C78.1436 74.9314 78.5359 75.9624 79.3235 76.7303C80.1111 77.4983 81.154 77.8822 82.4554 77.8822C83.7567 77.8822 84.8027 77.4983 85.5965 76.7303C86.3904 75.9624 86.7889 74.9314 86.7889 73.6371V73.4203C86.7889 73.3491 86.764 73.2872 86.7142 73.2376C86.6644 73.1881 86.6021 73.1633 86.5305 73.1633L83.9964 73.0549C83.9248 73.0549 83.8625 73.0797 83.8127 73.1293C83.7629 73.1788 83.738 73.2407 83.738 73.3119V73.8941C83.738 74.3121 83.6228 74.6465 83.3924 74.8973C83.162 75.1481 82.8507 75.275 82.4616 75.275C82.0724 75.275 81.7829 75.1481 81.5525 74.8973C81.3222 74.6465 81.207 74.3121 81.207 73.8941V66.4597C81.207 66.0416 81.3222 65.7041 81.5525 65.4471C81.7829 65.187 82.088 65.0601 82.4616 65.0601C82.8352 65.0601 83.162 65.1901 83.3924 65.4471C83.6228 65.7041 83.738 66.0447 83.738 66.4597V67.0201C83.738 67.178 83.8252 67.2585 83.9964 67.2585L86.5305 67.1501C86.6021 67.1501 86.6644 67.1254 86.7142 67.0758C86.764 67.0263 86.7889 66.9644 86.7889 66.8931V66.6547C86.7889 65.3759 86.3935 64.3572 85.609 63.5955C84.8214 62.8338 83.7691 62.4529 82.4554 62.4529Z" fill="#103972"/>
<path d="M95.6926 62.6263H88.2614C88.1898 62.6263 88.1276 62.6511 88.0777 62.7006C88.0279 62.7502 88.003 62.8121 88.003 62.8833V77.4518C88.003 77.523 88.0279 77.5849 88.0777 77.6345C88.1276 77.684 88.1898 77.7088 88.2614 77.7088H95.6926C95.7642 77.7088 95.8264 77.684 95.8762 77.6345C95.926 77.5849 95.9509 77.523 95.9509 77.4518V75.3617C95.9509 75.2905 95.926 75.2286 95.8762 75.1791C95.8264 75.1295 95.7642 75.1048 95.6926 75.1048H91.1629C91.0913 75.1048 91.0539 75.0676 91.0539 74.9964V71.5687C91.0539 71.4975 91.0913 71.4603 91.1629 71.4603H93.7624C93.834 71.4603 93.8962 71.4355 93.9461 71.386C93.9959 71.3365 94.0208 71.2745 94.0208 71.2033V69.1133C94.0208 69.042 93.9959 68.9801 93.9461 68.9306C93.8962 68.881 93.834 68.8563 93.7624 68.8563H91.1629C91.0913 68.8563 91.0539 68.8222 91.0539 68.7479V65.3419C91.0539 65.2706 91.0913 65.2335 91.1629 65.2335H95.6926C95.7642 65.2335 95.8264 65.2087 95.8762 65.1592C95.926 65.1096 95.9509 65.0477 95.9509 64.9765V62.8864C95.9509 62.8152 95.926 62.7533 95.8762 62.7037C95.8264 62.6542 95.7642 62.6294 95.6926 62.6294V62.6263Z" fill="#103972"/>
<path d="M88.3019 52.0646C88.442 51.9252 88.5821 51.7859 88.7191 51.6435C93.1802 47.0206 95.9541 40.5708 95.9541 33.4461C95.9541 32.3345 95.8856 31.2383 95.7548 30.1639C95.7175 29.8604 95.677 29.557 95.6303 29.2566C95.5649 28.8355 95.4871 28.4175 95.403 28.0026C95.375 27.8726 95.347 27.7394 95.319 27.6094C95.1976 27.0551 95.0575 26.5102 94.8987 25.9714C94.7586 25.4884 94.6061 25.0115 94.4379 24.5409C94.2169 23.9154 93.9741 23.3023 93.7095 22.7016C93.6285 22.5158 93.5445 22.33 93.4573 22.1443C93.4137 22.0514 93.3701 21.9616 93.3265 21.8687C93.2705 21.7541 93.2145 21.6396 93.1553 21.525C93.0308 21.2773 92.9032 21.0296 92.7724 20.788C92.3334 19.9768 91.854 19.1965 91.3341 18.4472C90.9419 17.8805 90.5309 17.3325 90.0982 16.803C89.9737 16.6482 89.846 16.4965 89.7153 16.3447C89.3292 15.8927 88.9245 15.4561 88.5105 15.035C88.1618 14.6851 87.8069 14.3445 87.4395 14.0132C87.3679 13.9481 87.2932 13.8831 87.2185 13.8181C86.9228 13.558 86.6208 13.3072 86.3126 13.0626C85.0798 12.0841 83.7598 11.2295 82.362 10.5143C82.1005 10.3811 81.8358 10.2511 81.5681 10.1272C81.2132 9.9631 80.8521 9.80519 80.4847 9.65656C80.0302 9.47078 79.5663 9.30358 79.0963 9.14566C79.0029 9.1147 78.9095 9.08373 78.813 9.05587C78.4363 8.93511 78.0533 8.82673 77.6704 8.72765C77.4774 8.67811 77.2844 8.63166 77.0914 8.58522C76.8018 8.5171 76.5061 8.45517 76.2135 8.39943C75.9177 8.3437 75.622 8.29416 75.3231 8.24771C75.1238 8.21675 74.9246 8.19198 74.7254 8.1672C74.5261 8.14243 74.3238 8.12076 74.1214 8.10218C73.9191 8.0836 73.7167 8.06812 73.5143 8.05264C73.0069 8.01858 72.4932 8 71.9764 8C58.7579 8 48.0019 19.4164 48.0019 33.4461C48.0019 34.4895 48.0611 35.5175 48.1763 36.5269C48.2167 36.883 48.2634 37.2391 48.3195 37.589C48.6775 39.9082 49.3344 42.1221 50.2465 44.1874C50.3275 44.3732 50.4115 44.559 50.4987 44.7447C50.8007 45.3888 51.1276 46.0174 51.4793 46.6304C51.579 46.8069 51.6817 46.9803 51.7844 47.1506C52.46 48.2684 53.2165 49.3274 54.0446 50.3182C54.1722 50.4699 54.2999 50.6217 54.4306 50.7703C54.496 50.8446 54.5614 50.9189 54.6268 50.9932C54.7575 51.1419 54.8945 51.2874 55.0283 51.4298C55.0968 51.501 55.1653 51.5723 55.2338 51.6435C55.3708 51.7859 55.5109 51.9252 55.651 52.0646C55.7226 52.1327 55.7911 52.2039 55.8627 52.272C56.2176 52.6157 56.5818 52.9471 56.9554 53.266C57.1048 53.3929 57.2574 53.5199 57.4099 53.6437C57.5625 53.7676 57.715 53.8914 57.8707 54.0091C58.4933 54.4891 59.1346 54.9411 59.8008 55.356C59.9658 55.4613 60.1339 55.5635 60.3021 55.6626C60.3861 55.7121 60.4702 55.7617 60.5542 55.8112C61.0648 56.1054 61.5847 56.3809 62.117 56.6348C62.2042 56.6782 62.2945 56.7184 62.3848 56.7618C62.8299 56.9693 63.2814 57.1612 63.7421 57.3408C64.1095 57.4833 64.4799 57.6164 64.8566 57.7402C65.4014 57.9198 65.9525 58.0809 66.5128 58.2171C66.7245 58.2697 66.9393 58.3193 67.1541 58.3657C67.3503 58.4091 67.5433 58.4493 67.7425 58.4865C67.8422 58.5051 67.9387 58.5236 68.0383 58.5422C68.334 58.5949 68.6329 58.6413 68.9318 58.6816C69.0314 58.6939 69.131 58.7094 69.2337 58.7187C69.433 58.7435 69.6353 58.7652 69.8377 58.7837C70.1459 58.8116 70.4541 58.8364 70.7654 58.8519C71.0674 58.8673 71.3694 58.8797 71.6745 58.8828C71.7772 58.8828 71.8799 58.8828 71.9827 58.8828C72.4994 58.8828 73.0131 58.8611 73.5206 58.8271C74.1308 58.7868 74.7347 58.7218 75.3324 58.632C75.6313 58.5887 75.927 58.536 76.2228 58.4803C76.5185 58.4245 76.8112 58.3626 77.1007 58.2945C77.2937 58.2481 77.4867 58.2016 77.6798 58.1521C78.6417 57.9013 79.5788 57.5916 80.4909 57.2232C80.7649 57.1117 81.0358 56.9971 81.3035 56.8764C81.6615 56.7153 82.0164 56.545 82.3651 56.3655C83.7629 55.6502 85.086 54.7956 86.3157 53.8171C86.6239 53.5725 86.9259 53.3217 87.2216 53.0616C87.3711 52.9316 87.5174 52.8015 87.6606 52.6653C87.8069 52.5321 87.9501 52.3959 88.0902 52.2597C88.1618 52.1915 88.2334 52.1234 88.3019 52.0522V52.0646ZM51.2832 32.6967C51.2708 33.1116 50.9345 33.4491 50.5174 33.4491C50.1002 33.4491 49.7609 33.1116 49.7733 32.6967C50.1376 20.2648 59.5269 10.217 71.1732 9.77113C71.6153 9.75565 71.9764 10.1148 71.9764 10.5545C71.9764 10.9942 71.6153 11.3534 71.1732 11.3689C60.3612 11.8116 51.6474 21.1441 51.2832 32.6936V32.6967ZM54.5583 32.6936C54.5427 33.1085 54.2065 33.4461 53.7893 33.4461C53.3721 33.4461 53.0328 33.1085 53.0453 32.6936C53.4064 22.1102 61.3325 13.5642 71.1764 13.1214C71.6184 13.1028 71.9796 13.462 71.9796 13.9017C71.9796 14.3414 71.6184 14.6975 71.1764 14.7191C62.1668 15.1619 54.9194 22.9896 54.5614 32.6905L54.5583 32.6936ZM57.8333 32.6967C57.8146 33.1116 57.4784 33.4491 57.0612 33.4491C56.6441 33.4491 56.3016 33.1116 56.3203 32.6967C56.6752 23.9649 63.135 16.9207 71.1732 16.4779C71.6184 16.4531 71.9764 16.8154 71.9764 17.2551C71.9764 17.6948 71.6153 18.0539 71.1701 18.0818C63.9663 18.5215 58.182 24.8474 57.8302 32.6967H57.8333ZM83.822 37.4992C83.7785 37.6509 83.7349 37.7996 83.6851 37.9482C83.3084 39.1248 82.7916 40.2302 82.1534 41.2365C82.088 41.3387 82.0226 41.4409 81.9541 41.54C79.694 44.9058 76.064 47.0918 71.9764 47.0918C70.2891 47.0918 68.6827 46.7202 67.2164 46.0452C67.1043 45.9926 66.9891 45.9399 66.8802 45.8842C65.1399 45.0172 63.6145 43.7229 62.4128 42.1221C62.2851 41.9549 62.1637 41.7815 62.0454 41.605C61.868 41.3418 61.6968 41.0724 61.5349 40.7969C61.2111 40.2426 60.9247 39.6636 60.6756 39.0567C60.6352 38.9576 60.5947 38.8554 60.5542 38.7532C60.4764 38.5489 60.4017 38.3414 60.3332 38.134C60.2989 38.0287 60.2647 37.9234 60.2305 37.8181C59.969 36.9728 59.7822 36.0904 59.6794 35.1831C59.639 34.8425 59.6109 34.4957 59.5954 34.1489C59.5891 34.0344 59.586 33.9167 59.5829 33.799V33.4461C59.5798 25.9249 65.143 19.8003 71.9796 19.8003C78.8192 19.8003 84.3824 25.9218 84.3824 33.4461C84.3824 34.8549 84.1863 36.2173 83.8252 37.4992H83.822Z" fill="#103972"/>
<path d="M45.7667 38.8461V34.2573C45.7667 32.3252 44.1914 30.7584 42.2488 30.7584H28.1742C26.2316 30.7584 24.6563 32.3252 24.6563 34.2573V38.3414C24.6563 40.2736 26.2316 41.8403 28.1742 41.8403H31.636C32.1092 41.8403 32.3832 42.3667 32.0781 42.729C29.9362 45.2711 26.8853 46.8441 23.5044 46.8441C17.0446 46.8441 11.7896 41.0198 11.7896 33.861C11.7896 26.7021 17.0446 20.8778 23.5044 20.8778C26.9538 20.8778 30.0639 22.5406 32.2088 25.1818C32.3956 25.4109 32.6727 25.5534 32.9716 25.5534C33.7125 25.5534 34.1546 24.7514 33.6938 24.1724C31.2188 21.0605 27.5702 19.0943 23.5044 19.0943C16.0453 19.0943 10.0026 25.7051 10.0026 33.8548C10.0026 42.0044 16.0484 48.6152 23.5044 48.6152C28.1275 48.6152 32.2119 46.1041 34.6433 42.2305C34.7959 41.989 35.0574 41.8372 35.3438 41.8372C35.9446 41.8372 36.3276 42.4658 36.0162 42.9736C33.3171 47.3674 28.7159 50.2439 23.5044 50.2439C15.2109 50.2439 8.4647 42.8931 8.4647 33.8548C8.4647 24.8164 15.2109 17.4656 23.5044 17.4656C28.8373 17.4656 33.5288 20.5032 36.1999 25.0734C36.3711 25.3645 36.6793 25.5503 37.0187 25.5503C37.6942 25.5503 38.1363 24.8505 37.8001 24.2653C34.8301 19.116 29.5377 15.6883 23.5044 15.6883C14.2085 15.6883 6.67463 23.8225 6.67463 33.8548C6.67463 43.887 14.2085 52.0212 23.5044 52.0212C29.9891 52.0212 35.6178 48.0919 38.4289 42.2924C38.5628 42.0137 38.843 41.831 39.1543 41.831C39.7147 41.831 40.0945 42.3946 39.8548 42.8993C36.807 49.2902 30.6211 53.6437 23.5075 53.6437C13.3804 53.6437 5.13984 44.7664 5.13984 33.8517C5.13984 22.9369 13.3804 14.0596 23.5075 14.0596C30.6865 14.0596 36.9159 18.5184 39.9357 25.0022C40.0883 25.3335 40.4183 25.5503 40.7825 25.5503C41.4238 25.5503 41.8659 24.9093 41.5981 24.3272C38.3106 17.1901 31.4461 12.2792 23.5075 12.2792C12.3748 12.2792 3.34977 21.9368 3.34977 33.8517C3.34977 45.7665 12.3748 55.4242 23.5075 55.4242C31.8353 55.4242 38.9831 50.0488 42.0558 42.342C42.1772 42.0385 42.4667 41.8341 42.7967 41.8341C43.3322 41.8341 43.7089 42.3574 43.5127 42.8529C40.2252 51.2007 32.4984 57.0467 23.5106 57.0467C11.5499 57.0467 1.8212 46.6397 1.8212 33.8486C1.8212 21.0574 11.5405 10.6598 23.5013 10.6598C32.5139 10.6598 40.2626 16.5708 43.5314 24.9558C43.6715 25.3119 44.0109 25.5534 44.3969 25.5534C45.0164 25.5534 45.4522 24.9496 45.2312 24.3768C41.7227 15.2827 33.314 8.88247 23.5013 8.88247C10.5318 8.88247 0.0217922 20.0635 0.0217922 33.8579C0.0217922 47.6522 10.535 58.8333 23.5013 58.8333C32.8533 58.8333 40.9257 53.0461 44.702 44.6364C45.5145 42.825 45.7667 40.8278 45.7667 38.8461Z" fill="#103972"/>
<path fill-rule="evenodd" clip-rule="evenodd" d="M99.089 18.5219L99.0897 18.5084C99.2057 16.4201 99.8874 14.5318 101.112 12.9094L101.112 12.9089C102.285 11.3576 103.846 10.1499 105.745 9.31452L105.93 9.23484C107.878 8.41152 110.073 8 112.449 8C115.088 8 117.449 8.49854 119.457 9.5002C120.945 10.2391 122.201 11.1896 123.206 12.334C123.462 12.0396 123.732 11.7569 124.017 11.4882L124.017 11.4877C126.491 9.15799 129.858 8 133.963 8C138.004 8.00001 141.334 9.11918 143.814 11.3752L143.932 11.4833C146.439 13.8268 147.692 17.0093 147.692 20.8921V34.661V34.6933C147.692 37.2612 147.692 42.8114 142.451 46.4033C138.282 49.2584 133.529 48.9392 131.268 48.5622L131.237 53.1867C132.602 52.6275 134.093 52.3507 135.69 52.3507C138.359 52.3507 140.752 53.0347 142.787 54.3937L142.788 54.3942C144.826 55.7578 146.29 57.6506 147.145 60.0072C147.157 60.0337 147.163 60.0524 147.164 60.0551C147.168 60.064 147.17 60.072 147.172 60.0781L147.173 60.0811L147.176 60.0898L147.177 60.093L147.177 60.0951V60.0956L147.36 60.7258H147.349C147.78 62.2956 148 63.8471 148 65.346C148 67.235 147.693 68.9848 147.079 70.5398C146.222 72.8915 144.7 74.8112 142.572 76.2286L142.363 76.3646C140.139 77.7854 137.447 78.4964 134.585 78.4965C131.721 78.4965 129.148 77.8031 126.944 76.4216C126.802 76.3321 126.661 76.2396 126.522 76.1449C126.483 76.5071 126.35 76.8774 126.085 77.181L126.085 77.1807C125.717 77.6052 125.206 77.8397 124.64 77.8397H101.184C100.673 77.8397 100.203 77.6474 99.8418 77.2901C99.4814 76.937 99.2891 76.4727 99.2891 75.9676V71.2301C99.2891 70.5928 99.5263 70.0127 99.9742 69.5701L99.9781 69.5662C101.666 67.9353 103.401 66.1425 105.143 64.2364L105.143 64.2362C106.957 62.253 108.018 61.0989 108.474 60.6138C109.447 59.4819 110.455 58.3797 111.473 57.3403C113.326 55.3069 114.432 53.7846 115.072 52.6637C115.716 51.5356 115.869 50.8484 115.869 50.4763C115.869 49.6236 115.579 48.9753 114.986 48.4477L114.927 48.397C114.316 47.8814 113.52 47.6108 112.446 47.6108C111.338 47.6109 110.528 47.8989 109.91 48.4477L109.909 48.4482C109.322 48.968 109.026 49.6445 109.026 50.5796V51.8142C109.026 52.2566 108.889 52.7257 108.565 53.0935C108.195 53.5155 107.687 53.7411 107.131 53.7411H101.289C100.781 53.7411 100.309 53.5513 99.9485 53.1934C99.9472 53.1921 99.9457 53.1909 99.9444 53.1896C99.5852 52.8367 99.3936 52.3732 99.3936 51.869V40.3624C99.3937 39.5345 99.9846 38.9936 100.219 38.768L100.289 38.699C101.332 37.6885 102.271 36.6173 103.279 35.468L103.372 35.362L104.234 34.3811C104.528 34.0476 104.832 33.7082 105.146 33.3651C106.961 31.3822 108.021 30.2282 108.477 29.7431C109.45 28.6113 110.458 27.5091 111.476 26.4697C113.329 24.4362 114.435 22.9139 115.075 21.793C115.72 20.665 115.872 19.9777 115.872 19.6056C115.872 18.7529 115.582 18.1047 114.988 17.5771C114.37 17.0286 113.558 16.7402 112.449 16.7402C111.341 16.7402 110.531 17.0282 109.913 17.5771L109.912 17.5778C109.325 18.0976 109.029 18.7741 109.029 19.7092V20.9438C109.029 21.3861 108.892 21.8551 108.568 22.2228C108.198 22.6449 107.69 22.8704 107.134 22.8704H100.984C100.476 22.8704 100.004 22.6806 99.6439 22.3228L99.6419 22.3209C99.6413 22.3202 99.6404 22.3196 99.6397 22.3189C99.2806 21.966 99.089 21.5026 99.089 20.9984V18.5219ZM123.892 75.3333H101.957C101.896 75.3332 101.843 75.2814 101.843 75.2196V71.2922C103.54 69.6451 105.291 67.839 107.041 65.9204L107.041 65.9206C108.877 63.9121 109.932 62.7634 110.365 62.305L110.365 62.3048C110.372 62.2977 110.378 62.2917 110.383 62.2864C110.385 62.2838 110.387 62.2809 110.389 62.2787L110.393 62.2755L110.406 62.2603C111.353 61.1582 112.334 60.0863 113.339 59.0571L113.345 59.0511L113.351 59.0448C115.024 57.2093 116.283 55.597 117.126 54.1919C117.964 52.7946 118.419 51.556 118.419 50.4794C118.419 48.9248 117.84 47.6035 116.697 46.5849L116.696 46.5846L116.591 46.4931C115.49 45.5627 114.087 45.1042 112.458 45.1042C110.777 45.1042 109.337 45.5926 108.22 46.5844C107.071 47.6054 106.497 48.9664 106.497 50.5827V51.121C106.497 51.1829 106.444 51.2347 106.383 51.2347H102.059C101.997 51.2347 101.944 51.1829 101.944 51.121V40.6263C101.963 40.6084 101.981 40.5905 101.998 40.5744L102 40.5725L102.083 40.4935L102.085 40.4921L102.086 40.4909C103.217 39.398 104.216 38.2559 105.253 37.0705L105.306 37.0092L105.306 37.009C105.864 36.3731 106.436 35.7201 107.045 35.0524L107.045 35.0522C108.88 33.044 109.935 31.8958 110.369 31.4375L110.368 31.4372C110.375 31.4301 110.381 31.424 110.386 31.4187C110.388 31.4164 110.39 31.4141 110.391 31.4121L110.396 31.408L110.409 31.3926C111.356 30.2904 112.337 29.2188 113.342 28.1896L113.348 28.1835L113.354 28.1773C115.028 26.3418 116.286 24.7293 117.129 23.3241C117.967 21.9269 118.422 20.6885 118.422 19.6119C118.422 18.0573 117.843 16.736 116.7 15.7174L116.699 15.7169C115.583 14.7251 114.143 14.2367 112.461 14.2367C110.78 14.2367 109.339 14.7251 108.223 15.7169C107.074 16.7379 106.5 18.0989 106.5 19.7152V20.2535C106.5 20.3154 106.447 20.3672 106.386 20.3672H101.754C101.692 20.3672 101.639 20.3153 101.639 20.2535V18.6217C101.734 17.0338 102.247 15.6235 103.159 14.4188C104.092 13.1841 105.358 12.2202 106.94 11.5519C108.555 10.8704 110.41 10.5216 112.461 10.5216C114.733 10.5216 116.702 10.9422 118.326 11.7518C119.944 12.5585 121.193 13.6502 122.047 14.9833L122.049 14.986L122.057 15.0053L122.074 15.034C122.078 15.04 122.082 15.0473 122.091 15.0637C122.099 15.0777 122.112 15.1009 122.127 15.1253C122.357 15.5054 122.758 15.7258 123.21 15.7306H123.215C123.656 15.7306 124.07 15.5047 124.301 15.1253L124.3 15.1251C124.707 14.4651 125.205 13.8583 125.777 13.316C127.727 11.4793 130.465 10.5216 133.969 10.5216C137.473 10.5216 140.224 11.4821 142.19 13.3204L142.19 13.3206C144.171 15.1713 145.154 17.6313 145.154 20.9071V34.6791C145.154 37.1693 145.145 41.5242 141.008 44.3564C138.734 45.9143 136.162 46.3052 134.126 46.2956C132.143 46.2862 130.711 45.897 130.644 45.879L130.642 45.8783L130.64 45.8776L130.637 45.8769L130.59 45.8639C130.481 45.8359 130.373 45.825 130.272 45.825C129.401 45.825 128.742 46.4721 128.74 47.3288L128.688 54.9551V54.9585C128.688 55.7344 129.134 56.1258 129.439 56.2841C129.733 56.4367 130.306 56.5939 130.959 56.1678L130.959 56.168C132.301 55.3156 133.888 54.8752 135.692 54.8752C137.869 54.8752 139.772 55.4236 141.367 56.4872C142.943 57.5393 144.083 59.0078 144.754 60.8627C145.232 62.4144 145.471 63.9284 145.471 65.3612C145.471 66.6857 145.295 67.9039 144.949 69.0043L144.71 69.6606C144.009 71.5827 142.762 73.1293 140.994 74.2602C139.205 75.4026 137.059 75.9901 134.597 75.9901C132.213 75.9901 130.22 75.4536 128.486 74.4092L128.319 74.3066C127.534 73.8149 126.832 73.2196 126.237 72.5444C125.989 72.2611 125.633 72.1129 125.277 72.1129C125.131 72.1129 124.978 72.1379 124.829 72.1938C124.332 72.3794 124.007 72.8465 124.007 73.3678V75.2196C124.007 75.2814 123.954 75.3332 123.892 75.3333Z" fill="#103972"/>
<path fill-rule="evenodd" clip-rule="evenodd" d="M140.346 34.8547L140.344 35.0198V35.0217L140.344 35.0239C140.31 36.7685 139.771 38.2528 138.712 39.3949L138.608 39.5042C137.431 40.7108 135.852 41.3041 133.966 41.3041H133.963L133.961 41.3039L133.798 41.3022H133.794C132.013 41.2664 130.511 40.6709 129.375 39.5038C128.249 38.3479 127.675 36.8275 127.64 35.0242V35.0193L127.639 34.8539V20.6883C127.639 18.8118 128.212 17.2272 129.376 16.0334C130.55 14.8298 132.075 14.2338 133.966 14.2338H133.971L134.136 14.2355H134.141C135.951 14.2712 137.468 14.8651 138.608 16.0334L138.608 16.0339C139.772 17.2302 140.346 18.8113 140.346 20.6883V34.8547ZM137.59 20.6883V34.8496C137.59 36.1535 137.207 37.0172 136.624 37.6163L136.566 37.674C135.994 38.2313 135.19 38.5842 133.966 38.5843C132.75 38.5843 131.944 38.2171 131.363 37.6201L131.36 37.6165L131.357 37.6134L131.302 37.5556C130.752 36.9604 130.395 36.1142 130.395 34.8496V20.6883C130.395 19.383 130.777 18.5186 131.362 17.9195L131.374 17.9065C131.963 17.3096 132.734 16.9536 133.966 16.9536C135.227 16.9537 136.045 17.3283 136.622 17.919C137.208 18.5231 137.59 19.3861 137.59 20.6883Z" fill="#103972"/>
<path fill-rule="evenodd" clip-rule="evenodd" d="M122.833 34.4874C122.833 36.1948 123.102 37.719 123.623 39.0225L123.623 39.0247C123.719 39.267 123.736 39.5317 123.675 39.7814L123.748 39.8486L123.456 40.2426L123.451 40.2492L123.446 40.2554C123.206 40.5572 122.839 40.7383 122.443 40.7384H110.52L110.512 40.7381L110.43 40.7355L110.422 40.735C109.892 40.7018 109.422 40.4164 109.183 39.9386L109.183 39.9389C108.895 39.3796 109.031 38.7253 109.475 38.2858L110.249 37.5214L115.811 31.8714C116.875 30.762 117.887 29.6255 118.827 28.4842L119.23 27.9897L119.234 27.9843C119.685 27.4461 120.106 26.9044 120.501 26.3651C120.751 26.0184 121.186 25.7596 121.68 25.8061L121.728 25.8117L121.739 25.8131L121.75 25.815L121.822 25.8278L121.833 25.83L121.845 25.8327C122.427 25.9648 122.833 26.4764 122.833 27.0557V34.4874ZM117.808 33.7447C118.593 32.9269 119.351 32.0935 120.077 31.2525V34.4874C120.077 35.7139 120.197 36.8975 120.446 38.0185H113.602L117.795 33.7589L117.801 33.7531L117.809 33.7449L117.808 33.7447Z" fill="#103972"/>
<path fill-rule="evenodd" clip-rule="evenodd" d="M123.932 61.2744C123.932 61.4366 124.065 61.5673 124.228 61.5673H124.23L128.776 61.5857H128.777C129.149 61.5878 129.496 61.4157 129.714 61.1218L129.863 60.9265C130.232 60.4526 130.751 59.8694 131.303 59.5304L131.315 59.5231L131.424 59.4606L131.43 59.4565L131.438 59.4528C132.457 58.9085 133.551 58.6331 134.754 58.6331H134.762L134.971 58.6365H134.975L134.979 58.6367C136.046 58.6712 137.024 58.9529 137.88 59.4813H137.888L138.015 59.5649C138.986 60.2066 139.646 61.1228 139.974 62.2705C140.334 63.1976 140.509 64.2321 140.509 65.346C140.509 66.5772 140.307 67.6532 139.883 68.5217C139.451 69.6434 138.766 70.552 137.84 71.206C136.889 71.88 135.741 72.2141 134.548 72.2141H134.539L134.335 72.2107L134.33 72.2105H134.326C133.296 72.1762 132.357 71.9004 131.539 71.3813L131.531 71.376L131.375 71.2726L131.371 71.2697L131.367 71.2671C130.454 70.6355 129.778 69.7424 129.346 68.6272C129.34 68.614 129.336 68.6025 129.332 68.5936L129.301 68.5161C129.285 68.4811 129.264 68.4365 129.235 68.3809L129.201 68.3145C129.084 68.1295 128.885 68.0097 128.663 67.9926L128.597 67.9905H124.917C124.454 67.9905 124.127 68.4298 124.253 68.8479C124.35 69.1668 124.456 69.4775 124.573 69.7778L124.622 69.891L124.623 69.8932L124.624 69.8951C124.776 70.2799 124.726 70.7149 124.489 71.0568L124.489 71.057C124.269 71.3786 123.91 71.5798 123.518 71.6037L123.51 71.6042L123.503 71.6044L123.448 71.6061H110.52L110.512 71.6059L110.43 71.6032L110.422 71.6027C109.892 71.5695 109.422 71.2838 109.183 70.8061L109.183 70.8064C108.895 70.2471 109.031 69.593 109.475 69.1536L110.246 68.3918L119.244 58.84C120.163 57.7336 120.936 56.675 121.546 55.6788C121.784 55.2894 122.243 54.9819 122.782 55.0351C123.443 55.1 123.932 55.6461 123.932 56.2844V61.2744ZM131.642 67.048C131.037 65.9506 129.872 65.2706 128.607 65.2706H124.917C122.922 65.2706 121.335 66.9542 121.474 68.8863H113.543L121.176 60.784V61.2744C121.176 62.9328 122.535 64.2822 124.219 64.2872L128.761 64.3055L128.844 64.3057L128.848 64.3043C130.066 64.2846 131.21 63.7084 131.937 62.7295C132.122 62.4806 132.303 62.2671 132.458 62.1065C132.535 62.0262 132.603 61.9622 132.658 61.915C132.685 61.8916 132.708 61.8739 132.725 61.8612C132.741 61.8501 132.749 61.8447 132.751 61.8433C133.362 61.5178 134.004 61.3529 134.754 61.3529C135.47 61.3529 136.03 61.5304 136.483 61.8279L136.483 61.8281L136.538 61.8643C136.91 62.1271 137.175 62.4851 137.327 63.0243L137.327 63.025L137.35 63.1064L137.356 63.1293L137.365 63.1513L137.396 63.2305C137.62 63.8035 137.753 64.5052 137.753 65.346C137.753 66.3166 137.589 66.9596 137.396 67.3503L137.36 67.4233L137.349 67.4445L137.341 67.4667L137.312 67.5421C137.056 68.2153 136.686 68.6745 136.241 68.9906L136.241 68.9913L136.234 68.9964C135.793 69.3083 135.22 69.4943 134.548 69.4943C133.868 69.4943 133.357 69.3221 132.949 69.0401C132.545 68.7602 132.193 68.3407 131.936 67.6964V67.6249L131.699 67.1555L131.642 67.048Z" fill="#103972"/>
</svg>
