<svg width="1356" height="996" viewBox="0 0 1356 996" fill="none" xmlns="http://www.w3.org/2000/svg">
<g style="mix-blend-mode:overlay">
<path opacity="0.6" d="M367.197 24.73L453.742 254.719L0 0L413.56 450.086L267.67 406.808L377.088 490.89L78.5084 480.38L364.724 571.263L301.67 620.723L431.487 612.685L254.071 776.521L477.232 669.564L310.943 899.553L543.995 707.896L575.522 821.654L619.413 701.095L670.103 889.043L697.921 753.646L874.102 996L795.593 748.7L949.519 889.043L914.283 785.177L1008.25 837.11L968.064 701.095L1312.39 842.674L1026.17 612.685L1240.06 627.523L982.901 497.073L1272.21 410.518L968.064 386.406L1173.3 160.745L856.793 334.473L874.102 254.719L825.266 294.287V177.438L697.921 276.358L569.34 18.5475L575.522 276.358L367.197 24.73Z" fill="#C9ECFF"/>
<path opacity="0.6" d="M456.836 186.938L513.732 338.101L215.436 170.684L487.316 466.508L382.465 456.859L463.339 493.327L261.419 516.151L455.211 546.153L413.758 578.661L499.102 573.379L382.465 681.062L529.175 610.763L419.854 761.926L573.066 635.957L593.793 710.726L622.647 631.487L655.972 755.018L674.259 666.027L790.083 825.317L738.47 662.776L839.664 755.018L816.499 686.751L878.271 720.884L851.856 631.487L1078.22 724.542L890.057 573.379L1030.67 583.131L861.609 497.391L1051.8 440.501L851.856 424.654L986.78 276.335L778.704 390.52L790.083 338.101L757.978 364.107V287.307L674.259 352.323L589.729 182.874L593.793 352.323L456.836 186.938Z" fill="#FFFB00"/>
<path opacity="0.6" d="M309.727 462.966L163.098 439.764L84.1943 377.5L309.727 462.966Z" fill="#FFFB00"/>
<path opacity="0.6" d="M417.789 217.652L240.694 67.999L304.694 48.499L417.789 217.652Z" fill="#FFFB00"/>
<path opacity="0.6" d="M897.468 301.213L988.565 87.9999L1090.19 49.5L897.468 301.213Z" fill="#FFFB00"/>
<path opacity="0.6" d="M1038.08 366.15L1263.86 313.374L1355.04 372.5L1038.08 366.15Z" fill="#FFFB00"/>
<path opacity="0.6" d="M1028.93 502.202L1227.44 543.354L1327.69 491.5L1028.93 502.202Z" fill="#FFFB00"/>
<path opacity="0.6" d="M1075.52 641.882L1302.19 788.5L1264.69 682.5L1075.52 641.882Z" fill="#FFFB00"/>
<path opacity="0.6" d="M1065.99 312.2L1220.67 192.701L1303.23 192.943L1065.99 312.2Z" fill="#FFFB00"/>
<path opacity="0.6" d="M406.595 729.434L292.75 824.712L241.694 816.678L406.595 729.434Z" fill="#FFFB00"/>
<path d="M382.694 317.52C382.694 307.223 378.334 297.953 371.393 291.514C371.557 290.306 371.638 289.097 371.638 287.856C371.638 270.806 356.108 257 336.951 257C323.984 257 312.667 263.34 306.723 272.726C303.979 272.031 301.121 271.666 298.165 271.666C278.568 271.666 262.694 287.823 262.694 307.753C262.694 317.503 266.499 326.343 272.673 332.831C271.154 335.563 270.288 338.658 270.288 341.952C270.288 352.944 279.875 361.85 291.682 361.85C293.935 361.85 296.091 361.519 298.133 360.923C304.044 368.885 313.239 374 323.544 374C337.229 374 348.922 364.995 353.642 352.298C370.136 349.517 382.694 335.017 382.694 317.52Z" fill="white"/>
<path d="M267.694 219.344C267.694 225.24 270.202 230.548 274.192 234.236C274.099 234.928 274.052 235.62 274.052 236.331C274.052 246.094 282.982 254 293.997 254C301.453 254 307.96 250.369 311.378 244.995C312.956 245.393 314.599 245.601 316.299 245.601C327.567 245.601 336.694 236.349 336.694 224.936C336.694 219.353 334.506 214.291 330.957 210.575C331.83 209.011 332.328 207.238 332.328 205.352C332.328 199.058 326.816 193.958 320.027 193.958C318.731 193.958 317.491 194.147 316.317 194.489C312.918 189.929 307.631 187 301.706 187C293.837 187 287.113 192.157 284.4 199.427C274.915 201.02 267.694 209.324 267.694 219.344Z" fill="white"/>
<path opacity="0.67" d="M288.694 637.415C288.694 630.199 285.606 623.702 280.689 619.189C280.805 618.342 280.863 617.495 280.863 616.625C280.863 604.676 269.862 595 256.293 595C247.108 595 239.092 599.443 234.881 606.022C232.938 605.534 230.913 605.279 228.82 605.279C214.938 605.279 203.694 616.602 203.694 630.57C203.694 637.404 206.39 643.599 210.762 648.147C209.686 650.061 209.073 652.231 209.073 654.539C209.073 662.243 215.864 668.484 224.227 668.484C225.823 668.484 227.35 668.252 228.796 667.835C232.984 673.415 239.497 677 246.796 677C256.49 677 264.772 670.689 268.115 661.79C279.799 659.841 288.694 649.678 288.694 637.415Z" fill="white"/>
<path d="M1131.69 281.795C1131.69 272.643 1127.81 264.403 1121.62 258.679C1121.76 257.605 1121.84 256.531 1121.84 255.427C1121.84 240.272 1107.99 228 1090.91 228C1079.34 228 1069.25 233.636 1063.95 241.978C1061.51 241.36 1058.96 241.037 1056.32 241.037C1038.85 241.037 1024.69 255.398 1024.69 273.114C1024.69 281.78 1028.09 289.638 1033.59 295.406C1032.24 297.834 1031.47 300.585 1031.47 303.513C1031.47 313.284 1040.01 321.2 1050.54 321.2C1052.55 321.2 1054.47 320.905 1056.29 320.376C1061.56 327.453 1069.76 332 1078.95 332C1091.15 332 1101.58 323.995 1105.79 312.71C1120.5 310.238 1131.69 297.348 1131.69 281.795Z" fill="white"/>
<path d="M1156.69 343.171C1156.69 347.396 1154.88 351.199 1151.99 353.84C1152.05 354.336 1152.09 354.832 1152.09 355.341C1152.09 362.336 1145.62 368 1137.63 368C1132.23 368 1127.52 365.399 1125.04 361.548C1123.9 361.834 1122.71 361.983 1121.47 361.983C1113.31 361.983 1106.69 355.355 1106.69 347.178C1106.69 343.178 1108.28 339.552 1110.85 336.89C1110.22 335.769 1109.86 334.499 1109.86 333.148C1109.86 328.638 1113.85 324.985 1118.77 324.985C1119.71 324.985 1120.61 325.121 1121.46 325.365C1123.92 322.098 1127.75 320 1132.05 320C1137.75 320 1142.62 323.694 1144.59 328.903C1151.46 330.044 1156.69 335.993 1156.69 343.171Z" fill="white"/>
<path d="M1167.69 598.795C1167.69 589.643 1163.81 581.403 1157.62 575.679C1157.76 574.605 1157.84 573.531 1157.84 572.427C1157.84 557.272 1143.99 545 1126.91 545C1115.34 545 1105.25 550.636 1099.95 558.978C1097.51 558.36 1094.96 558.037 1092.32 558.037C1074.85 558.037 1060.69 572.398 1060.69 590.114C1060.69 598.78 1064.09 606.638 1069.59 612.406C1068.24 614.834 1067.47 617.585 1067.47 620.513C1067.47 630.284 1076.01 638.2 1086.54 638.2C1088.55 638.2 1090.47 637.905 1092.29 637.376C1097.56 644.453 1105.76 649 1114.95 649C1127.15 649 1137.58 640.995 1141.79 629.71C1156.5 627.238 1167.69 614.348 1167.69 598.795Z" fill="white"/>
</g>
</svg>
