<svg width="1442" height="996" viewBox="0 0 1442 996" fill="none" xmlns="http://www.w3.org/2000/svg">
<g style="mix-blend-mode:overlay">
<path opacity="0.6" d="M367.502 24.73L454.047 254.719L0.305664 0L413.866 450.086L267.976 406.808L377.393 490.89L78.8141 480.38L365.03 571.263L301.976 620.723L431.793 612.685L254.376 776.521L477.538 669.564L311.248 899.553L544.301 707.896L575.828 821.654L619.718 701.095L670.409 889.043L698.227 753.646L874.407 996L795.899 748.7L949.825 889.043L914.589 785.177L1008.55 837.11L968.37 701.095L1312.69 842.674L1026.48 612.685L1240.37 627.523L983.206 497.073L1272.51 410.518L968.37 386.406L1173.6 160.745L857.098 334.473L874.407 254.719L825.571 294.287V177.438L698.227 276.358L569.646 18.5475L575.828 276.358L367.502 24.73Z" fill="#C9ECFF"/>
<path opacity="0.6" d="M457.142 186.938L514.038 338.101L215.741 170.684L487.622 466.508L382.771 456.859L463.644 493.327L261.724 516.151L455.516 546.153L414.064 578.661L499.407 573.379L382.771 681.062L529.481 610.763L420.16 761.926L573.372 635.957L594.098 710.726L622.952 631.487L656.277 755.018L674.565 666.027L790.388 825.317L738.776 662.776L839.969 755.018L816.804 686.751L878.577 720.884L852.161 631.487L1078.52 724.542L890.362 573.379L1030.98 583.131L861.915 497.391L1052.11 440.501L852.161 424.654L987.085 276.335L779.009 390.52L790.388 338.101L758.283 364.107V287.307L674.565 352.323L590.034 182.874L594.098 352.323L457.142 186.938Z" fill="#FFFB00"/>
<path opacity="0.6" d="M312.033 462.966L165.403 439.764L86.5 377.5L312.033 462.966Z" fill="#FFFB00"/>
<path opacity="0.6" d="M420.094 217.653L243 68L306.999 48.5L420.094 217.653Z" fill="#FFFB00"/>
<path opacity="0.6" d="M899.774 301.213L990.871 87.9999L1092.5 49.5L899.774 301.213Z" fill="#FFFB00"/>
<path opacity="0.6" d="M1040.39 366.152L1266.16 313.376L1357.35 372.502L1040.39 366.152Z" fill="#FFFB00"/>
<path opacity="0.6" d="M1031.24 502.202L1229.74 543.354L1330 491.5L1031.24 502.202Z" fill="#FFFB00"/>
<path opacity="0.6" d="M1077.83 641.883L1304.5 788.501L1267 682.5L1077.83 641.883Z" fill="#FFFB00"/>
<path opacity="0.6" d="M1068.3 312.202L1222.97 192.703L1305.54 192.945L1068.3 312.202Z" fill="#FFFB00"/>
<path opacity="0.6" d="M408.901 729.436L295.056 824.714L244 816.68L408.901 729.436Z" fill="#FFFB00"/>
<path d="M383.939 317.52C383.939 307.223 379.591 297.953 372.669 291.514C372.832 290.306 372.914 289.097 372.914 287.856C372.914 270.806 357.426 257 338.323 257C325.392 257 314.106 263.34 308.178 272.726C305.442 272.031 302.592 271.666 299.644 271.666C280.101 271.666 264.271 287.823 264.271 307.753C264.271 317.503 268.066 326.343 274.222 332.831C272.707 335.563 271.844 338.658 271.844 341.952C271.844 352.944 281.404 361.85 293.179 361.85C295.426 361.85 297.576 361.519 299.612 360.923C305.507 368.885 314.676 374 324.952 374C338.6 374 350.26 364.995 354.967 352.298C371.415 349.517 383.939 335.017 383.939 317.52Z" fill="white"/>
<path d="M269.258 219.344C269.258 225.24 271.758 230.548 275.738 234.236C275.644 234.928 275.597 235.62 275.597 236.331C275.597 246.094 284.503 254 295.487 254C302.922 254 309.412 250.369 312.82 244.995C314.393 245.393 316.032 245.601 317.727 245.601C328.964 245.601 338.066 236.349 338.066 224.936C338.066 219.353 335.885 214.291 332.345 210.575C333.216 209.011 333.712 207.238 333.712 205.352C333.712 199.058 328.215 193.958 321.445 193.958C320.153 193.958 318.916 194.147 317.746 194.489C314.356 189.929 309.084 187 303.175 187C295.328 187 288.623 192.157 285.917 199.427C276.459 201.02 269.258 209.324 269.258 219.344Z" fill="white"/>
<path opacity="0.67" d="M290.2 637.415C290.2 630.199 287.12 623.702 282.217 619.189C282.332 618.342 282.39 617.495 282.39 616.625C282.39 604.676 271.419 595 257.888 595C248.729 595 240.734 599.443 236.535 606.022C234.597 605.534 232.579 605.279 230.491 605.279C216.648 605.279 205.435 616.602 205.435 630.57C205.435 637.404 208.123 643.599 212.483 648.147C211.411 650.061 210.799 652.231 210.799 654.539C210.799 662.243 217.571 668.484 225.911 668.484C227.503 668.484 229.026 668.252 230.468 667.835C234.644 673.415 241.138 677 248.417 677C258.084 677 266.344 670.689 269.678 661.79C281.329 659.841 290.2 649.678 290.2 637.415Z" fill="white"/>
<path d="M1130.86 281.795C1130.86 272.643 1126.99 264.403 1120.82 258.679C1120.96 257.605 1121.03 256.531 1121.03 255.427C1121.03 240.272 1107.22 228 1090.19 228C1078.66 228 1068.6 233.636 1063.31 241.978C1060.87 241.36 1058.33 241.037 1055.7 241.037C1038.28 241.037 1024.16 255.398 1024.16 273.114C1024.16 281.78 1027.54 289.638 1033.03 295.406C1031.68 297.834 1030.91 300.585 1030.91 303.513C1030.91 313.284 1039.44 321.2 1049.94 321.2C1051.94 321.2 1053.86 320.905 1055.67 320.376C1060.93 327.453 1069.1 332 1078.27 332C1090.44 332 1100.83 323.995 1105.03 312.71C1119.7 310.238 1130.86 297.348 1130.86 281.795Z" fill="white"/>
<path d="M1155.8 343.171C1155.8 347.396 1153.98 351.199 1151.1 353.84C1151.17 354.336 1151.2 354.832 1151.2 355.341C1151.2 362.336 1144.75 368 1136.79 368C1131.4 368 1126.7 365.399 1124.23 361.548C1123.09 361.834 1121.9 361.983 1120.67 361.983C1112.53 361.983 1105.93 355.355 1105.93 347.178C1105.93 343.178 1107.51 339.552 1110.08 336.89C1109.45 335.769 1109.09 334.499 1109.09 333.148C1109.09 328.638 1113.07 324.985 1117.98 324.985C1118.91 324.985 1119.81 325.121 1120.66 325.365C1123.12 322.098 1126.94 320 1131.22 320C1136.9 320 1141.76 323.694 1143.72 328.903C1150.58 330.044 1155.8 335.993 1155.8 343.171Z" fill="white"/>
<path d="M1166.76 598.795C1166.76 589.643 1162.89 581.403 1156.72 575.679C1156.86 574.605 1156.93 573.531 1156.93 572.427C1156.93 557.272 1143.12 545 1126.09 545C1114.56 545 1104.5 550.636 1099.21 558.978C1096.77 558.36 1094.23 558.037 1091.6 558.037C1074.18 558.037 1060.06 572.398 1060.06 590.114C1060.06 598.78 1063.44 606.638 1068.93 612.406C1067.58 614.834 1066.81 617.585 1066.81 620.513C1066.81 630.284 1075.34 638.2 1085.84 638.2C1087.84 638.2 1089.76 637.905 1091.57 637.376C1096.83 644.453 1105 649 1114.17 649C1126.34 649 1136.73 640.995 1140.93 629.71C1155.6 627.238 1166.76 614.348 1166.76 598.795Z" fill="white"/>
</g>
</svg>
