<svg width="390" height="494" viewBox="0 0 390 494" fill="none" xmlns="http://www.w3.org/2000/svg">
<g style="mix-blend-mode:overlay">
<path opacity="0.6" d="M32.0936 -65.3327L86.9227 80.373L-200.538 -81L61.4664 204.145L-30.9598 176.727L38.3598 229.996L-150.8 223.337L30.5271 280.914L-9.41978 312.249L72.8238 307.157L-39.5757 410.953L101.805 343.192L-3.54522 488.898L144.101 367.476L164.075 439.546L191.881 363.168L223.995 482.239L241.619 396.461L353.235 550L303.497 393.327L401.015 482.239L378.691 416.436L438.22 449.338L412.764 363.168L630.905 452.863L449.578 307.157L585.084 316.557L422.163 233.912L605.449 179.077L412.764 163.801L542.787 20.8374L342.269 130.9L353.235 80.373L322.296 105.441V31.4128L241.619 94.0819L160.159 -69.2495L164.075 94.0819L32.0936 -65.3327Z" fill="#C9ECFF"/>
<path opacity="0.6" d="M88.8833 37.4313L124.929 133.198L-64.0522 27.1338L108.193 214.549L41.7668 208.436L93.0028 231.54L-34.9205 245.999L87.8535 265.006L61.5918 285.601L115.66 282.255L41.7668 350.476L134.713 305.939L65.4538 401.706L162.519 321.9L175.65 369.269L193.93 319.068L215.042 397.33L226.628 340.951L300.006 441.866L267.308 338.891L331.417 397.33L316.742 354.08L355.877 375.705L339.141 319.068L482.551 378.022L363.343 282.255L452.427 288.433L345.321 234.114L465.815 198.073L339.141 188.033L424.621 94.0676L292.797 166.408L300.006 133.198L279.667 149.674V101.018L226.628 142.209L173.075 34.8569L175.65 142.209L88.8833 37.4313Z" fill="#FFFB00"/>
</g>
</svg>
