<svg width="400" height="206" viewBox="0 0 400 206" fill="none" xmlns="http://www.w3.org/2000/svg">
<path fill-rule="evenodd" clip-rule="evenodd" d="M393.009 137.881C393.009 137.883 393.01 137.886 393.011 137.888L393.009 137.881Z" fill="white"/>
<path d="M347.058 0.568604C359.262 0.785866 370.885 4.33782 380.139 12.5413L380.592 12.9485L380.628 12.9827L380.665 13.0159L380.951 13.2795L381.036 13.3586C390.872 22.563 395.251 34.813 395.251 47.9563V81.5676C395.251 86.2905 395.533 100.223 386.494 112.704C383.666 116.608 383.727 122.21 386.636 126.054C389.218 129.466 391.286 133.265 392.817 137.38L392.823 137.394C392.831 137.413 392.839 137.431 392.846 137.449C392.894 137.573 392.938 137.687 392.976 137.789C392.987 137.819 392.997 137.848 393.006 137.874L393.008 137.879L393.009 137.881L393.011 137.888L393.025 137.928C393.036 137.956 393.046 137.984 393.049 137.992C393.096 138.127 393.135 138.253 393.169 138.356H393.172C394.477 142.26 395.612 146.903 395.802 151C396.177 159.089 395.685 166.933 392.711 174.571C389.417 183.471 383.553 190.784 375.673 196.038L375.608 196.081L375.544 196.123L375.037 196.454L374.974 196.496L374.909 196.537C366.579 201.864 356.948 204.249 347.368 204.249C341.429 204.249 330.123 201.452 330.123 201.452L30.4883 202.754C22.8701 202.754 17.1311 200.706 11.6934 195.398C6.1383 189.975 4.0001 183.035 4 176.415V159.409C4.00003 152.761 6.18078 145.847 11.7402 140.464C11.883 140.326 12.0267 140.19 12.1713 140.056C16.835 135.742 19.6159 127.339 16.2295 121.963C8.50046 109.694 4.05273 95.041 4.05273 79.5334C4.05294 38.0667 35.8461 2.70744 77.165 2.70728C97.0323 2.70728 114.778 10.9631 127.796 24.1068C131.658 28.006 138.339 27.9164 142.083 23.9034C155.434 9.59018 174.065 0.557861 195.078 0.557861C196.308 0.557868 197.52 0.590653 198.709 0.651611L199.892 0.721924L199.966 0.726807L200.041 0.732666C200.513 0.768825 201.126 0.816043 201.76 0.874268C202.412 0.934215 203.076 1.00431 203.741 1.08716L203.761 1.08959C204.207 1.14518 204.924 1.2344 205.679 1.35181C206.103 1.4178 206.539 1.48797 206.984 1.56372L208.351 1.80786L208.366 1.81079L208.381 1.81372C209.057 1.9426 209.758 2.08631 210.472 2.24536L211.188 2.40942L211.228 2.41919L211.268 2.42798L212.91 2.83325L212.926 2.83716L212.94 2.84106C214.102 3.14201 215.334 3.48934 216.597 3.89478L216.596 3.89575C216.985 4.01573 217.302 4.11875 217.437 4.16333L217.497 4.18286C218.836 4.6333 220.284 5.15346 221.78 5.76392L221.781 5.76294L221.834 5.78442L221.833 5.7854C222.689 6.1328 223.519 6.48896 224.321 6.84985L225.131 7.21899L225.134 7.21997C226.01 7.62561 226.838 8.03538 227.606 8.427L227.621 8.43384L227.636 8.44165C233.039 11.2101 238.101 14.6575 242.663 18.6643L243.413 19.3274C246.363 21.991 251.233 21.3339 253.692 18.2113C258.161 12.5359 264.083 8.06142 270.771 5.11646L270.882 5.06763L271.432 4.83032C278.399 1.8816 285.9 0.5579 293.524 0.557861L294.313 0.562744C301.625 0.649842 308.922 2.01255 315.615 4.92447C318.148 6.02621 321.044 6.01976 323.575 4.91374C330.475 1.89767 338.06 0.557872 345.855 0.557861L347.058 0.568604Z" fill="white"/>
<path d="M30.488 149.176C27.3227 149.176 24.7859 150.104 22.87 151.959C20.9541 153.814 20 156.295 20 159.41V176.415C20 179.567 20.9541 182.078 22.87 183.948C24.7859 185.819 27.3227 186.754 30.488 186.754C33.6533 186.754 36.1977 185.819 38.1287 183.948C40.0597 182.078 41.029 179.567 41.029 176.415V175.887C41.029 175.713 40.9684 175.563 40.8473 175.442C40.7261 175.321 40.5747 175.261 40.4005 175.261L34.2364 174.997C34.0623 174.997 33.9108 175.057 33.7896 175.178C33.6685 175.299 33.6079 175.45 33.6079 175.623V177.041C33.6079 178.059 33.3277 178.873 32.7674 179.484C32.207 180.095 31.4497 180.404 30.5032 180.404C29.5566 180.404 28.8523 180.095 28.292 179.484C27.7316 178.873 27.4514 178.059 27.4514 177.041V158.934C27.4514 157.916 27.7316 157.094 28.292 156.468C28.8523 155.835 29.5944 155.526 30.5032 155.526C31.4119 155.526 32.207 155.843 32.7674 156.468C33.3277 157.094 33.6079 157.924 33.6079 158.934V160.299C33.6079 160.684 33.8199 160.88 34.2364 160.88L40.4005 160.616C40.5747 160.616 40.7261 160.556 40.8473 160.435C40.9684 160.314 41.029 160.164 41.029 159.99V159.41C41.029 156.295 40.0749 153.814 38.159 151.959C36.2432 150.104 33.6912 149.176 30.488 149.176Z" fill="#103972"/>
<path d="M54.387 149.176C51.1535 149.176 48.5713 150.119 46.6403 152.012C44.7093 153.905 43.74 156.423 43.74 159.568V176.362C43.74 179.514 44.7093 182.033 46.6403 183.918C48.5713 185.811 51.1535 186.754 54.387 186.754C57.6205 186.754 60.2103 185.811 62.1641 183.918C64.1178 182.025 65.0871 179.507 65.0871 176.362V159.568C65.0871 156.416 64.1102 153.897 62.1641 152.012C60.2179 150.119 57.6205 149.176 54.387 149.176ZM57.6508 176.686C57.6508 177.81 57.3479 178.707 56.7572 179.386C56.159 180.065 55.3715 180.412 54.387 180.412C53.4026 180.412 52.6226 180.072 52.0395 179.386C51.4565 178.707 51.1687 177.802 51.1687 176.686V159.259C51.1687 158.143 51.4565 157.238 52.0395 156.559C52.6226 155.88 53.4026 155.533 54.387 155.533C55.3715 155.533 56.159 155.873 56.7572 156.559C57.3555 157.238 57.6508 158.143 57.6508 159.259V176.686Z" fill="#103972"/>
<path d="M90.0463 149.599H83.9352C83.761 149.599 83.6096 149.659 83.4884 149.779C83.3673 149.9 83.3067 150.051 83.3067 150.224L83.3597 170.382C83.3597 170.487 83.3143 170.548 83.231 170.563C83.1401 170.578 83.0795 170.533 83.0492 170.435L76.4611 150.119C76.3551 149.772 76.1279 149.591 75.7795 149.591H68.8734C68.6992 149.591 68.5477 149.651 68.4266 149.772C68.3054 149.893 68.2448 150.043 68.2448 150.217V185.698C68.2448 185.871 68.3054 186.022 68.4266 186.143C68.5477 186.264 68.6992 186.324 68.8734 186.324H74.9844C75.1586 186.324 75.31 186.264 75.4312 186.143C75.5524 186.022 75.6129 185.871 75.6129 185.698L75.5599 165.54C75.5599 165.435 75.6054 165.375 75.6887 165.359C75.7795 165.344 75.8401 165.39 75.8704 165.488L82.4055 185.803C82.5116 186.15 82.7387 186.331 83.0871 186.331H90.0463C90.2204 186.331 90.3719 186.271 90.493 186.15C90.6142 186.03 90.6748 185.879 90.6748 185.705V150.224C90.6748 150.051 90.6142 149.9 90.493 149.779C90.3719 149.659 90.2204 149.599 90.0463 149.599Z" fill="#103972"/>
<path d="M112.885 149.599H94.8624C94.6883 149.599 94.5368 149.659 94.4156 149.779C94.2945 149.9 94.2339 150.051 94.2339 150.224V185.705C94.2339 185.879 94.2945 186.03 94.4156 186.15C94.5368 186.271 94.6883 186.331 94.8624 186.331H101.026C101.201 186.331 101.352 186.271 101.473 186.15C101.594 186.03 101.655 185.879 101.655 185.705V171.377C101.655 171.204 101.746 171.113 101.92 171.113H108.19C108.364 171.113 108.516 171.053 108.637 170.932C108.758 170.812 108.819 170.661 108.819 170.487V165.397C108.819 165.224 108.758 165.073 108.637 164.952C108.516 164.832 108.364 164.771 108.19 164.771H101.92C101.746 164.771 101.655 164.688 101.655 164.507V156.212C101.655 156.039 101.746 155.948 101.92 155.948H112.885C113.059 155.948 113.211 155.888 113.332 155.767C113.453 155.647 113.514 155.496 113.514 155.322V150.232C113.514 150.059 113.453 149.908 113.332 149.787C113.211 149.666 113.059 149.606 112.885 149.606V149.599Z" fill="#103972"/>
<path d="M134.694 149.599H116.618C116.444 149.599 116.293 149.659 116.172 149.779C116.05 149.9 115.99 150.051 115.99 150.224V185.705C115.99 185.879 116.05 186.03 116.172 186.15C116.293 186.271 116.444 186.331 116.618 186.331H134.694C134.868 186.331 135.02 186.271 135.141 186.15C135.262 186.03 135.323 185.879 135.323 185.705V180.615C135.323 180.442 135.262 180.291 135.141 180.17C135.02 180.05 134.868 179.989 134.694 179.989H123.676C123.502 179.989 123.411 179.899 123.411 179.725V171.377C123.411 171.204 123.502 171.113 123.676 171.113H129.999C130.173 171.113 130.325 171.053 130.446 170.932C130.567 170.812 130.628 170.661 130.628 170.487V165.397C130.628 165.224 130.567 165.073 130.446 164.952C130.325 164.832 130.173 164.771 129.999 164.771H123.676C123.502 164.771 123.411 164.688 123.411 164.507V156.212C123.411 156.039 123.502 155.948 123.676 155.948H134.694C134.868 155.948 135.02 155.888 135.141 155.767C135.262 155.647 135.323 155.496 135.323 155.322V150.232C135.323 150.059 135.262 149.908 135.141 149.787C135.02 149.666 134.868 149.606 134.694 149.606V149.599Z" fill="#103972"/>
<path d="M154.701 170.125C154.663 170.058 154.663 169.997 154.701 169.945C154.739 169.892 154.792 169.846 154.86 169.816C156.268 168.942 157.366 167.72 158.154 166.144C158.941 164.568 159.343 162.75 159.343 160.684C159.343 158.512 158.926 156.589 158.101 154.907C157.276 153.226 156.109 151.921 154.595 150.994C153.08 150.066 151.361 149.606 149.43 149.606H138.783C138.609 149.606 138.458 149.666 138.337 149.787C138.215 149.908 138.155 150.059 138.155 150.232V185.713C138.155 185.886 138.215 186.037 138.337 186.158C138.458 186.279 138.609 186.339 138.783 186.339H144.947C145.122 186.339 145.273 186.279 145.394 186.158C145.515 186.037 145.576 185.886 145.576 185.713V171.385C145.576 171.211 145.667 171.121 145.841 171.121H147.636C147.742 171.121 147.825 171.189 147.901 171.332L151.96 185.819C152.066 186.165 152.308 186.346 152.694 186.346H159.017C159.403 186.346 159.6 186.173 159.6 185.819L159.547 185.607L154.701 170.125ZM150.884 164.168C150.195 165.028 149.309 165.458 148.226 165.458H145.856C145.682 165.458 145.591 165.375 145.591 165.194V156.22C145.591 156.046 145.682 155.956 145.856 155.956H148.226C149.317 155.956 150.203 156.386 150.884 157.245C151.566 158.105 151.914 159.266 151.914 160.737C151.914 162.207 151.573 163.316 150.884 164.176V164.168Z" fill="#103972"/>
<path d="M181 149.599H162.925C162.75 149.599 162.599 149.659 162.478 149.779C162.357 149.9 162.296 150.051 162.296 150.224V185.705C162.296 185.879 162.357 186.03 162.478 186.15C162.599 186.271 162.75 186.331 162.925 186.331H181C181.175 186.331 181.326 186.271 181.447 186.15C181.568 186.03 181.629 185.879 181.629 185.705V180.615C181.629 180.442 181.568 180.291 181.447 180.17C181.326 180.05 181.175 179.989 181 179.989H169.982C169.808 179.989 169.717 179.899 169.717 179.725V171.377C169.717 171.204 169.808 171.113 169.982 171.113H176.305C176.48 171.113 176.631 171.053 176.752 170.932C176.873 170.812 176.934 170.661 176.934 170.487V165.397C176.934 165.224 176.873 165.073 176.752 164.952C176.631 164.832 176.48 164.771 176.305 164.771H169.982C169.808 164.771 169.717 164.688 169.717 164.507V156.212C169.717 156.039 169.808 155.948 169.982 155.948H181C181.175 155.948 181.326 155.888 181.447 155.767C181.568 155.647 181.629 155.496 181.629 155.322V150.232C181.629 150.059 181.568 149.908 181.447 149.787C181.326 149.666 181.175 149.606 181 149.606V149.599Z" fill="#103972"/>
<path d="M206.285 149.599H200.174C200 149.599 199.849 149.659 199.727 149.779C199.606 149.9 199.546 150.051 199.546 150.224L199.599 170.382C199.599 170.487 199.553 170.548 199.47 170.563C199.379 170.578 199.318 170.533 199.288 170.435L192.7 150.119C192.594 149.772 192.367 149.591 192.018 149.591H185.112C184.938 149.591 184.787 149.651 184.666 149.772C184.544 149.893 184.484 150.043 184.484 150.217V185.698C184.484 185.871 184.544 186.022 184.666 186.143C184.787 186.264 184.938 186.324 185.112 186.324H191.223C191.398 186.324 191.549 186.264 191.67 186.143C191.791 186.022 191.852 185.871 191.852 185.698L191.799 165.54C191.799 165.435 191.844 165.375 191.928 165.359C192.011 165.344 192.079 165.39 192.109 165.488L198.644 185.803C198.75 186.15 198.978 186.331 199.326 186.331H206.285C206.459 186.331 206.611 186.271 206.732 186.15C206.853 186.03 206.914 185.879 206.914 185.705V150.224C206.914 150.051 206.853 149.9 206.732 149.779C206.611 149.659 206.459 149.599 206.285 149.599Z" fill="#103972"/>
<path d="M220.567 149.176C217.402 149.176 214.865 150.104 212.949 151.959C211.033 153.814 210.079 156.295 210.079 159.41V176.415C210.079 179.567 211.033 182.078 212.949 183.948C214.865 185.819 217.402 186.754 220.567 186.754C223.732 186.754 226.277 185.819 228.208 183.948C230.139 182.078 231.108 179.567 231.108 176.415V175.887C231.108 175.713 231.047 175.563 230.926 175.442C230.805 175.321 230.654 175.261 230.48 175.261L224.315 174.997C224.141 174.997 223.99 175.057 223.869 175.178C223.748 175.299 223.687 175.45 223.687 175.623V177.041C223.687 178.059 223.407 178.873 222.846 179.484C222.286 180.095 221.529 180.404 220.582 180.404C219.636 180.404 218.931 180.095 218.371 179.484C217.811 178.873 217.53 178.059 217.53 177.041V158.934C217.53 157.916 217.811 157.094 218.371 156.468C218.931 155.835 219.674 155.526 220.582 155.526C221.491 155.526 222.286 155.843 222.846 156.468C223.407 157.094 223.687 157.924 223.687 158.934V160.299C223.687 160.684 223.899 160.88 224.315 160.88L230.48 160.616C230.654 160.616 230.805 160.556 230.926 160.435C231.047 160.314 231.108 160.164 231.108 159.99V159.41C231.108 156.295 230.146 153.814 228.238 151.959C226.322 150.104 223.763 149.176 220.567 149.176Z" fill="#103972"/>
<path d="M252.766 149.599H234.69C234.516 149.599 234.364 149.659 234.243 149.779C234.122 149.9 234.061 150.051 234.061 150.224V185.705C234.061 185.879 234.122 186.03 234.243 186.15C234.364 186.271 234.516 186.331 234.69 186.331H252.766C252.94 186.331 253.091 186.271 253.212 186.15C253.334 186.03 253.394 185.879 253.394 185.705V180.615C253.394 180.442 253.334 180.291 253.212 180.17C253.091 180.05 252.94 179.989 252.766 179.989H241.748C241.573 179.989 241.482 179.899 241.482 179.725V171.377C241.482 171.204 241.573 171.113 241.748 171.113H248.071C248.245 171.113 248.396 171.053 248.517 170.932C248.639 170.812 248.699 170.661 248.699 170.487V165.397C248.699 165.224 248.639 165.073 248.517 164.952C248.396 164.832 248.245 164.771 248.071 164.771H241.748C241.573 164.771 241.482 164.688 241.482 164.507V156.212C241.482 156.039 241.573 155.948 241.748 155.948H252.766C252.94 155.948 253.091 155.888 253.212 155.767C253.334 155.647 253.394 155.496 253.394 155.322V150.232C253.394 150.059 253.334 149.908 253.212 149.787C253.091 149.666 252.94 149.606 252.766 149.606V149.599Z" fill="#103972"/>
<path d="M234.788 123.876C235.129 123.536 235.47 123.197 235.803 122.85C246.655 111.591 253.402 95.883 253.402 78.5309C253.402 75.8236 253.235 73.1541 252.917 70.5373C252.826 69.7983 252.728 69.0592 252.614 68.3277C252.455 67.3021 252.266 66.2841 252.061 65.2736C251.993 64.9568 251.925 64.6326 251.857 64.3159C251.562 62.966 251.221 61.6387 250.835 60.3266C250.494 59.1502 250.123 57.9888 249.714 56.8426C249.176 55.3193 248.586 53.8261 247.942 52.3632C247.745 51.9107 247.541 51.4582 247.329 51.0058C247.223 50.7795 247.116 50.5608 247.01 50.3346C246.874 50.0556 246.738 49.7765 246.594 49.4975C246.291 48.8942 245.981 48.2909 245.663 47.7027C244.595 45.727 243.429 43.8266 242.164 42.0016C241.21 40.6216 240.21 39.2868 239.158 37.9973C238.855 37.6202 238.544 37.2507 238.226 36.8812C237.287 35.7802 236.303 34.7169 235.296 33.6913C234.448 32.8392 233.584 32.0096 232.691 31.2027C232.517 31.0444 232.335 30.886 232.153 30.7276C231.434 30.0942 230.699 29.4834 229.949 28.8876C226.951 26.5046 223.74 24.4233 220.34 22.6813C219.704 22.357 219.06 22.0403 218.409 21.7386C217.546 21.3389 216.667 20.9543 215.774 20.5924C214.668 20.1399 213.54 19.7327 212.396 19.3481C212.169 19.2727 211.942 19.1973 211.707 19.1294C210.791 18.8353 209.859 18.5713 208.928 18.33C208.459 18.2094 207.989 18.0963 207.52 17.9831C206.815 17.8172 206.096 17.6664 205.384 17.5307C204.665 17.3949 203.945 17.2743 203.218 17.1612C202.734 17.0857 202.249 17.0254 201.764 16.9651C201.28 16.9048 200.788 16.852 200.295 16.8067C199.803 16.7615 199.311 16.7238 198.819 16.6861C197.584 16.6031 196.335 16.5579 195.078 16.5579C162.925 16.5579 136.761 44.362 136.761 78.5309C136.761 81.0722 136.905 83.5759 137.186 86.0343C137.284 86.9015 137.398 87.7688 137.534 88.6209C138.405 94.2692 140.002 99.6611 142.221 104.691C142.418 105.144 142.623 105.596 142.835 106.048C143.569 107.617 144.364 109.148 145.22 110.641C145.462 111.071 145.712 111.493 145.962 111.908C147.605 114.63 149.445 117.209 151.46 119.623C151.77 119.992 152.081 120.362 152.399 120.724C152.558 120.905 152.717 121.085 152.876 121.266C153.194 121.628 153.527 121.983 153.853 122.33C154.019 122.503 154.186 122.677 154.353 122.85C154.686 123.197 155.026 123.536 155.367 123.876C155.541 124.042 155.708 124.215 155.882 124.381C156.745 125.218 157.631 126.025 158.54 126.802C158.904 127.111 159.275 127.42 159.646 127.722C160.017 128.023 160.388 128.325 160.766 128.612C162.281 129.78 163.841 130.881 165.461 131.892C165.863 132.148 166.272 132.397 166.681 132.639C166.885 132.759 167.09 132.88 167.294 133C168.536 133.717 169.801 134.388 171.095 135.006C171.307 135.112 171.527 135.21 171.747 135.316C172.83 135.821 173.928 136.288 175.048 136.726C175.942 137.073 176.843 137.397 177.759 137.699C179.085 138.136 180.425 138.528 181.788 138.86C182.303 138.988 182.825 139.109 183.348 139.222C183.825 139.328 184.294 139.426 184.779 139.516C185.021 139.561 185.256 139.607 185.499 139.652C186.218 139.78 186.945 139.893 187.672 139.991C187.914 140.021 188.156 140.059 188.406 140.082C188.891 140.142 189.383 140.195 189.875 140.24C190.625 140.308 191.375 140.368 192.132 140.406C192.867 140.444 193.601 140.474 194.343 140.481C194.593 140.481 194.843 140.481 195.093 140.481C196.35 140.481 197.599 140.429 198.834 140.346C200.318 140.248 201.787 140.089 203.241 139.87C203.968 139.765 204.687 139.637 205.407 139.501C206.126 139.365 206.838 139.214 207.542 139.048C208.012 138.935 208.481 138.822 208.951 138.702C211.291 138.091 213.57 137.337 215.789 136.439C216.455 136.168 217.114 135.889 217.765 135.595C218.636 135.203 219.499 134.788 220.347 134.35C223.748 132.608 226.966 130.527 229.957 128.144C230.707 127.548 231.441 126.937 232.161 126.304C232.524 125.987 232.88 125.671 233.228 125.339C233.584 125.014 233.933 124.683 234.273 124.351C234.448 124.185 234.622 124.019 234.788 123.846V123.876ZM144.743 76.7059C144.713 77.7164 143.895 78.5384 142.88 78.5384C141.865 78.5384 141.04 77.7164 141.07 76.7059C141.956 46.4283 164.795 21.9573 193.124 20.8714C194.199 20.8337 195.078 21.7085 195.078 22.7793C195.078 23.8501 194.199 24.7249 193.124 24.7626C166.825 25.841 145.629 48.57 144.743 76.6984V76.7059ZM152.709 76.6984C152.671 77.7089 151.854 78.5309 150.839 78.5309C149.824 78.5309 148.999 77.7089 149.029 76.6984C149.907 50.9228 169.187 30.1093 193.132 29.0309C194.207 28.9856 195.085 29.8604 195.085 30.9313C195.085 32.0021 194.207 32.8693 193.132 32.9221C171.217 34.0005 153.588 53.0645 152.717 76.6909L152.709 76.6984ZM160.676 76.7059C160.63 77.7164 159.812 78.5384 158.798 78.5384C157.783 78.5384 156.95 77.7164 156.995 76.7059C157.859 55.4399 173.572 38.2839 193.124 37.2055C194.207 37.1452 195.078 38.0275 195.078 39.0983C195.078 40.1691 194.199 41.0439 193.117 41.1118C175.594 42.1826 161.524 57.5892 160.668 76.7059H160.676ZM223.891 88.4022C223.785 88.7717 223.679 89.1337 223.558 89.4957C222.642 92.3613 221.385 95.0535 219.833 97.5044C219.674 97.7532 219.514 98.0021 219.348 98.2434C213.85 106.441 205.021 111.765 195.078 111.765C190.973 111.765 187.066 110.86 183.499 109.216C183.227 109.088 182.947 108.959 182.682 108.824C178.448 106.712 174.738 103.56 171.815 99.6611C171.504 99.2539 171.209 98.8316 170.921 98.4018C170.49 97.7608 170.073 97.1047 169.679 96.4335C168.892 95.0837 168.195 93.6735 167.589 92.1954C167.491 91.9541 167.392 91.7052 167.294 91.4564C167.105 90.9587 166.923 90.4534 166.756 89.9482C166.673 89.6918 166.59 89.4354 166.506 89.179C165.87 87.1202 165.416 84.971 165.166 82.7615C165.068 81.9319 165 81.0873 164.962 80.2427C164.947 79.9637 164.939 79.6771 164.931 79.3906V78.5309C164.924 60.2135 178.456 45.2971 195.085 45.2971C211.722 45.2971 225.254 60.2059 225.254 78.5309C225.254 81.9621 224.777 85.2802 223.899 88.4022H223.891Z" fill="#103972"/>
<path d="M131.324 91.6826V80.5067C131.324 75.801 127.493 71.9852 122.767 71.9852H88.5318C83.8065 71.9852 79.9747 75.801 79.9747 80.5067V90.4534C79.9747 95.1591 83.8065 98.9749 88.5318 98.9749H96.9525C98.1035 98.9749 98.7699 100.257 98.0278 101.139C92.8178 107.33 85.3967 111.161 77.1729 111.161C61.4598 111.161 48.6773 96.9765 48.6773 79.5414C48.6773 62.1063 61.4598 47.9214 77.1729 47.9214C85.5633 47.9214 93.1283 51.971 98.3458 58.4036C98.8002 58.9616 99.4741 59.3085 100.201 59.3085C102.003 59.3085 103.079 57.3554 101.958 55.9452C95.9377 48.3664 87.0627 43.5777 77.1729 43.5777C59.029 43.5777 44.3307 59.6781 44.3307 79.5263C44.3307 99.3746 59.0366 115.475 77.1729 115.475C88.4182 115.475 98.3534 109.359 104.268 99.9251C104.639 99.3369 105.275 98.9674 105.971 98.9674C107.433 98.9674 108.364 100.498 107.607 101.735C101.042 112.436 89.8494 119.442 77.1729 119.442C56.9996 119.442 40.5898 101.539 40.5898 79.5263C40.5898 57.5138 56.9996 39.6111 77.1729 39.6111C90.1447 39.6111 101.557 47.009 108.054 58.1397C108.47 58.8485 109.22 59.301 110.045 59.301C111.689 59.301 112.764 57.5967 111.946 56.1714C104.722 43.6305 91.8485 35.2825 77.1729 35.2825C54.5612 35.2825 36.2356 55.093 36.2356 79.5263C36.2356 103.96 54.5612 123.77 77.1729 123.77C92.9466 123.77 106.638 114.2 113.476 100.076C113.801 99.3972 114.483 98.9523 115.24 98.9523C116.603 98.9523 117.527 100.325 116.944 101.554C109.53 117.119 94.4838 127.722 77.1805 127.722C52.5469 127.722 32.5023 106.101 32.5023 79.5188C32.5023 52.9363 52.5469 31.3159 77.1805 31.3159C94.6428 31.3159 109.796 42.1751 117.141 57.9662C117.512 58.7731 118.315 59.301 119.201 59.301C120.761 59.301 121.836 57.74 121.185 56.3222C113.188 38.9399 96.4905 26.9797 77.1805 26.9797C50.101 26.9797 28.1481 50.5005 28.1481 79.5188C28.1481 108.537 50.101 132.058 77.1805 132.058C97.4371 132.058 114.824 118.966 122.298 100.197C122.593 99.4575 123.297 98.9598 124.1 98.9598C125.403 98.9598 126.319 100.234 125.842 101.441C117.845 121.772 99.05 136.009 77.188 136.009C48.0942 136.009 24.43 110.664 24.43 79.5112C24.43 48.3588 48.0715 23.0357 77.1653 23.0357C99.0879 23.0357 117.936 37.4317 125.887 57.8531C126.228 58.7203 127.053 59.3085 127.992 59.3085C129.499 59.3085 130.559 57.838 130.022 56.4429C121.488 34.2946 101.034 18.7071 77.1653 18.7071C45.618 18.7071 20.053 45.9381 20.053 79.5339C20.053 113.13 45.6256 140.361 77.1653 140.361C99.9133 140.361 119.549 126.266 128.735 105.785C130.711 101.373 131.324 96.5089 131.324 91.6826Z" fill="#103972"/>
<path fill-rule="evenodd" clip-rule="evenodd" d="M261.027 42.1837L261.029 42.1508C261.311 37.0648 262.969 32.4659 265.947 28.5145L265.949 28.5134C268.802 24.7352 272.598 21.7938 277.218 19.7593L277.668 19.5653C282.406 17.5601 287.745 16.5579 293.525 16.5579C299.944 16.5579 305.686 17.772 310.572 20.2116C314.19 22.0112 317.246 24.326 319.69 27.1132C320.312 26.3961 320.97 25.7078 321.663 25.0532L321.663 25.052C327.681 19.3781 335.87 16.5579 345.856 16.5579C355.685 16.5579 363.785 19.2836 369.818 24.7779L370.104 25.0414C376.203 30.7489 379.251 38.4998 379.251 47.9562V81.4899V81.5686C379.251 87.8226 379.252 101.34 366.502 110.088C356.363 117.041 344.8 116.264 339.301 115.346L339.226 126.609C342.545 125.247 346.172 124.573 350.056 124.573C356.548 124.573 362.369 126.238 367.321 129.548L367.322 129.549C372.279 132.87 375.841 137.48 377.92 143.22C377.949 143.284 377.965 143.33 377.967 143.336C377.975 143.358 377.981 143.378 377.986 143.392L377.988 143.4L377.995 143.421L377.997 143.429L377.999 143.434V143.435L378.442 144.97H378.417C379.466 148.793 380 152.572 380 156.222C380 160.823 379.253 165.084 377.761 168.872C375.675 174.599 371.974 179.274 366.796 182.727L366.289 183.058C360.878 186.518 354.33 188.25 347.368 188.25C340.402 188.25 334.143 186.561 328.784 183.196C328.436 182.979 328.094 182.753 327.757 182.522C327.661 183.405 327.337 184.306 326.694 185.046C325.798 186.08 324.556 186.65 323.179 186.65H266.124C264.879 186.65 263.738 186.182 262.859 185.312C261.982 184.452 261.514 183.321 261.514 182.091V170.553C261.514 169.001 262.091 167.588 263.18 166.51L263.19 166.5C267.295 162.528 271.515 158.162 275.752 153.52C280.166 148.69 282.745 145.878 283.855 144.697C286.223 141.94 288.674 139.256 291.15 136.725C295.658 131.772 298.348 128.065 299.905 125.335C301.472 122.588 301.844 120.914 301.844 120.007C301.844 117.931 301.138 116.352 299.695 115.067L299.552 114.944C298.067 113.688 296.129 113.029 293.517 113.029C290.821 113.029 288.851 113.73 287.348 115.067L287.346 115.068C285.917 116.334 285.198 117.982 285.198 120.259V123.266C285.198 124.343 284.865 125.486 284.076 126.382C283.177 127.409 281.942 127.959 280.588 127.959H266.379C265.143 127.959 263.994 127.497 263.118 126.625C263.115 126.622 263.111 126.619 263.108 126.616C262.234 125.756 261.768 124.627 261.768 123.399V95.3754C261.768 93.3592 263.206 92.0418 263.775 91.4924L263.945 91.3242C266.483 88.8633 268.768 86.2544 271.22 83.4554L271.447 83.197L273.541 80.8083C274.258 79.996 274.996 79.1694 275.761 78.3337C280.174 73.5044 282.753 70.6939 283.863 69.5126C286.231 66.7559 288.682 64.0717 291.157 61.5401C295.666 56.5877 298.356 52.8803 299.913 50.1503C301.48 47.4031 301.851 45.7293 301.851 44.823C301.851 42.7461 301.145 41.1675 299.701 39.8826C298.198 38.5468 296.221 37.8443 293.525 37.8443C290.829 37.8443 288.858 38.5458 287.355 39.8826L287.354 39.8843C285.925 41.1502 285.206 42.7977 285.206 45.0753V48.0821C285.206 49.1593 284.873 50.3016 284.084 51.1971C283.185 52.2249 281.95 52.7742 280.596 52.7743H265.637C264.401 52.7742 263.253 52.312 262.377 51.4405L262.372 51.4358C262.371 51.4342 262.369 51.4328 262.367 51.4311C261.493 50.5717 261.027 49.4429 261.027 48.215V42.1837ZM321.36 180.546H268.003C267.854 180.546 267.725 180.42 267.725 180.269V170.704C271.855 166.692 276.114 162.294 280.37 157.622C284.836 152.73 287.402 149.932 288.456 148.815C288.472 148.798 288.487 148.783 288.499 148.771C288.504 148.764 288.509 148.757 288.514 148.752L288.523 148.744L288.555 148.707C290.859 146.023 293.245 143.412 295.69 140.906L295.705 140.891L295.718 140.876C299.789 136.406 302.851 132.479 304.901 129.057C306.94 125.654 308.047 122.637 308.047 120.015C308.047 116.229 306.638 113.011 303.857 110.53L303.856 110.529L303.599 110.307C300.921 108.041 297.51 106.924 293.547 106.924C289.457 106.924 285.954 108.113 283.239 110.529C280.442 113.015 279.047 116.33 279.047 120.267V121.578C279.047 121.728 278.918 121.855 278.769 121.855H268.251C268.102 121.855 267.972 121.728 267.972 121.578V96.0182C268.017 95.9746 268.061 95.9311 268.103 95.8918L268.108 95.887L268.31 95.6947L268.314 95.6912L268.317 95.6883C271.068 93.0266 273.498 90.2451 276.02 87.358L276.15 87.2083C277.506 85.6595 278.898 84.0688 280.379 82.4425C284.843 77.5518 287.409 74.7547 288.464 73.6385C288.48 73.6211 288.495 73.6061 288.506 73.5932C288.511 73.5878 288.515 73.5822 288.52 73.5774L288.53 73.5674L288.562 73.5297C290.867 70.8455 293.253 68.2355 295.698 65.7289L295.712 65.7142L295.726 65.6989C299.797 61.2287 302.858 57.3016 304.909 53.8793C306.948 50.4763 308.055 47.4602 308.055 44.8383C308.055 41.052 306.645 37.8342 303.864 35.3532L303.863 35.3521C301.148 32.9366 297.645 31.7472 293.555 31.7472C289.464 31.7472 285.961 32.9366 283.246 35.3521C280.45 37.8386 279.055 41.1535 279.055 45.09V46.4008C279.055 46.5515 278.925 46.6777 278.776 46.6777H267.509C267.36 46.6777 267.231 46.5515 267.23 46.4008V42.4266C267.462 38.5594 268.709 35.1246 270.926 32.1906C273.197 29.1837 276.275 26.8359 280.124 25.2084C284.053 23.5486 288.566 22.6991 293.555 22.6991C299.08 22.6991 303.87 23.7234 307.821 25.6953C311.757 27.6599 314.793 30.3187 316.871 33.5655L316.875 33.572L316.895 33.619L316.938 33.689C316.947 33.7034 316.956 33.7213 316.978 33.7613C316.997 33.7953 317.029 33.8519 317.065 33.9113C317.626 34.8371 318.6 35.3738 319.699 35.3856H319.712C320.786 35.3856 321.791 34.8348 322.352 33.9107C323.342 32.3034 324.553 30.8254 325.945 29.5049C330.686 25.0315 337.346 22.6991 345.87 22.6991C354.394 22.6991 361.087 25.0391 365.867 29.516C370.685 34.0233 373.078 40.0145 373.078 47.9927V81.534C373.078 87.5987 373.056 98.2049 362.993 105.103C357.461 108.897 351.205 109.849 346.251 109.826C341.428 109.803 337.945 108.855 337.784 108.811L337.778 108.809L337.772 108.808L337.766 108.806L337.651 108.774C337.386 108.706 337.124 108.679 336.879 108.679C334.76 108.679 333.156 110.255 333.152 112.342L333.025 130.916V130.924C333.025 132.814 334.11 133.767 334.852 134.152C335.567 134.524 336.962 134.907 338.55 133.869C341.813 131.794 345.674 130.721 350.063 130.721C355.357 130.721 359.987 132.056 363.866 134.647C367.698 137.209 370.472 140.786 372.105 145.303C373.266 149.082 373.849 152.77 373.849 156.259C373.849 159.485 373.421 162.452 372.579 165.132L371.997 166.73C370.292 171.411 367.259 175.178 362.958 177.933C358.607 180.715 353.387 182.145 347.398 182.145C341.599 182.145 336.752 180.839 332.534 178.295L332.127 178.045C330.219 176.848 328.511 175.398 327.062 173.754C326.46 173.064 325.595 172.703 324.728 172.703C324.372 172.703 324 172.764 323.637 172.9C322.429 173.352 321.638 174.49 321.638 175.759V180.269C321.638 180.42 321.509 180.546 321.36 180.546Z" fill="#103972"/>
<path fill-rule="evenodd" clip-rule="evenodd" d="M361.381 81.9615L361.377 82.3637V82.3684L361.376 82.3737C361.295 86.6227 359.983 90.2376 357.408 93.019L357.154 93.2854C354.291 96.224 350.451 97.6688 345.863 97.6689H345.857L345.85 97.6683L345.456 97.6642H345.444C341.113 97.577 337.459 96.1268 334.697 93.2842C331.956 90.4692 330.56 86.7664 330.476 82.3743V82.3626L330.472 81.9597V47.4599C330.472 42.8895 331.866 39.0303 334.698 36.123C337.555 33.1917 341.264 31.7401 345.863 31.7401H345.876L346.278 31.7442H346.289C350.691 31.8313 354.382 33.2776 357.154 36.123L357.156 36.1242C359.986 39.0378 361.381 42.8885 361.381 47.4599V81.9615ZM354.677 47.4599V81.9492C354.677 85.1248 353.748 87.2282 352.329 88.6873L352.189 88.8278C350.797 90.1852 348.84 91.0448 345.863 91.0449C342.906 91.0449 340.945 90.1505 339.533 88.6967L339.524 88.6879L339.517 88.6802L339.383 88.5397C338.046 87.0901 337.176 85.0292 337.176 81.9492V47.4599C337.176 44.2808 338.107 42.1756 339.528 40.7165L339.559 40.6847C340.99 39.2312 342.868 38.3642 345.863 38.3642C348.931 38.3643 350.92 39.2766 352.323 40.7153C353.75 42.1865 354.677 44.2883 354.677 47.4599Z" fill="#103972"/>
<path fill-rule="evenodd" clip-rule="evenodd" d="M318.783 81.067C318.783 85.2253 319.437 88.9375 320.704 92.1122L320.706 92.1175C320.938 92.7077 320.981 93.3524 320.83 93.9605L321.009 94.124L320.298 95.0837L320.286 95.0996L320.274 95.1149C319.691 95.85 318.796 96.291 317.834 96.2911H288.833L288.813 96.2905L288.614 96.284L288.595 96.2828C287.304 96.2019 286.162 95.507 285.581 94.3434C284.881 92.9814 285.209 91.3883 286.291 90.318L288.173 88.4562L301.701 74.6959C304.289 71.994 306.752 69.2259 309.038 66.4464L310.018 65.242L310.029 65.2291C311.126 63.9181 312.15 62.5988 313.109 61.2855C313.719 60.4411 314.777 59.8107 315.979 59.9241L316.096 59.9376L316.122 59.9411L316.148 59.9458L316.323 59.977L316.352 59.9823L316.38 59.9888C317.796 60.3105 318.783 61.5566 318.783 62.9674V81.067ZM306.561 79.2581C308.469 77.2665 310.314 75.2367 312.079 73.1886V81.067C312.079 84.0542 312.371 86.9368 312.978 89.667H296.33L306.529 79.2928L306.542 79.2787L306.561 79.2581Z" fill="#103972"/>
<path fill-rule="evenodd" clip-rule="evenodd" d="M321.456 146.306C321.456 146.701 321.78 147.019 322.176 147.019H322.181L333.238 147.064H333.24C334.147 147.069 334.99 146.65 335.521 145.934L335.883 145.459C336.78 144.304 338.042 142.884 339.385 142.058L339.415 142.041L339.679 141.888L339.696 141.878L339.713 141.87C342.192 140.544 344.855 139.873 347.78 139.873H347.799L348.307 139.881H348.317L348.327 139.882C350.923 139.966 353.303 140.652 355.383 141.939H355.404L355.712 142.142C358.073 143.705 359.679 145.937 360.478 148.732C361.352 150.99 361.778 153.509 361.778 156.222C361.778 159.221 361.287 161.841 360.255 163.956C359.204 166.688 357.538 168.901 355.287 170.494C352.973 172.136 350.181 172.949 347.278 172.949H347.257L346.76 172.941L346.749 172.94H346.739C344.233 172.857 341.949 172.185 339.96 170.921L339.94 170.908L339.561 170.656L339.551 170.649L339.54 170.643C337.32 169.105 335.675 166.93 334.625 164.213C334.612 164.181 334.6 164.153 334.592 164.132L334.515 163.943C334.477 163.858 334.426 163.749 334.356 163.614L334.273 163.452C333.989 163.001 333.504 162.709 332.963 162.668L332.804 162.663H323.853C322.726 162.663 321.929 163.733 322.236 164.751C322.474 165.528 322.732 166.284 323.016 167.016L323.136 167.291L323.138 167.297L323.139 167.301C323.508 168.239 323.387 169.298 322.81 170.131L322.811 170.131C322.276 170.914 321.402 171.404 320.45 171.463L320.431 171.464L320.412 171.464L320.278 171.468H288.833L288.813 171.468L288.614 171.461L288.595 171.46C287.304 171.379 286.162 170.683 285.581 169.52C284.881 168.158 285.21 166.566 286.291 165.495L288.167 163.64L310.053 140.377C312.289 137.682 314.168 135.104 315.652 132.678C316.232 131.73 317.349 130.981 318.658 131.11C320.267 131.268 321.456 132.599 321.456 134.153V146.306ZM340.211 160.367C338.738 157.695 335.904 156.039 332.829 156.039H323.853C318.999 156.039 315.139 160.139 315.478 164.844H296.187L314.752 145.112V146.306C314.752 150.345 318.058 153.631 322.153 153.643L333.203 153.688L333.404 153.689L333.413 153.685C336.376 153.637 339.159 152.234 340.928 149.85C341.378 149.244 341.819 148.724 342.195 148.333C342.383 148.137 342.547 147.981 342.681 147.866C342.748 147.809 342.803 147.766 342.845 147.735C342.882 147.708 342.903 147.695 342.909 147.692C344.393 146.899 345.956 146.497 347.78 146.497C349.522 146.497 350.885 146.93 351.986 147.654L352.12 147.743C353.025 148.383 353.669 149.255 354.038 150.568L354.038 150.57L354.094 150.768L354.11 150.824L354.131 150.877L354.206 151.07C354.75 152.465 355.074 154.175 355.074 156.222C355.074 158.586 354.676 160.152 354.207 161.104L354.119 161.281L354.093 161.333L354.073 161.387L354.003 161.571C353.379 163.21 352.479 164.329 351.398 165.098L351.396 165.1L351.379 165.113C350.308 165.872 348.913 166.325 347.278 166.325C345.624 166.325 344.381 165.906 343.39 165.219C342.406 164.537 341.551 163.516 340.927 161.946V161.772L340.349 160.629L340.211 160.367Z" fill="#103972"/>
</svg>
