<svg width="400" height="206" viewBox="0 0 400 206" fill="none" xmlns="http://www.w3.org/2000/svg">
<rect x="23" y="29" width="350" height="166" fill="white"/>
<path d="M381.215 48.667C381.215 39.3359 378.24 31.8035 372.375 26.2725C366.54 20.7791 358.598 17.9864 348.77 17.9863C338.941 17.9863 331.014 20.7784 325.224 26.2793V26.2793C323.672 27.7577 321.107 27.7612 319.538 26.3019C317.562 24.4651 315.259 22.883 312.646 21.5684C307.928 19.1905 302.327 17.9863 296.009 17.9863C290.324 17.9863 285.108 18.9802 280.503 20.9443C275.83 22.9385 272.017 25.8659 269.187 29.6436C266.333 33.4587 264.741 37.8911 264.469 42.835V48.9307C264.469 49.8637 264.816 50.6992 265.465 51.3389C266.114 51.9936 266.953 52.3398 267.889 52.3398H282.972C283.9 52.3398 284.738 51.9934 285.395 51.3389C286.051 50.6842 286.398 49.8485 286.398 48.9229V45.7402C286.398 43.129 287.244 41.1039 288.973 39.5537C290.754 37.9508 293.057 37.1689 296.017 37.1689C298.976 37.169 301.278 37.9509 303.067 39.5537C304.804 41.1039 305.642 42.9634 305.642 45.4844C305.641 48.0054 303.709 53.1531 294.537 63.2969C292.046 65.8629 289.577 68.5864 287.191 71.3857C286.089 72.5672 283.485 75.4198 279.016 80.3564C277.483 82.0496 276.064 83.6905 274.683 85.2783C272.131 88.2206 269.731 90.9897 267.051 93.6084L266.877 93.7812C266.258 94.3832 265.224 95.3843 265.224 96.8516V125.327C265.224 126.26 265.571 127.096 266.221 127.735C266.87 128.39 267.708 128.736 268.644 128.736H282.972C283.9 128.736 284.738 128.39 285.395 127.735C286.051 127.081 286.398 126.246 286.398 125.32V122.137C286.398 119.526 287.244 117.501 288.973 115.951C290.754 114.348 293.057 113.565 296.017 113.565C298.976 113.565 301.278 114.348 303.067 115.951C304.803 117.501 305.642 119.36 305.642 121.881C305.642 124.402 303.709 129.549 294.537 139.693C292.046 142.259 289.577 144.984 287.191 147.783C286.089 148.965 283.484 151.817 279.016 156.753C274.728 161.479 270.455 165.934 266.296 169.998C265.428 170.863 264.975 171.985 264.975 173.241V184.966C264.975 185.899 265.322 186.734 265.971 187.374C266.62 188.029 267.458 188.375 268.395 188.375H325.926C326.862 188.375 327.699 188.028 328.349 187.381C329.005 186.726 329.352 185.891 329.353 184.966V184.966C329.353 184.168 330.288 183.718 330.939 184.18C331.365 184.483 331.8 184.775 332.244 185.056C337.43 188.337 343.507 190 350.324 190C357.315 190 363.505 188.292 368.736 184.921C374.013 181.519 377.75 176.853 379.826 171.089C381.178 167.632 381.906 163.745 381.991 159.527L382 158.68C382 154.625 381.336 150.393 380.023 146.1C380.007 146.049 379.987 145.998 379.97 145.947V145.947C377.969 140.318 374.519 135.826 369.726 132.59C364.947 129.377 359.322 127.743 353.004 127.743C351.606 127.743 350.246 127.834 348.925 128.016C345.081 128.545 340.873 125.889 340.899 122.009V122.009C340.92 118.733 343.948 116.301 347.22 116.468C353.145 116.769 361.428 115.949 368.888 110.796C381.237 102.262 381.215 89.0785 381.215 82.7422V48.667ZM33.627 149.642C30.4488 149.642 27.9045 150.575 25.9795 152.441C24.0545 154.308 23.0957 156.806 23.0957 159.937V177.034C23.0958 180.201 24.0536 182.721 25.9767 184.602C25.9785 184.603 25.9795 184.606 25.9795 184.608V184.608C25.9795 184.611 25.9805 184.613 25.9823 184.615C27.8994 186.494 30.4505 187.434 33.627 187.434C36.8047 187.434 39.3637 186.493 41.3037 184.612C43.2438 182.731 44.2178 180.209 44.2178 177.041V176.515C44.2178 176.334 44.1576 176.184 44.0371 176.063C43.9088 175.936 43.7575 175.875 43.584 175.875L37.3936 175.611C37.2124 175.611 37.0612 175.679 36.9404 175.8C36.8122 175.928 36.752 176.078 36.752 176.251V177.674C36.7519 178.697 36.4724 179.51 35.9062 180.127C35.3476 180.744 34.5547 181.053 33.6338 181.053C32.713 181.053 31.9733 180.744 31.4072 180.127C30.9119 179.587 30.6365 178.897 30.5752 178.048L30.5615 177.674V159.47C30.5615 158.446 30.8411 157.618 31.4072 156.986C31.9733 156.354 32.6828 156.038 33.6338 156.038C34.5849 156.038 35.3401 156.354 35.9062 156.986C36.4724 157.626 36.7519 158.446 36.752 159.47V160.84C36.7521 161.223 36.9633 161.419 37.3857 161.419L43.5762 161.155C43.7573 161.155 43.9085 161.088 44.0293 160.968C44.1501 160.84 44.21 160.689 44.21 160.516V159.937C44.21 156.806 43.2512 154.308 41.3262 152.441C39.4013 150.575 36.8049 149.642 33.627 149.642ZM57.6328 149.642C54.3867 149.642 51.7897 150.598 49.8496 152.494C47.9095 154.398 46.9355 156.927 46.9355 160.095V176.981C46.9356 180.149 47.9096 182.686 49.8496 184.582C51.7897 186.486 54.3868 187.434 57.6328 187.434C60.8788 187.434 63.4833 186.478 65.4385 184.582C67.3936 182.678 68.375 180.149 68.375 176.981V160.095C68.375 156.927 67.3935 154.39 65.4385 152.494C63.4833 150.59 60.8788 149.642 57.6328 149.642ZM224.534 149.642C221.356 149.642 218.813 150.575 216.888 152.441C214.963 154.308 214.004 156.806 214.004 159.937V177.034C214.004 180.201 214.962 182.721 216.885 184.602C216.887 184.603 216.888 184.606 216.888 184.608V184.608C216.888 184.611 216.889 184.613 216.89 184.615C218.808 186.494 221.358 187.434 224.534 187.434C227.712 187.434 230.272 186.494 232.212 184.612C234.152 182.731 235.126 180.209 235.126 177.041V176.515C235.126 176.334 235.065 176.184 234.944 176.063C234.816 175.936 234.665 175.875 234.491 175.875L228.302 175.611C228.121 175.611 227.969 175.679 227.849 175.8C227.72 175.928 227.66 176.078 227.66 176.251V177.674C227.66 178.697 227.381 179.51 226.814 180.127C226.256 180.744 225.463 181.053 224.542 181.053C223.621 181.053 222.882 180.744 222.315 180.127C221.82 179.587 221.544 178.897 221.482 178.048L221.47 177.674V159.47C221.47 158.446 221.749 157.618 222.315 156.986C222.882 156.354 223.591 156.038 224.542 156.038C225.493 156.038 226.248 156.354 226.814 156.986C227.381 157.626 227.66 158.446 227.66 159.47V160.84C227.66 161.223 227.871 161.419 228.294 161.419L234.484 161.155C234.665 161.155 234.816 161.088 234.937 160.968C235.057 160.84 235.118 160.689 235.118 160.516V159.937C235.118 156.806 234.159 154.308 232.234 152.441C230.309 150.575 227.712 149.642 224.534 149.642ZM120.131 150.086C119.95 150.086 119.798 150.154 119.678 150.274C119.55 150.402 119.489 150.553 119.489 150.726V186.396C119.489 186.576 119.55 186.726 119.678 186.847C119.806 186.975 119.957 187.035 120.131 187.035H138.286C138.467 187.035 138.611 186.975 138.739 186.847C138.868 186.719 138.928 186.569 138.928 186.396V181.278C138.928 181.098 138.86 180.947 138.739 180.826C138.611 180.698 138.46 180.639 138.286 180.639H127.22C127.046 180.639 126.955 180.548 126.955 180.375V171.984C126.955 171.811 127.046 171.721 127.22 171.721H133.576C133.757 171.721 133.901 171.654 134.029 171.533C134.15 171.405 134.21 171.254 134.21 171.081V165.964C134.21 165.784 134.15 165.633 134.029 165.513C133.901 165.385 133.75 165.324 133.576 165.324H127.22C127.046 165.324 126.955 165.234 126.955 165.062V156.723C126.955 156.55 127.046 156.46 127.22 156.46H138.286C138.463 156.46 138.612 156.395 138.731 156.279C138.734 156.276 138.739 156.279 138.739 156.283V156.283C138.739 156.287 138.744 156.289 138.747 156.286C138.87 156.16 138.928 156.012 138.928 155.843V150.726C138.928 150.545 138.86 150.395 138.739 150.274C138.611 150.146 138.46 150.086 138.286 150.086H120.131ZM166.641 150.086C166.46 150.086 166.308 150.154 166.188 150.274C166.059 150.402 165.999 150.553 165.999 150.726V186.396C165.999 186.576 166.059 186.726 166.188 186.847C166.316 186.975 166.467 187.035 166.641 187.035H184.796C184.977 187.035 185.121 186.975 185.249 186.847C185.377 186.719 185.437 186.569 185.438 186.396V181.278C185.438 181.098 185.37 180.947 185.249 180.826C185.121 180.698 184.969 180.639 184.796 180.639H173.729C173.556 180.639 173.465 180.548 173.465 180.375V171.984C173.465 171.811 173.556 171.721 173.729 171.721H180.086C180.267 171.721 180.41 171.653 180.538 171.533C180.659 171.405 180.72 171.254 180.72 171.081V165.964C180.72 165.783 180.659 165.633 180.538 165.513C180.41 165.385 180.259 165.324 180.086 165.324H173.729C173.556 165.324 173.465 165.234 173.465 165.062V156.723C173.465 156.55 173.556 156.46 173.729 156.46H184.796C184.973 156.46 185.122 156.395 185.241 156.279C185.244 156.276 185.249 156.279 185.249 156.283V156.283C185.249 156.287 185.254 156.289 185.257 156.286C185.38 156.16 185.437 156.012 185.438 155.843V150.726C185.438 150.545 185.37 150.395 185.249 150.274C185.121 150.146 184.97 150.086 184.796 150.086H166.641ZM238.712 150.086C238.531 150.086 238.38 150.154 238.259 150.274C238.131 150.402 238.07 150.553 238.07 150.726V186.396C238.07 186.576 238.13 186.726 238.259 186.847C238.387 186.975 238.538 187.035 238.712 187.035H256.867C257.048 187.035 257.192 186.975 257.32 186.847C257.448 186.719 257.509 186.568 257.509 186.396V181.278C257.509 181.098 257.441 180.947 257.32 180.826C257.192 180.698 257.041 180.639 256.867 180.639H245.8C245.626 180.639 245.536 180.548 245.536 180.375V171.984C245.536 171.811 245.626 171.721 245.8 171.721H252.156C252.337 171.721 252.481 171.654 252.609 171.533C252.73 171.405 252.79 171.254 252.79 171.081V165.964C252.79 165.783 252.73 165.633 252.609 165.513C252.481 165.385 252.33 165.324 252.156 165.324H245.8C245.626 165.324 245.536 165.234 245.536 165.062V156.723C245.536 156.55 245.627 156.46 245.8 156.46H256.867L256.997 156.447C257.118 156.423 257.223 156.365 257.312 156.279C257.315 156.276 257.32 156.279 257.32 156.283V156.283C257.32 156.287 257.325 156.289 257.328 156.286C257.451 156.16 257.509 156.012 257.509 155.843V150.726C257.509 150.545 257.441 150.395 257.32 150.274C257.192 150.147 257.041 150.086 256.867 150.086H238.712ZM98.2764 150.078C98.0953 150.078 97.944 150.146 97.8232 150.267C97.6951 150.394 97.6348 150.545 97.6348 150.718V186.388L97.6465 186.518C97.6695 186.642 97.727 186.75 97.8232 186.84C97.9515 186.968 98.1028 187.027 98.2764 187.027H104.467C104.648 187.027 104.799 186.968 104.92 186.84C105.041 186.712 105.101 186.561 105.101 186.388V171.984C105.101 171.811 105.192 171.721 105.365 171.721H111.661C111.842 171.721 111.993 171.654 112.114 171.533C112.243 171.405 112.303 171.254 112.303 171.081V165.964C112.303 165.783 112.235 165.633 112.114 165.513C111.986 165.385 111.835 165.324 111.661 165.324H105.365C105.192 165.324 105.101 165.234 105.101 165.062V156.723C105.101 156.55 105.192 156.46 105.365 156.46H116.379C116.558 156.46 116.7 156.394 116.827 156.277C116.829 156.275 116.832 156.276 116.832 156.279V156.279C116.832 156.282 116.836 156.283 116.838 156.281C116.955 156.154 117.014 156.005 117.014 155.835V150.718C117.014 150.537 116.953 150.387 116.832 150.267C116.704 150.139 116.553 150.078 116.379 150.078H98.2764ZM87.3076 150.063C87.1277 150.064 86.9773 150.13 86.8569 150.249C86.8554 150.25 86.8533 150.251 86.8511 150.251V150.251C86.8489 150.251 86.8468 150.252 86.8452 150.253C86.7186 150.381 86.6582 150.531 86.6582 150.703L86.7119 170.969C86.7118 171.074 86.6657 171.141 86.5752 171.156C86.4848 171.171 86.4244 171.127 86.3867 171.021L79.7734 150.598C79.6678 150.244 79.4417 150.07 79.0869 150.07H72.1494C71.9682 150.07 71.8171 150.138 71.6963 150.259C71.5681 150.387 71.5079 150.537 71.5078 150.71V186.38C71.5078 186.56 71.568 186.712 71.6963 186.832C71.8246 186.96 71.9758 187.02 72.1494 187.02H78.2871C78.468 187.019 78.6111 186.96 78.7393 186.832C78.8676 186.704 78.9287 186.553 78.9287 186.38L78.876 166.114C78.8761 166.009 78.9213 165.942 79.0117 165.927C79.1022 165.912 79.1625 165.957 79.2002 166.062L85.7676 186.485C85.8733 186.839 86.1003 187.013 86.4551 187.013H93.4453C93.6264 187.013 93.7701 186.952 93.8984 186.824C94.0266 186.696 94.0869 186.546 94.0869 186.373V150.703C94.0869 150.523 94.0192 150.371 93.8984 150.251C93.7701 150.123 93.6189 150.064 93.4453 150.063H87.3076ZM204.046 150.063C203.866 150.064 203.717 150.13 203.597 150.248C203.595 150.25 203.592 150.251 203.59 150.251V150.251C203.587 150.251 203.585 150.252 203.583 150.254C203.457 150.381 203.397 150.531 203.397 150.703L203.45 170.969C203.45 171.074 203.405 171.141 203.314 171.156C203.224 171.171 203.163 171.127 203.125 171.021L196.513 150.598C196.407 150.244 196.18 150.07 195.825 150.07H188.888C188.707 150.07 188.555 150.138 188.435 150.259C188.306 150.387 188.246 150.537 188.246 150.71V186.38C188.246 186.56 188.306 186.712 188.435 186.832C188.563 186.96 188.714 187.02 188.888 187.02H195.025C195.206 187.019 195.35 186.96 195.479 186.832C195.607 186.704 195.667 186.553 195.667 186.38L195.614 166.114C195.614 166.009 195.66 165.942 195.75 165.927C195.841 165.912 195.901 165.957 195.938 166.062L202.506 186.485C202.612 186.839 202.839 187.013 203.193 187.013H210.184C210.365 187.013 210.508 186.952 210.637 186.824C210.765 186.696 210.825 186.546 210.825 186.373V150.703C210.825 150.523 210.758 150.371 210.637 150.251C210.508 150.123 210.357 150.063 210.184 150.063H204.046ZM142.4 150.063C142.22 150.064 142.069 150.131 141.948 150.251C141.82 150.379 141.759 150.53 141.759 150.703V186.373C141.759 186.554 141.82 186.704 141.948 186.824C142.076 186.952 142.227 187.013 142.4 187.013H148.591C148.772 187.013 148.923 186.952 149.044 186.824C149.135 186.728 149.191 186.619 149.214 186.498L149.226 186.373V171.97C149.226 171.797 149.316 171.706 149.489 171.706H151.286V171.706C151.524 171.706 151.582 172.032 151.646 172.261L155.627 186.479C155.733 186.832 155.982 187.005 156.366 187.005H162.723C163.019 187.005 163.204 186.902 163.273 186.693C163.318 186.556 163.286 186.408 163.251 186.268V186.268L158.441 170.886C158.402 170.761 158.305 170.617 158.382 170.51V170.51C158.42 170.457 158.473 170.412 158.541 170.374C159.953 169.494 161.054 168.259 161.847 166.679C162.639 165.098 163.04 163.368 163.04 161.193C163.04 159.019 162.624 157.077 161.794 155.392C160.964 153.706 159.794 152.396 158.276 151.463C156.759 150.53 155.03 150.063 153.09 150.063H142.4ZM348.776 21.7422C357.609 21.7422 364.674 24.1878 369.785 29.0039C374.934 33.8652 377.44 40.2915 377.44 48.667V82.749C377.448 88.8821 377.463 100.298 366.743 107.703C355.027 115.8 340.39 111.677 340.246 111.632C340.072 111.579 339.891 111.557 339.71 111.557C338.246 111.557 337.182 112.618 337.182 114.062L337.053 132.936C337.053 134.298 337.8 134.9 338.238 135.133C338.676 135.366 339.597 135.652 340.729 134.899C344.24 132.649 348.369 131.506 353.004 131.506C358.56 131.506 363.474 132.921 367.611 135.705C371.71 138.474 374.67 142.327 376.398 147.166C377.606 151.117 378.218 154.992 378.218 158.68C378.218 162.751 377.576 166.469 376.285 169.765C374.481 174.784 371.25 178.817 366.683 181.76C362.078 184.732 356.409 186.237 350.324 186.237C344.24 186.237 338.835 184.77 334.268 181.88C332.245 180.601 330.433 179.058 328.893 177.29C328.525 176.872 328.009 176.646 327.478 176.643C327.471 176.643 327.464 176.638 327.462 176.631V176.631C327.46 176.625 327.453 176.62 327.446 176.62C327.224 176.621 327.009 176.659 326.794 176.74C326.062 177.011 325.571 177.718 325.571 178.501V178.501C325.571 181.863 322.846 184.589 319.483 184.589H280.119C273.84 184.589 268.749 179.498 268.749 173.219V173.219C268.749 172.918 268.84 172.767 268.953 172.654C273.15 168.553 277.483 164.038 281.816 159.252C286.315 154.286 288.912 151.441 289.984 150.289C290.007 150.267 290.03 150.244 290.045 150.222C292.377 147.475 294.808 144.803 297.292 142.237C305.445 133.214 309.408 126.547 309.408 121.858C309.408 118.344 308.125 115.402 305.589 113.129C303.113 110.909 299.889 109.78 296.017 109.78C292.144 109.78 288.92 110.909 286.444 113.129C283.908 115.409 282.624 118.427 282.624 122.114V122.114C282.624 123.681 281.354 124.951 279.787 124.951H275.811C272.048 124.951 268.998 121.901 268.998 118.138V97.7366C268.998 97.2564 269.163 96.7916 269.512 96.4609V96.4609L269.716 96.2646C272.486 93.5556 274.947 90.7186 277.544 87.7236C278.91 86.1509 280.322 84.5178 281.824 82.8623C286.323 77.8956 288.92 75.0508 289.992 73.8994C290.015 73.8769 290.038 73.8546 290.053 73.832C292.385 71.0853 294.816 68.4138 297.3 65.8477C305.453 56.8248 309.416 50.157 309.416 45.4688C309.416 41.9546 308.132 39.0118 305.596 36.7393C303.12 34.5196 299.896 33.3906 296.023 33.3906C292.151 33.3907 288.928 34.5197 286.452 36.7393C283.916 39.0194 282.632 42.0374 282.632 45.7246V45.7246C282.632 47.2914 281.362 48.5615 279.795 48.5615H273.834C270.751 48.5615 268.251 46.0619 268.251 42.9785V42.9785C268.493 38.8095 269.829 35.0762 272.222 31.8779C274.652 28.6347 277.937 26.1214 281.998 24.3906C286.135 22.6374 290.853 21.7422 296.023 21.7422C301.746 21.7422 306.774 22.8109 310.964 24.918C315.108 27.0025 318.346 29.8469 320.573 33.3535C320.603 33.4061 320.626 33.4513 320.656 33.5039C320.694 33.5792 320.74 33.6542 320.785 33.7295C321.132 34.2863 321.706 34.6253 322.4 34.6328C323.057 34.6328 323.668 34.2863 324.008 33.7295C325.065 31.9987 326.356 30.4033 327.836 28.9961C332.901 24.1801 339.944 21.7422 348.776 21.7422ZM57.6328 156.031C58.614 156.031 59.4144 156.377 60.0107 157.062C60.6071 157.746 60.9092 158.65 60.9092 159.778V177.297C60.9092 178.426 60.607 179.329 60.0107 180.014C59.4144 180.698 58.6216 181.045 57.6328 181.045C56.6439 181.045 55.8586 180.698 55.2773 180.014C54.6961 179.329 54.4014 178.426 54.4014 177.297V159.778C54.4014 158.657 54.6961 157.746 55.2773 157.062C55.8586 156.377 56.6515 156.031 57.6328 156.031ZM321.54 134.448C320.725 134.222 319.856 134.569 319.418 135.291C317.863 137.85 315.908 140.574 313.575 143.396C310.971 146.661 308.125 149.921 305.113 153.089C302.094 156.265 297.503 160.975 291.472 167.07L289.562 168.975C288.815 169.72 288.626 170.78 289.071 171.646C289.471 172.466 290.294 172.955 291.275 172.955H322.943C323.562 172.955 324.144 172.646 324.499 172.135C324.854 171.623 324.93 170.968 324.703 170.389C324.673 170.313 324.642 170.238 324.582 170.11V170.11C323.398 167.026 325.914 164 329.217 164H336.018C337.018 164 337.815 164.743 338.269 165.633V165.633C338.404 165.896 338.484 166.085 338.53 166.212C338.548 166.262 338.568 166.312 338.585 166.363V166.363C339.566 168.922 341.084 170.931 343.1 172.331C345.121 173.737 347.504 174.452 350.188 174.453C350.19 174.453 350.19 174.456 350.188 174.457V174.457C350.187 174.457 350.187 174.46 350.189 174.46C352.964 174.458 355.437 173.691 357.541 172.195C359.602 170.728 361.157 168.659 362.139 166.062C363.09 164.121 363.572 161.637 363.572 158.688C363.572 156.039 363.15 153.615 362.327 151.471C361.602 148.867 360.146 146.827 358.002 145.397C355.911 144.005 353.382 143.298 350.694 143.298C348.007 143.298 345.463 143.931 343.146 145.18C340.707 146.504 339.038 148.295 338.192 150.5V150.5C338.176 150.534 338.144 150.56 338.106 150.56H331.791C326.892 150.56 322.921 146.588 322.921 141.689V136.262C322.921 135.419 322.355 134.674 321.54 134.448ZM319.146 150.898C319.146 151.832 319.494 152.667 320.144 153.307C320.8 153.961 321.638 154.308 322.574 154.308H338.299C339.952 154.308 341.235 153.359 341.741 151.771C342.27 150.432 343.319 149.356 344.949 148.476C346.738 147.512 348.678 147.046 350.701 147.046C352.724 147.046 354.431 147.527 355.918 148.513C357.33 149.453 358.251 150.771 358.727 152.539C358.749 152.607 358.771 152.674 358.794 152.734C359.466 154.465 359.813 156.46 359.813 158.68C359.813 161.088 359.451 163.037 358.733 164.467C358.703 164.527 358.673 164.594 358.65 164.654C357.926 166.611 356.847 168.072 355.359 169.133C353.887 170.179 352.121 170.69 350.196 170.69C348.271 170.69 346.656 170.216 345.267 169.245C343.873 168.269 342.847 166.902 342.13 165.057C342.128 165.05 342.122 165.045 342.115 165.043V165.043C342.108 165.04 342.102 165.035 342.1 165.028C341.987 164.7 341.829 164.349 341.628 163.939C341.583 163.849 341.492 163.631 341.424 163.21C341.416 163.15 341.401 163.082 341.386 163.021C340.91 161.276 339.605 160.237 337.906 160.237H322.438C320.392 160.238 319.019 161.555 319.019 163.519V163.774C319.019 163.88 319.034 163.986 319.049 164.091V164.091C319.49 166.651 317.627 169.185 315.029 169.185H310.991C304.941 169.185 301.892 161.882 306.084 157.52C306.722 156.856 307.313 156.238 307.86 155.662C310.94 152.419 313.862 149.077 316.512 145.751V145.751C317.376 144.7 319.146 145.301 319.146 146.662V150.898ZM151.875 156.46C152.969 156.46 153.86 156.896 154.547 157.754C155.234 158.612 155.581 159.823 155.581 161.261C155.581 162.698 155.234 163.857 154.547 164.715C153.86 165.58 152.969 166.01 151.875 166.01H149.489C149.316 166.01 149.226 165.919 149.226 165.746V156.723C149.226 156.55 149.316 156.46 149.489 156.46H151.875ZM202.008 16C168.596 16.0001 141.419 44.9426 141.419 80.5146C141.419 116.087 168.603 145.029 202.008 145.029C235.412 145.029 262.597 116.087 262.597 80.5146C262.597 45.2205 235.843 16.4522 202.79 16.0049L202.008 16ZM78.5889 19.7021C47.1697 19.7021 21.6084 46.9819 21.6084 80.5146C21.6085 114.047 47.1698 141.326 78.5889 141.326C103.067 141.326 123.985 124.764 132.037 101.593C132.132 101.319 132.389 101.134 132.679 101.134V101.134C133.139 101.134 133.464 101.586 133.314 102.021C125.088 125.781 103.673 142.771 78.5889 142.771C46.43 142.771 20.2648 114.845 20.2646 80.5146C20.2646 46.1842 46.4299 18.2578 78.5889 18.2578V19.7021ZM394.555 139.385C394.53 139.33 394.505 139.274 394.479 139.218C394.505 139.273 394.529 139.329 394.555 139.385ZM394.318 138.889C394.295 138.841 394.27 138.792 394.245 138.743C394.27 138.792 394.294 138.84 394.318 138.889ZM394.06 138.392C394.025 138.328 393.991 138.264 393.955 138.199C393.991 138.263 394.025 138.327 394.06 138.392ZM393.755 137.855C393.711 137.782 393.668 137.707 393.622 137.632C393.668 137.706 393.711 137.781 393.755 137.855ZM393.59 137.58C393.557 137.528 393.525 137.474 393.491 137.421L393.3 137.128L393.59 137.58ZM142.047 130.546C141.173 129.386 139.407 129.385 138.532 130.544C138.14 131.062 137.743 131.575 137.339 132.083C136.703 132.884 137.264 134.086 138.286 134.086V134.086V134.086C139.591 134.086 140.9 134.079 142.205 134.065C142.27 134.064 142.335 134.063 142.4 134.063V134.063C143.371 134.063 143.903 132.924 143.3 132.164C142.876 131.63 142.458 131.091 142.047 130.546ZM219.073 80.5146C219.073 67.8641 210.015 60.1826 202.016 60.1826C194.017 60.1826 184.958 67.8641 184.958 80.5146C184.958 93.1651 194.017 100.847 202.016 100.847V116.847L201.164 116.835C183.332 116.337 168.958 100.234 168.958 80.5146C168.958 60.4823 183.792 44.1826 202.016 44.1826C220.239 44.1826 235.073 60.4823 235.073 80.5146L235.062 81.4502C234.609 101.052 219.954 116.847 202.016 116.847V100.847C210.015 100.847 219.073 93.1651 219.073 80.5146ZM348.784 33.4131C344.519 33.4131 341.032 34.7832 338.412 37.4922C335.815 40.1787 334.494 43.7683 334.494 48.1631V83.208C334.494 87.6028 335.815 91.1924 338.412 93.8789C341.024 96.588 344.519 97.958 348.784 97.958C353.132 97.958 356.666 96.588 359.285 93.8789C361.882 91.1924 363.203 87.6026 363.203 83.208V48.1631C363.203 43.7759 361.882 40.1862 359.285 37.4922C356.666 34.7831 353.049 33.4131 348.784 33.4131ZM318.936 62.1299C318.15 61.8815 317.297 62.16 316.821 62.8223C315.825 64.2069 314.746 65.6069 313.591 66.999C310.986 70.265 308.14 73.5233 305.128 76.6914C302.108 79.8671 297.519 84.5784 291.487 90.6738L289.577 92.5771C288.83 93.3221 288.641 94.3836 289.086 95.249C289.486 96.0693 290.31 96.5586 291.291 96.5586H320.508C320.51 96.5586 320.511 96.5562 320.509 96.5547V96.5547C320.508 96.5532 320.509 96.5508 320.511 96.5508C321.136 96.5489 321.722 96.2407 322.068 95.7305C322.423 95.2188 322.491 94.5638 322.265 93.9844C320.921 90.5905 320.241 86.6621 320.241 82.3125V63.9209C320.241 63.1008 319.713 62.3783 318.936 62.1299ZM68.9971 66.7549C69.4556 65.6459 68.2541 64.3896 67.4125 65.245C63.96 68.754 61.5314 73.9715 61.5312 80.5215V80.5215C61.5312 87.0265 67.79 85.3523 67.79 78.8473V73.2881C67.732 71.0922 68.1235 68.8675 68.9971 66.7549V66.7549ZM348.784 37.1689C352.113 37.169 354.665 38.1241 356.567 40.0957C358.492 42.0898 359.429 44.7239 359.429 48.1553V83.2012C359.429 86.6326 358.492 89.2666 356.567 91.2607C354.665 93.2323 352.03 94.1875 348.784 94.1875C345.538 94.1875 343.032 93.2321 341.13 91.2607C339.205 89.2741 338.269 86.6326 338.269 83.2012V48.1553C338.269 44.7239 339.205 42.0898 341.13 40.0957C343.032 38.1243 345.538 37.1689 348.784 37.1689ZM316.467 82.3125C316.467 83.0953 316.487 83.8668 316.527 84.6265C316.746 88.767 313.719 92.7959 309.573 92.7959V92.7959C304.054 92.7959 301.271 86.1323 305.105 82.1622C306.132 81.0986 307.054 80.1369 307.876 79.2725C307.919 79.2271 307.962 79.1817 308.005 79.1363C310.936 76.0417 316.467 78.0503 316.467 82.3125V82.3125ZM202.008 26.3926C202.008 26.7917 201.681 27.1147 201.282 27.1208C174.384 27.5356 152.584 50.9693 152.249 79.8467C152.245 80.2177 151.944 80.5215 151.573 80.5215V80.5215C151.202 80.5215 150.901 80.2177 150.905 79.8467C151.24 50.1717 173.644 26.0904 201.282 25.6754C201.681 25.6694 202.008 25.9935 202.008 26.3926V26.3926ZM202.008 30.0947C202.008 30.4938 201.681 30.8168 201.282 30.8234C176.376 31.239 156.191 53.0097 155.858 79.8468C155.853 80.2178 155.553 80.5215 155.182 80.5215V80.5215C154.811 80.5215 154.509 80.2178 154.514 79.8467C154.848 52.212 175.636 29.7938 201.282 29.378C201.681 29.3715 202.008 29.6956 202.008 30.0947V30.0947ZM202.008 18.98C202.008 19.3788 201.681 19.7017 201.283 19.707C170.407 20.1202 145.369 46.8745 145.032 79.8397C145.028 80.2108 144.728 80.5146 144.356 80.5146V80.5146C143.985 80.5146 143.684 80.2108 143.688 79.8397C144.026 46.0768 169.667 18.676 201.283 18.2626C201.681 18.2573 202.008 18.5811 202.008 18.98V18.98ZM202.008 22.6826C202.008 23.0817 201.681 23.4048 201.282 23.4105C172.399 23.8246 148.977 48.9148 148.64 79.8398C148.636 80.2108 148.336 80.5146 147.965 80.5146V80.5146C147.594 80.5146 147.293 80.2108 147.297 79.8398C147.633 48.1171 171.652 22.3793 201.282 21.965C201.681 21.9595 202.008 22.2835 202.008 22.6826V22.6826ZM202.008 33.7935C202.008 34.1945 201.68 34.5189 201.279 34.5262C178.366 34.9447 159.798 55.0518 159.466 79.84C159.461 80.211 159.161 80.5146 158.79 80.5146V80.5146C158.419 80.5146 158.118 80.211 158.123 79.84C158.454 54.2539 177.619 33.4926 201.279 33.0738C201.68 33.0667 202.008 33.3925 202.008 33.7935V33.7935ZM202.016 38.2148C202.016 38.2192 202.012 38.2227 202.008 38.2227V38.2227C180.746 38.2228 163.415 56.8291 163.082 79.8401C163.077 80.2111 162.776 80.5146 162.405 80.5146V80.5146C162.034 80.5146 161.733 80.2111 161.738 79.8401C162.068 56.2935 179.621 37.2019 201.29 36.7843C201.689 36.7766 202.016 37.1009 202.016 37.5V38.2148ZM202.008 41.2022C202.008 41.6013 201.682 41.924 201.283 41.9328C182.345 42.3516 167.018 59.1324 166.692 79.8402C166.686 80.2112 166.386 80.5146 166.015 80.5146V80.5146C165.644 80.5146 165.342 80.2112 165.348 79.8402C165.675 58.3345 181.605 40.9062 201.283 40.4872C201.682 40.4787 202.008 40.803 202.008 41.2022V41.2022ZM397.215 82.7422C397.215 86.475 397.417 95.9165 393.077 105.814C389.013 115.082 389.137 127.434 393.414 136.606C393.987 137.834 394.507 139.097 394.974 140.392C395.089 140.697 395.196 141.006 395.292 141.318C397.041 147.004 398 152.849 398 158.68C398 164.897 397.003 171.055 394.762 176.825C391.444 185.827 385.469 193.17 377.406 198.367C377.406 198.368 377.405 198.368 377.404 198.369V198.369C377.404 198.37 377.403 198.37 377.402 198.371C369.278 203.606 359.999 206 350.324 206C346.34 206 342.424 205.586 338.629 204.732C334.889 203.89 330.967 204.1 327.141 204.337C326.737 204.362 326.332 204.375 325.926 204.375H268.395C266.817 204.375 265.258 204.186 263.746 203.815C261.505 203.266 259.174 203.035 256.867 203.035V203.035H238.712C238.631 203.035 238.55 203.035 238.469 203.033C235.023 202.983 231.502 202.824 228.079 203.228C226.895 203.367 225.71 203.434 224.534 203.434C223.344 203.434 222.143 203.365 220.942 203.222C217.472 202.807 213.899 202.965 210.405 203.011C210.331 203.012 210.257 203.013 210.184 203.013H203.193C203.157 203.013 203.12 203.013 203.084 203.012C200.452 202.994 197.781 203 195.15 203.019C195.108 203.019 195.067 203.02 195.025 203.02H188.888V203.02C187.578 203.02 186.249 203.023 184.939 203.035C184.892 203.035 184.844 203.035 184.796 203.035H166.641C166.549 203.035 166.457 203.034 166.365 203.033C165.152 203.013 163.936 203.005 162.723 203.005V203.005H156.366C156.317 203.005 156.267 203.005 156.216 203.004C153.729 202.982 151.208 202.992 148.721 203.012C148.677 203.013 148.634 203.013 148.591 203.013H142.4V203.013C141.092 203.013 139.779 203.019 138.47 203.034C138.409 203.035 138.348 203.035 138.286 203.035H120.131V203.035C115.037 203.035 109.56 203.027 104.467 203.027V203.027H98.2764C98.2306 203.027 98.1849 203.027 98.1392 203.027C96.589 203.014 95.0311 203.009 93.4808 203.013C93.469 203.013 93.4572 203.013 93.4453 203.013H86.4551C86.4187 203.013 86.3822 203.013 86.3455 203.012C83.714 202.994 81.0432 202.999 78.4117 203.019C78.3702 203.019 78.3287 203.02 78.2871 203.02H72.1494C72.0647 203.02 71.9801 203.019 71.8955 203.018C68.3803 202.964 64.7863 202.795 61.296 203.216C60.0718 203.363 58.8473 203.434 57.6328 203.434C56.0319 203.434 54.408 203.312 52.7874 203.05C48.0697 202.286 43.1217 202.292 38.4039 203.055C36.8115 203.313 35.2115 203.434 33.627 203.434C27.0867 203.434 20.2258 201.382 14.7734 196.032C14.6272 195.889 14.4848 195.742 14.3447 195.594C9.12531 190.235 7.09576 183.492 7.0957 177.034V159.937L7.10156 159.312C7.23472 152.849 9.44953 146.182 14.8418 140.954L15.3564 140.468V140.468C18.569 137.518 19.8136 132.274 17.2869 128.719C7.6424 115.148 2.00005 98.3701 2 80.5146C2 37.0679 35.408 0 78.5889 0V16C45.1768 16 18 44.9426 18 80.5146C18.0001 116.087 45.1769 145.029 78.5889 145.029C104.403 145.029 126.475 127.746 135.189 103.484C135.745 101.937 135.984 100.297 135.984 98.6525V87.1264C135.984 79.2523 129.601 72.8691 121.727 72.8691H83.7911C83.788 72.8691 83.7866 72.873 83.7889 72.875V72.875C83.7896 72.8756 83.79 72.8765 83.79 72.8775V93.3174C83.79 97.6386 87.293 101.142 91.6142 101.142V101.142C97.7716 101.142 101.151 107.844 96.0797 111.336C91.0034 114.831 85.0069 116.854 78.5889 116.854C60.3579 116.854 45.5312 100.554 45.5312 80.5215C45.5315 60.4893 60.3656 44.1895 78.5889 44.1895C89.6388 44.1895 99.4392 50.1869 105.445 59.3675C105.661 59.6983 106.028 59.9023 106.423 59.9023V59.9023C107.31 59.9023 107.858 58.9428 107.374 58.1995C100.964 48.3625 90.4559 41.9327 78.5889 41.9326C59.1125 41.9326 43.2668 59.2401 43.2666 80.5215C43.2666 101.803 59.1123 119.111 78.5889 119.111C90.9929 119.111 101.92 112.086 108.219 101.488C108.346 101.275 108.576 101.142 108.825 101.142V101.142C109.356 101.142 109.691 101.711 109.421 102.169C102.887 113.224 91.5091 120.557 78.5889 120.557C58.3725 120.557 41.9229 102.593 41.9229 80.5215C41.9231 58.45 58.3727 40.4873 78.5889 40.4873C91.6787 40.4874 103.186 48.0132 109.675 59.3124C109.883 59.6743 110.267 59.9023 110.684 59.9023V59.9023C111.543 59.9023 112.094 58.9934 111.667 58.248C104.789 46.2401 92.5426 38.2297 78.5967 38.2295C57.1273 38.2295 39.6662 57.2008 39.666 80.5215C39.666 103.842 57.1347 122.814 78.5967 122.814C93.0328 122.814 105.655 114.231 112.372 101.515C112.493 101.287 112.73 101.142 112.988 101.142V101.142C113.5 101.142 113.833 101.679 113.595 102.132C106.657 115.338 93.5644 124.259 78.5889 124.259C56.3796 124.259 38.3066 104.64 38.3066 80.5215C38.3069 56.4031 56.3797 36.7852 78.5889 36.7852C93.6992 36.7852 106.885 45.867 113.78 59.2693C113.979 59.655 114.374 59.9023 114.808 59.9023V59.9023C115.642 59.9023 116.192 59.0365 115.811 58.2942C108.55 44.1347 94.5903 34.5274 78.5889 34.5273C55.1341 34.5273 36.0422 55.1614 36.042 80.5215C36.042 105.882 55.1264 126.517 78.5889 126.517C95.0414 126.517 109.336 116.36 116.409 101.541C116.525 101.298 116.77 101.142 117.039 101.142V101.142C117.541 101.142 117.875 101.66 117.66 102.113C110.378 117.443 95.602 127.961 78.5889 127.961C54.3867 127.961 34.6984 106.68 34.6982 80.5146C34.6982 54.3492 54.3866 33.0674 78.5889 33.0674C95.7136 33.0675 110.572 43.7241 117.802 59.2182C117.991 59.6236 118.396 59.8877 118.844 59.8877V59.8877C119.658 59.8877 120.206 59.0566 119.863 58.3186C112.277 42.0279 96.6311 30.8097 78.5889 30.8096C53.141 30.8096 32.4336 53.1075 32.4336 80.5146C32.4337 107.922 53.1411 130.219 78.5889 130.219C97.0536 130.219 113.016 118.469 120.383 101.558C120.492 101.306 120.739 101.142 121.014 101.142V101.142C121.5 101.142 121.83 101.636 121.636 102.082C114.071 119.534 97.6192 131.664 78.5811 131.664C52.3935 131.664 31.0822 108.719 31.082 80.5146C31.082 52.3098 52.4012 29.3721 78.5889 29.3721C97.7112 29.3722 114.217 41.6104 121.744 59.1869C121.926 59.6137 122.344 59.8955 122.809 59.8955V59.8955C123.615 59.8955 124.168 59.0833 123.851 58.3413C115.988 39.9352 98.6601 27.1153 78.5889 27.1152C51.1481 27.1152 28.8252 51.0681 28.8252 80.5146C28.8253 109.961 51.1482 133.922 78.5889 133.922C99.0654 133.922 116.687 120.579 124.316 101.574C124.42 101.314 124.671 101.142 124.951 101.142V101.142C125.427 101.142 125.755 101.619 125.579 102.061C117.763 121.628 99.6469 135.374 78.5889 135.374C50.4083 135.374 27.4814 110.766 27.4814 80.5215C27.4817 50.2775 50.4084 25.6621 78.5889 25.6621C99.7138 25.6622 117.871 39.4961 125.652 59.1627C125.826 59.602 126.249 59.8955 126.721 59.8955V59.8955C127.511 59.8955 128.059 59.1106 127.769 58.3765C119.671 37.8524 100.68 23.4054 78.5889 23.4053C49.1627 23.4053 25.2168 49.0288 25.2168 80.5146C25.2169 112 49.1628 137.624 78.5889 137.624C101.061 137.624 120.325 122.674 128.179 101.585C128.279 101.315 128.537 101.134 128.825 101.134V101.134C129.298 101.134 129.628 101.603 129.464 102.046C121.428 123.706 101.661 139.068 78.5889 139.068C48.4154 139.068 23.8732 112.798 23.873 80.5146C23.873 48.2311 48.4229 21.96 78.5889 21.96L79.6826 21.9717C102.33 22.4497 121.647 37.7386 129.52 59.1343C129.687 59.5886 130.118 59.8955 130.602 59.8955V59.8955C131.384 59.8955 131.933 59.1265 131.664 58.3927C123.486 36.1308 103.355 20.2175 79.7412 19.7148L78.5889 19.7021V18.2578L79.7764 18.2705C104.377 18.798 125.281 35.6746 133.35 59.1147C133.51 59.5789 133.945 59.8955 134.436 59.8955V59.8955C135.206 59.8955 135.753 59.1454 135.502 58.4173C127.144 34.0927 105.419 16.5663 79.835 16.0137L78.5889 16V0C96.0582 4.85531e-05 111.957 6.11555 124.68 16.2465C133.379 23.1737 147.191 23.1612 155.887 16.2295C168.605 6.09128 184.503 5.51312e-05 202.008 0C221.79 0 239.52 7.78063 252.927 20.3893C253.93 21.3318 255.55 21.1624 256.374 20.0605V20.0605L256.383 20.0488L256.823 19.4717C261.418 13.5563 267.395 9.14267 274.221 6.22919C274.222 6.22874 274.223 6.2282 274.224 6.22756V6.22756C274.225 6.2269 274.226 6.22633 274.227 6.22587L274.869 5.95801C281.533 3.22623 288.699 1.98633 296.009 1.98633C304.333 1.98633 312.486 3.57426 319.836 7.27606C319.837 7.27624 319.837 7.27617 319.837 7.27588V7.27588C319.838 7.27559 319.838 7.27552 319.839 7.2757C320.3 7.50815 320.758 7.74802 321.211 7.99474C321.887 8.36278 322.705 8.36054 323.381 7.99168C331.016 3.82297 339.717 1.98633 348.77 1.98633C361.51 1.98642 373.524 5.62169 382.897 14.209L383.342 14.6221L383.352 14.6309L383.797 15.0566C393.067 24.043 397.215 35.8879 397.215 48.667V82.7422Z" fill="white"/>
<path d="M201.993 16C168.583 16 141.409 44.9423 141.409 80.5144C141.409 116.087 168.591 145.029 201.993 145.029C235.395 145.029 262.576 116.087 262.576 80.5144C262.576 44.9423 235.402 16 201.993 16ZM235.055 80.5144C235.055 100.547 220.222 116.847 202 116.847C183.778 116.847 168.946 100.547 168.946 80.5144C168.946 60.4821 183.778 44.1823 202 44.1823C220.222 44.1823 235.055 60.4821 235.055 80.5144ZM201.336 41.9322C182.367 42.316 166.998 59.12 166.681 79.8522C166.681 80.2209 166.379 80.5144 166.017 80.5144C165.64 80.5144 165.33 80.2059 165.338 79.8296C165.67 58.3148 181.62 40.8786 201.313 40.4798C201.691 40.4723 202 40.7808 202 41.1571V41.2624C202 41.6312 201.706 41.9171 201.336 41.9247V41.9322ZM201.283 38.2297C180.344 38.6436 163.39 57.0957 163.073 79.8597C163.073 80.2284 162.771 80.5219 162.409 80.5219C162.031 80.5219 161.73 80.2134 161.73 79.8371C162.062 56.298 179.604 37.2138 201.261 36.7849C201.668 36.7774 202 37.1085 202 37.5148C202 37.9062 201.683 38.2222 201.291 38.2297H201.283ZM201.283 34.5273C178.359 34.9337 159.79 55.0563 159.465 79.8597C159.465 80.2284 159.163 80.5219 158.801 80.5219C158.423 80.5219 158.121 80.2134 158.121 79.8371C158.453 54.2586 177.611 33.5039 201.261 33.0824C201.668 33.0824 202 33.406 202 33.8124C202 34.2037 201.683 34.5198 201.283 34.5273ZM201.283 30.8248C176.366 31.2312 156.181 53.017 155.857 79.8597C155.857 80.2284 155.555 80.5219 155.193 80.5219C154.815 80.5219 154.513 80.2134 154.513 79.8371C154.853 52.2117 175.626 29.8014 201.268 29.38C201.676 29.38 202.008 29.7036 202.008 30.1099C202.008 30.5013 201.691 30.8248 201.291 30.8248H201.283ZM201.283 27.1149C174.381 27.5212 152.573 50.9625 152.241 79.8522C152.241 80.2209 151.939 80.5144 151.577 80.5144C151.199 80.5144 150.898 80.2059 150.898 79.8371C151.237 50.1649 173.633 26.0914 201.261 25.67C201.668 25.67 202 25.9936 202 26.4C202 26.7913 201.683 27.1149 201.283 27.1149ZM201.283 23.4124C172.388 23.8188 148.965 48.9232 148.633 79.8522C148.633 80.2209 148.331 80.5144 147.969 80.5144C147.591 80.5144 147.289 80.2059 147.289 79.8371C147.629 48.1255 171.641 22.389 201.261 21.9676C201.668 21.9676 202 22.2912 202 22.6975C202 23.0888 201.683 23.4124 201.283 23.4124ZM201.993 18.9951C201.993 19.3864 201.676 19.71 201.276 19.71C170.395 20.1163 145.349 46.8838 145.017 79.8597C145.017 80.2284 144.715 80.5219 144.353 80.5219C143.976 80.5219 143.674 80.2134 143.674 79.8447C144.013 46.0861 169.648 18.6941 201.253 18.2726C201.661 18.2726 201.993 18.5962 201.993 19.0026V18.9951Z" fill="#103972"/>
<path d="M83.7845 82.6064V91.3809C83.7845 96.7691 88.1701 101.141 93.5748 101.141H103.667C104.58 101.141 105.124 102.18 104.588 102.925C98.5341 111.398 89.1288 116.854 78.5912 116.854C60.3617 116.854 45.5366 100.554 45.5366 80.5219C45.5366 60.4896 60.3693 44.1898 78.5912 44.1898C89.6496 44.1898 99.455 50.195 105.456 59.3834C105.66 59.6994 106.015 59.8951 106.392 59.8951C107.29 59.8951 107.834 58.9017 107.343 58.1567C100.935 48.3437 90.4347 41.9322 78.5836 41.9322C59.1087 41.9322 43.2646 59.2404 43.2646 80.5219C43.2646 101.803 59.1087 119.112 78.5836 119.112C90.9932 119.112 101.923 112.076 108.226 101.472C108.347 101.269 108.566 101.141 108.8 101.141H108.838C109.359 101.141 109.691 101.706 109.426 102.15C102.897 113.212 91.5141 120.557 78.5836 120.557C58.369 120.557 41.921 102.594 41.921 80.5219C41.921 58.4502 58.369 40.4873 78.5836 40.4873C91.6801 40.4873 103.191 48.0277 109.676 59.3307C109.879 59.6769 110.242 59.9026 110.649 59.9026C111.517 59.9026 112.061 58.9619 111.631 58.2169C104.754 46.2291 92.5105 38.2373 78.5761 38.2373C57.1084 38.2373 39.6489 57.2085 39.6489 80.5295C39.6489 103.85 57.1159 122.822 78.5761 122.822C93.0162 122.822 105.645 114.228 112.363 101.51C112.476 101.292 112.703 101.156 112.952 101.156H112.982C113.488 101.156 113.82 101.691 113.586 102.135C106.649 115.341 93.5597 124.274 78.5761 124.274C56.3686 124.274 38.2977 104.656 38.2977 80.537C38.2977 56.4184 56.3686 36.7999 78.5761 36.7999C93.688 36.7999 106.883 45.8905 113.774 59.3006C113.971 59.6768 114.348 59.9177 114.771 59.9177C115.616 59.9177 116.16 59.0221 115.775 58.2696C108.506 44.1371 94.5636 34.5423 78.5761 34.5423C55.1231 34.5423 36.0332 55.1767 36.0332 80.537C36.0332 105.897 55.1156 126.532 78.5761 126.532C95.0392 126.532 109.336 116.365 116.401 101.54C116.514 101.307 116.748 101.156 117.005 101.156H117.035C117.526 101.156 117.858 101.668 117.654 102.112C110.378 117.456 95.5902 127.976 78.5836 127.976C54.3834 127.976 34.6971 106.695 34.6971 80.5295C34.6971 54.364 54.3834 33.0824 78.5836 33.0824C95.711 33.0824 110.574 43.7458 117.805 59.2479C117.986 59.6467 118.386 59.9026 118.824 59.9026C119.655 59.9026 120.191 59.0447 119.843 58.2922C112.25 42.0225 96.6168 30.8248 78.5912 30.8248C53.1455 30.8248 32.4401 53.1223 32.4401 80.5295C32.4401 107.937 53.1455 130.234 78.5912 130.234C97.0622 130.234 113.02 118.48 120.387 101.555C120.492 101.314 120.734 101.156 120.998 101.156H121.013C121.496 101.156 121.829 101.653 121.64 102.097C114.069 119.556 97.6283 131.686 78.5912 131.686C52.4057 131.686 31.0965 108.742 31.0965 80.537C31.0965 52.3322 52.3982 29.3725 78.5836 29.3725C97.7113 29.3725 114.227 41.6236 121.746 59.2103C121.919 59.6242 122.327 59.8951 122.78 59.8951H122.802C123.602 59.8951 124.161 59.0823 123.844 58.3449C115.986 39.9305 98.6549 27.1149 78.5836 27.1149C51.1451 27.1149 28.8244 51.0679 28.8244 80.5144C28.8244 109.961 51.1451 133.921 78.5836 133.921C99.0625 133.921 116.688 120.572 124.312 101.555C124.41 101.299 124.659 101.134 124.931 101.134C125.407 101.134 125.739 101.615 125.565 102.052C117.752 121.618 99.6362 135.359 78.5836 135.359C50.4054 135.359 27.4808 110.751 27.4808 80.5069C27.4808 50.2627 50.4054 25.6625 78.5836 25.6625C99.7117 25.6625 117.873 39.5015 125.648 59.1802C125.814 59.6091 126.229 59.8951 126.69 59.8951H126.697C127.49 59.8951 128.041 59.1049 127.754 58.375C119.655 37.8535 100.67 23.4124 78.5761 23.4124C49.1599 23.4049 25.2163 49.0285 25.2163 80.5144C25.2163 112 49.1599 137.624 78.5836 137.624C101.063 137.624 120.326 122.671 128.177 101.57C128.275 101.307 128.524 101.134 128.803 101.134H128.818C129.286 101.134 129.619 101.6 129.452 102.037C121.421 123.702 101.652 139.061 78.5836 139.061C48.4126 139.061 23.8727 112.79 23.8727 80.5069C23.8727 48.2233 48.4201 21.96 78.5836 21.96C101.712 21.96 121.527 37.402 129.513 59.1576C129.679 59.6016 130.094 59.8951 130.562 59.8951H130.577C131.355 59.8951 131.913 59.12 131.641 58.3975C123.346 35.769 102.693 19.7024 78.5836 19.7024C47.1671 19.7024 21.6081 46.9817 21.6081 80.5144C21.6081 114.047 47.1671 141.326 78.5836 141.326C103.063 141.326 123.98 124.763 132.026 101.585C132.117 101.314 132.374 101.134 132.653 101.134C133.113 101.134 133.446 101.593 133.295 102.029C125.074 125.787 103.652 142.771 78.5761 142.771C46.4198 142.771 20.257 114.845 20.257 80.5144C20.257 46.184 46.4274 18.2576 78.5836 18.2576C103.705 18.2576 125.157 35.3099 133.347 59.135C133.506 59.5865 133.929 59.8951 134.404 59.8951H134.412C135.182 59.8951 135.733 59.1425 135.484 58.4201C126.999 33.6995 104.701 16 78.5836 16C45.1743 16 18 44.9423 18 80.5144C18 116.087 45.1743 145.029 78.5836 145.029C105.003 145.029 127.52 126.915 135.778 101.743C135.906 101.344 135.974 100.923 135.974 100.502V82.6064C135.974 77.2334 131.604 72.8762 126.214 72.8762H93.5446C88.155 72.8762 83.7845 77.2334 83.7845 82.6064Z" fill="#103972"/>
<path d="M25.956 184.491C24.0463 182.625 23.0952 180.119 23.0952 176.974V160.004C23.0952 156.896 24.0463 154.42 25.956 152.569C27.8658 150.718 30.3945 149.792 33.5498 149.792C36.705 149.792 39.2865 150.718 41.1963 152.569C43.1061 154.42 44.0572 156.896 44.0572 160.004V160.584C44.0572 160.757 43.9968 160.907 43.876 161.028C43.7552 161.148 43.6042 161.208 43.4306 161.208L37.2862 161.472C36.8635 161.472 36.6597 161.283 36.6597 160.892V159.53C36.6597 158.514 36.3804 157.694 35.8218 157.069C35.2632 156.437 34.5084 156.129 33.5648 156.129C32.6213 156.129 31.9193 156.445 31.3607 157.069C30.8021 157.694 30.5228 158.522 30.5228 159.53V177.598C30.5228 178.614 30.8021 179.427 31.3607 180.036C31.9193 180.646 32.659 180.955 33.5648 180.955C34.4707 180.955 35.2632 180.646 35.8218 180.036C36.3804 179.427 36.6597 178.614 36.6597 177.598V176.184C36.6597 176.01 36.7201 175.86 36.8409 175.74C36.9616 175.619 37.1126 175.559 37.2862 175.559L43.4306 175.822C43.6042 175.822 43.7552 175.883 43.876 176.003C43.9968 176.123 44.0572 176.274 44.0572 176.447V176.974C44.0572 180.119 43.091 182.625 41.1661 184.491C39.2413 186.358 36.6974 187.291 33.5498 187.291C30.4021 187.291 27.8658 186.358 25.956 184.491Z" fill="#103972"/>
<path d="M49.643 184.461C47.7181 182.573 46.7519 180.059 46.7519 176.921V160.162C46.7519 157.017 47.7181 154.503 49.643 152.622C51.5678 150.733 54.1418 149.792 57.365 149.792C60.5882 149.792 63.1698 150.733 65.1173 152.622C67.0647 154.511 68.0309 157.024 68.0309 160.162V176.921C68.0309 180.067 67.0572 182.58 65.1173 184.461C63.1773 186.35 60.5882 187.291 57.365 187.291C54.1418 187.291 51.5678 186.35 49.643 184.461ZM59.7352 179.931C60.3316 179.254 60.6259 178.351 60.6259 177.237V159.846C60.6259 158.732 60.3316 157.829 59.7352 157.152C59.1389 156.475 58.3539 156.129 57.3726 156.129C56.3913 156.129 55.6138 156.467 55.0326 157.152C54.4513 157.829 54.1645 158.732 54.1645 159.846V177.237C54.1645 178.358 54.4513 179.254 55.0326 179.931C55.6138 180.608 56.3913 180.955 57.3726 180.955C58.3539 180.955 59.1389 180.616 59.7352 179.931Z" fill="#103972"/>
<path d="M86.3736 150.387C86.4944 150.266 86.6453 150.206 86.819 150.206H92.9105C93.0842 150.206 93.2351 150.266 93.3559 150.387C93.4767 150.507 93.5371 150.658 93.5371 150.831V186.237C93.5371 186.41 93.4767 186.561 93.3559 186.681C93.2351 186.802 93.0842 186.862 92.9105 186.862H85.9735C85.6263 186.862 85.3923 186.689 85.2942 186.335L78.7799 166.062C78.7422 165.957 78.6818 165.912 78.5987 165.934C78.5082 165.949 78.4704 166.009 78.4704 166.115L78.5232 186.23C78.5232 186.403 78.4629 186.553 78.3421 186.674C78.2213 186.794 78.0703 186.854 77.8967 186.854H71.8052C71.6315 186.854 71.4806 186.794 71.3598 186.674C71.239 186.553 71.1786 186.403 71.1786 186.23V150.823C71.1786 150.65 71.239 150.5 71.3598 150.379C71.4806 150.259 71.6315 150.199 71.8052 150.199H78.6893C79.0365 150.199 79.263 150.372 79.3687 150.725L85.9358 170.999C85.9735 171.104 86.0339 171.149 86.117 171.127C86.2 171.111 86.2453 171.051 86.2453 170.946L86.1924 150.831C86.1924 150.658 86.2528 150.507 86.3736 150.387Z" fill="#103972"/>
<path d="M116.129 156.362C116.009 156.482 115.858 156.543 115.684 156.543H104.754C104.58 156.543 104.49 156.633 104.49 156.806V165.084C104.49 165.257 104.58 165.347 104.754 165.347H111.004C111.178 165.347 111.329 165.407 111.449 165.528C111.57 165.648 111.631 165.799 111.631 165.972V171.051C111.631 171.224 111.57 171.375 111.449 171.495C111.329 171.616 111.178 171.676 111.004 171.676H104.754C104.58 171.676 104.49 171.766 104.49 171.939V186.237C104.49 186.41 104.429 186.561 104.309 186.681C104.188 186.802 104.037 186.862 103.863 186.862H97.7189C97.5453 186.862 97.3943 186.802 97.2735 186.681C97.1528 186.561 97.0924 186.41 97.0924 186.237V150.831C97.0924 150.658 97.1528 150.507 97.2735 150.387C97.3943 150.266 97.5453 150.206 97.7189 150.206H115.684C115.858 150.206 116.009 150.266 116.129 150.387C116.25 150.507 116.311 150.658 116.311 150.831V155.91C116.311 156.083 116.25 156.234 116.129 156.354V156.362Z" fill="#103972"/>
<path d="M137.869 156.362C137.748 156.482 137.597 156.543 137.424 156.543H126.441C126.267 156.543 126.176 156.633 126.176 156.806V165.084C126.176 165.257 126.267 165.347 126.441 165.347H132.744C132.917 165.347 133.068 165.407 133.189 165.528C133.31 165.648 133.37 165.799 133.37 165.972V171.051C133.37 171.224 133.31 171.375 133.189 171.495C133.068 171.616 132.917 171.676 132.744 171.676H126.441C126.267 171.676 126.176 171.766 126.176 171.939V180.27C126.176 180.443 126.267 180.533 126.441 180.533H137.424C137.597 180.533 137.748 180.593 137.869 180.714C137.99 180.834 138.05 180.985 138.05 181.158V186.237C138.05 186.41 137.99 186.561 137.869 186.681C137.748 186.802 137.597 186.862 137.424 186.862H119.405C119.232 186.862 119.081 186.802 118.96 186.681C118.839 186.561 118.779 186.41 118.779 186.237V150.831C118.779 150.658 118.839 150.507 118.96 150.387C119.081 150.266 119.232 150.206 119.405 150.206H137.424C137.597 150.206 137.748 150.266 137.869 150.387C137.99 150.507 138.05 150.658 138.05 150.831V155.91C138.05 156.083 137.99 156.234 137.869 156.354V156.362Z" fill="#103972"/>
<path d="M154.634 186.35L150.588 171.894C150.52 171.759 150.43 171.683 150.324 171.683H148.535C148.361 171.683 148.271 171.774 148.271 171.947V186.245C148.271 186.418 148.21 186.568 148.09 186.689C147.969 186.809 147.818 186.869 147.644 186.869H141.5C141.326 186.869 141.175 186.809 141.054 186.689C140.934 186.568 140.873 186.418 140.873 186.245V150.838C140.873 150.665 140.934 150.515 141.054 150.394C141.175 150.274 141.326 150.214 141.5 150.214H152.113C154.038 150.214 155.759 150.68 157.261 151.598C158.763 152.524 159.933 153.826 160.756 155.504C161.579 157.182 161.994 159.101 161.994 161.268C161.994 163.436 161.601 165.144 160.809 166.717C160.024 168.29 158.929 169.509 157.525 170.382C157.457 170.419 157.404 170.457 157.367 170.509C157.329 170.562 157.329 170.622 157.367 170.69L162.198 186.14L162.25 186.35C162.25 186.696 162.062 186.877 161.677 186.877H155.374C154.989 186.877 154.747 186.704 154.642 186.35H154.634ZM148.278 165.761C148.278 165.934 148.369 166.024 148.542 166.024H150.905C151.992 166.024 152.875 165.595 153.555 164.738C154.234 163.88 154.581 162.736 154.581 161.306C154.581 159.876 154.241 158.68 153.555 157.822C152.875 156.964 151.984 156.535 150.905 156.535H148.542C148.369 156.535 148.278 156.625 148.278 156.798V165.761Z" fill="#103972"/>
<path d="M184.028 156.362C183.907 156.482 183.756 156.543 183.582 156.543H172.599C172.426 156.543 172.335 156.633 172.335 156.806V165.084C172.335 165.257 172.426 165.347 172.599 165.347H178.902C179.076 165.347 179.227 165.407 179.348 165.528C179.468 165.648 179.529 165.799 179.529 165.972V171.051C179.529 171.224 179.468 171.375 179.348 171.495C179.227 171.616 179.076 171.676 178.902 171.676H172.599C172.426 171.676 172.335 171.766 172.335 171.939V180.27C172.335 180.443 172.426 180.533 172.599 180.533H183.582C183.756 180.533 183.907 180.593 184.028 180.714C184.148 180.834 184.209 180.985 184.209 181.158V186.237C184.209 186.41 184.148 186.561 184.028 186.681C183.907 186.802 183.756 186.862 183.582 186.862H165.564C165.39 186.862 165.24 186.802 165.119 186.681C164.998 186.561 164.938 186.41 164.938 186.237V150.831C164.938 150.658 164.998 150.507 165.119 150.387C165.24 150.266 165.39 150.206 165.564 150.206H183.582C183.756 150.206 183.907 150.266 184.028 150.387C184.148 150.507 184.209 150.658 184.209 150.831V155.91C184.209 156.083 184.148 156.234 184.028 156.354V156.362Z" fill="#103972"/>
<path d="M202.242 150.387C202.363 150.266 202.514 150.206 202.687 150.206H208.779C208.952 150.206 209.103 150.266 209.224 150.387C209.345 150.507 209.405 150.658 209.405 150.831V186.237C209.405 186.41 209.345 186.561 209.224 186.681C209.103 186.802 208.952 186.862 208.779 186.862H201.842C201.495 186.862 201.261 186.689 201.162 186.335L194.648 166.062C194.61 165.957 194.55 165.912 194.467 165.934C194.376 165.949 194.339 166.009 194.339 166.115L194.392 186.23C194.392 186.403 194.331 186.553 194.21 186.674C194.09 186.794 193.939 186.854 193.765 186.854H187.673C187.5 186.854 187.349 186.794 187.228 186.674C187.107 186.553 187.047 186.403 187.047 186.23V150.823C187.047 150.65 187.107 150.5 187.228 150.379C187.349 150.259 187.5 150.199 187.673 150.199H194.558C194.905 150.199 195.131 150.372 195.237 150.725L201.804 170.999C201.842 171.104 201.902 171.149 201.985 171.127C202.068 171.111 202.114 171.051 202.114 170.946L202.061 150.831C202.061 150.658 202.121 150.507 202.242 150.387Z" fill="#103972"/>
<path d="M215.437 184.491C213.527 182.625 212.576 180.119 212.576 176.974V160.004C212.576 156.896 213.527 154.42 215.437 152.569C217.346 150.718 219.875 149.792 223.03 149.792C226.185 149.792 228.767 150.718 230.677 152.569C232.587 154.42 233.538 156.896 233.538 160.004V160.584C233.538 160.757 233.477 160.907 233.356 161.028C233.236 161.148 233.085 161.208 232.911 161.208L226.767 161.472C226.344 161.472 226.14 161.283 226.14 160.892V159.53C226.14 158.514 225.861 157.694 225.302 157.069C224.744 156.437 223.989 156.129 223.045 156.129C222.102 156.129 221.4 156.445 220.841 157.069C220.283 157.694 220.003 158.522 220.003 159.53V177.598C220.003 178.614 220.283 179.427 220.841 180.036C221.4 180.646 222.14 180.955 223.045 180.955C223.951 180.955 224.744 180.646 225.302 180.036C225.861 179.427 226.14 178.614 226.14 177.598V176.184C226.14 176.01 226.201 175.86 226.321 175.74C226.442 175.619 226.593 175.559 226.767 175.559L232.911 175.822C233.085 175.822 233.236 175.883 233.356 176.003C233.477 176.123 233.538 176.274 233.538 176.447V176.974C233.538 180.119 232.571 182.625 230.647 184.491C228.722 186.358 226.178 187.291 223.03 187.291C219.883 187.291 217.346 186.358 215.437 184.491Z" fill="#103972"/>
<path d="M255.564 156.362C255.443 156.482 255.292 156.543 255.119 156.543H244.136C243.962 156.543 243.871 156.633 243.871 156.806V165.084C243.871 165.257 243.962 165.347 244.136 165.347H250.439C250.612 165.347 250.763 165.407 250.884 165.528C251.005 165.648 251.065 165.799 251.065 165.972V171.051C251.065 171.224 251.005 171.375 250.884 171.495C250.763 171.616 250.612 171.676 250.439 171.676H244.136C243.962 171.676 243.871 171.766 243.871 171.939V180.27C243.871 180.443 243.962 180.533 244.136 180.533H255.119C255.292 180.533 255.443 180.593 255.564 180.714C255.685 180.834 255.745 180.985 255.745 181.158V186.237C255.745 186.41 255.685 186.561 255.564 186.681C255.443 186.802 255.292 186.862 255.119 186.862H237.101C236.927 186.862 236.776 186.802 236.655 186.681C236.534 186.561 236.474 186.41 236.474 186.237V150.831C236.474 150.658 236.534 150.507 236.655 150.387C236.776 150.266 236.927 150.206 237.101 150.206H255.119C255.292 150.206 255.443 150.266 255.564 150.387C255.685 150.507 255.745 150.658 255.745 150.831V155.91C255.745 156.083 255.685 156.234 255.564 156.354V156.362Z" fill="#103972"/>
<path d="M350.297 190C343.48 190 337.404 188.337 332.218 185.056C331.229 184.431 330.293 183.754 329.395 183.024C329.365 183.001 329.327 183.024 329.327 183.054V184.815C329.327 185.665 329.07 186.523 328.519 187.17C327.848 187.953 326.934 188.375 325.908 188.375H268.381C267.445 188.375 266.607 188.028 265.958 187.374C265.309 186.734 264.962 185.899 264.962 184.966V173.241C264.962 171.984 265.415 170.863 266.283 169.998C270.442 165.934 274.714 161.479 279.002 156.753C283.47 151.817 286.075 148.965 287.177 147.783C289.562 144.984 292.03 142.259 294.521 139.693C303.693 129.549 305.625 124.402 305.625 121.881C305.625 119.36 304.787 117.501 303.051 115.951C301.262 114.348 298.96 113.566 296.001 113.566C293.042 113.566 290.74 114.348 288.958 115.951C287.23 117.501 286.384 119.526 286.384 122.137V125.192C286.384 126.05 286.12 126.908 285.554 127.555C284.874 128.323 283.976 128.737 282.965 128.737H268.638C267.702 128.737 266.864 128.39 266.215 127.736C265.566 127.096 265.218 126.261 265.218 125.328V96.8518C265.218 95.3844 266.253 94.3835 266.871 93.7815L267.045 93.6084C269.725 90.9896 272.125 88.2203 274.677 85.2779C276.058 83.6901 277.477 82.0496 279.009 80.3564C283.478 75.4198 286.082 72.5677 287.184 71.3862C289.57 68.5868 292.038 65.8626 294.529 63.2965C303.7 53.1524 305.633 48.0051 305.633 45.4841C305.633 42.9632 304.795 41.1044 303.059 39.5542C301.27 37.9513 298.967 37.1687 296.008 37.1687C293.049 37.1687 290.747 37.9513 288.966 39.5542C287.237 41.1044 286.392 43.1287 286.392 45.74V48.7953C286.392 49.6531 286.127 50.511 285.561 51.1582C284.882 51.9258 283.984 52.3397 282.972 52.3397H267.891C266.954 52.3397 266.117 51.9935 265.467 51.3388C264.818 50.6992 264.471 49.8639 264.471 48.9307V42.9406C264.471 42.9406 264.471 42.8728 264.471 42.8352C264.743 37.8911 266.336 33.4512 269.189 29.6434C272.019 25.8657 275.831 22.9383 280.504 20.9441C285.108 18.98 290.324 17.9867 296.008 17.9867C302.326 17.9867 307.927 19.1907 312.645 21.5687C316.616 23.5705 319.876 26.1893 322.36 29.38C322.375 29.4026 322.405 29.4026 322.428 29.38C323.273 28.2813 324.209 27.2428 325.228 26.2796C331.018 20.7786 338.944 17.9867 348.772 17.9867C358.6 17.9867 366.541 20.7786 372.376 26.272C378.241 31.8031 381.215 39.336 381.215 48.6673V82.7419C381.215 89.0782 381.238 102.263 368.888 110.796C358.109 118.246 345.617 116.636 340.989 115.68C340.967 115.68 340.944 115.695 340.944 115.725L340.846 130.437C340.846 130.437 340.876 130.49 340.906 130.475C344.522 128.654 348.576 127.743 353.006 127.743C359.325 127.743 364.948 129.376 369.726 132.589C374.52 135.825 377.969 140.318 379.969 145.947C379.977 145.969 379.985 146 380 146.022C381.328 150.342 382 154.601 382 158.68C382 163.225 381.268 167.402 379.826 171.089C377.75 176.853 374.014 181.519 368.737 184.92C363.506 188.292 357.317 190 350.327 190H350.297ZM327.44 176.643C327.976 176.643 328.497 176.868 328.867 177.29C330.407 179.058 332.218 180.601 334.241 181.88C338.808 184.77 344.213 186.237 350.297 186.237C356.381 186.237 362.05 184.732 366.654 181.76C371.221 178.817 374.452 174.784 376.256 169.764C377.546 166.468 378.188 162.751 378.188 158.68C378.188 154.992 377.577 151.117 376.369 147.166C374.64 142.327 371.681 138.474 367.583 135.705C363.446 132.921 358.532 131.506 352.976 131.506C348.342 131.506 344.213 132.65 340.703 134.9C339.57 135.652 338.649 135.366 338.212 135.133C337.774 134.9 337.027 134.298 337.027 132.936L337.155 114.062C337.155 112.617 338.219 111.556 339.684 111.556C339.865 111.556 340.046 111.579 340.22 111.632C340.363 111.677 354.999 115.801 366.714 107.703C377.433 100.298 377.418 88.8825 377.411 82.7494V48.6673C377.411 40.2917 374.904 33.8651 369.756 29.0037C364.646 24.1875 357.581 21.7418 348.749 21.7418C339.918 21.7418 332.875 24.18 327.81 28.9962C326.33 30.4034 325.04 31.9988 323.983 33.7296C323.643 34.2865 323.032 34.6326 322.375 34.6326C321.681 34.6251 321.107 34.2865 320.76 33.7296C320.714 33.6544 320.669 33.5791 320.631 33.5038C320.601 33.4512 320.578 33.406 320.548 33.3533C318.322 29.8466 315.083 27.002 310.939 24.9175C306.75 22.8104 301.723 21.7418 296.001 21.7418C290.83 21.7418 286.112 22.6373 281.976 24.3907C277.915 26.1215 274.631 28.635 272.201 31.8784C269.808 35.0766 268.472 38.8092 268.23 42.9707V48.5093C268.23 48.5093 268.253 48.5544 268.275 48.5544H282.565C282.565 48.5544 282.61 48.5319 282.61 48.5093V45.7174C282.61 42.03 283.893 39.0124 286.429 36.7322C288.905 34.5122 292.129 33.3834 296.001 33.3834C299.873 33.3834 303.096 34.5122 305.572 36.7322C308.109 39.0048 309.392 41.9472 309.392 45.4616C309.392 50.1498 305.429 56.8172 297.277 65.8401C294.793 68.4062 292.362 71.0777 290.03 73.8244C290.015 73.847 289.992 73.8696 289.97 73.8921C288.898 75.0435 286.301 77.8881 281.802 82.8548C280.3 84.5103 278.889 86.1433 277.522 87.7161C274.926 90.7112 272.465 93.5482 269.695 96.2573L269.491 96.453C269.332 96.6035 269.091 96.8443 268.977 96.9873V124.906C268.977 124.906 269 124.951 269.023 124.951H282.557C282.557 124.951 282.602 124.929 282.602 124.906V122.114C282.602 118.427 283.886 115.409 286.422 113.129C288.898 110.909 292.121 109.78 295.993 109.78C299.866 109.78 303.089 110.909 305.565 113.129C308.101 115.402 309.384 118.344 309.384 121.858C309.384 126.547 305.421 133.214 297.269 142.237C294.786 144.803 292.355 147.475 290.022 150.221C290.007 150.244 289.985 150.266 289.962 150.289C288.89 151.44 286.294 154.285 281.795 159.252C277.462 164.038 273.129 168.553 268.932 172.654C268.819 172.767 268.728 172.918 268.728 173.219V184.552C268.728 184.552 268.751 184.597 268.774 184.597H325.508C325.508 184.597 325.553 184.574 325.553 184.552V178.509C325.553 177.726 326.044 177.019 326.776 176.748C326.995 176.665 327.214 176.628 327.44 176.628V176.643ZM350.168 174.453C347.481 174.453 345.096 173.738 343.073 172.331C341.057 170.931 339.54 168.922 338.559 166.363C338.551 166.34 338.544 166.318 338.529 166.288C338.491 166.167 338.408 165.957 338.242 165.633V165.618C337.736 164.625 336.717 164 335.6 164H326.549C324.617 164 323.183 165.851 323.741 167.695C323.99 168.515 324.262 169.32 324.564 170.103C324.624 170.231 324.655 170.306 324.685 170.382C324.911 170.961 324.836 171.616 324.481 172.127C324.126 172.639 323.545 172.948 322.926 172.948H291.26C290.279 172.948 289.456 172.459 289.056 171.638C288.611 170.773 288.8 169.712 289.547 168.967L291.457 167.063C297.488 160.967 302.077 156.257 305.097 153.081C308.109 149.913 310.954 146.654 313.558 143.388C315.861 140.604 317.793 137.925 319.333 135.389C319.726 134.742 320.435 134.305 321.19 134.38C322.179 134.478 322.903 135.299 322.903 136.254V148.603C322.903 149.679 323.779 150.552 324.858 150.552L336.007 150.598C337.306 150.598 338.536 149.995 339.306 148.949C340.265 147.648 341.707 145.939 343.133 145.172C345.451 143.923 347.994 143.29 350.682 143.29C353.369 143.29 355.898 143.998 357.988 145.39C360.132 146.82 361.589 148.859 362.314 151.463C363.137 153.608 363.559 156.031 363.559 158.68C363.559 161.63 363.076 164.113 362.125 166.054C361.144 168.651 359.589 170.72 357.528 172.188C355.422 173.685 352.946 174.453 350.168 174.453ZM348.757 97.958C344.492 97.958 340.997 96.5884 338.385 93.8793C335.789 91.1928 334.468 87.6032 334.468 83.2085V48.1631C334.468 43.7684 335.789 40.1788 338.385 37.4923C341.005 34.7832 344.492 33.4135 348.757 33.4135C353.022 33.4135 356.637 34.7832 359.257 37.4923C361.853 40.1863 363.174 43.7759 363.174 48.1631V83.2085C363.174 87.6032 361.853 91.1928 359.257 93.8793C356.637 96.5884 353.105 97.958 348.757 97.958ZM320.488 96.5583H291.268C290.287 96.5583 289.464 96.0692 289.064 95.2489C288.618 94.3835 288.807 93.3225 289.554 92.5775L291.464 90.6736C297.495 84.5781 302.085 79.8672 305.104 76.6915C308.116 73.5234 310.962 70.2649 313.566 66.999C314.691 65.6369 315.747 64.2748 316.721 62.9278C317.144 62.3408 317.846 61.9645 318.571 62.0548C319.529 62.1828 320.216 62.9955 320.216 63.9211V82.3129C320.216 86.6626 320.896 90.5908 322.239 93.9847C322.466 94.5641 322.398 95.2188 322.043 95.7306C321.696 96.2423 321.107 96.5508 320.48 96.5508L320.488 96.5583Z" fill="#103972"/>
</svg>
